<svg width="24" height="24" version="1.0" xml:space="preserve" xmlns="http://www.w3.org/2000/svg" xmlns:i="&amp;ns_ai;"><switch transform="translate(-184.07 -184.11) scale(.13825)"><g i:extraneous="self"><path d="M1498.5 1411.5a79.775 79.775 0 0 1-79.775 79.775 79.775 79.775 0 0 1-79.775-79.775 79.775 79.775 0 0 1 79.775-79.775 79.775 79.775 0 0 1 79.775 79.775z" style="fill:#fff"/><g clip-rule="evenodd" fill-rule="evenodd"><path d="M1499.6 1447.6c-.61 4.216-3.313 7.487-5.053 11.191-2.251 1.877-4.94 1.049-7.443 1.102-2.801.06-5.645.396-8.413-.422-1.535-1.046-3.28-1.033-5.038-1.032-5.49 0-10.981.059-16.472-.022-3.933-.058-5.629-1.545-6.314-5.42-.306-1.728-.183-3.484-.183-5.23-.01-32.069-.001-64.139-.01-96.209 0-1.994.118-3.994-.194-5.975-.228-1.514.268-2.565 1.873-2.892 3.463.018 6.715 1.064 9.961 2.137v-.025c.628 1.183 1.983 1.012 2.941 1.579v-.001c1.062.685 1.627 1.712 2.001 2.869.59 1.766 1.559.854 2.47.346 3.812 2.298 7.047 5.243 9.801 8.729 2.141 4.056 3.896 8.361 8.393 10.634 1.14.576 2.123 1.724 2.83 2.934 1.75 2.579 3.554 5.127 4.584 8.113.478 1.178-.828 1.318-1.229 2.142.813.452 1.831-.647 2.539.258a.593.593 0 0 1 .191.498c.793 2.396.782 5.12 2.854 6.994 5.159 14.472 6.064 29.256 3.241 44.313-.483.341-1.003.434-1.563.223-.646-.445-.765-1.133-.845-1.831-.17-1.589-1.383-1.247-2.39-1.27-1.834.307-1.394 1.396-.731 2.383.535.796 1.419 1.377 1.297 2.506-.029.241-.153.489-.126.714.424 3.545 1.598 7.02 1.035 10.664z" fill="#65ccfe"/><path d="M1365.6 1350.2c5.054-3.854 10.178-7.596 16.203-9.855.956-.403 1.726-.327 1.977.852.156.736.077 1.495.077 2.243v94.104c0 1 0 2-.191 2.981.142 4.412.843 8.845-.331 13.235-1.161 2.044-3.179 1.677-4.993 1.687-9.341.049-18.683.01-28.023.031-1.733 0-3.504-.183-5.111.69-.354.15-.737.232-1.122.252-1.419-1.102-3.271-1.195-4.826-2.003-.809-1.393-1.347-2.878-1.533-4.483.052-.131.104-.262.15-.394.119-.485-.213-.813-.412-1.19-.46-.957-.693-2.004-1.229-2.926v.01c-.546-.961-.215-2.307-1.322-3.022-3.847-15.473-3.967-30.966-.183-46.463.377-1.545 1.069-3.014 1.615-4.518.576-.547.827-1.381 1.574-1.778.333-.032.646.027.928.18.354.056.499 1 1.027.314.81-1.052 1.492-2.197 2.182-3.332 1.089-.808 2.065.373 3.116.163.308-.27.583-.713.419-.982-1.69-2.792-.377-5.498.155-8.228a9.494 9.494 0 0 0-.796-4.445c.797-2.321 2.249-4.207 3.944-5.93.408-.276.884-.528 1.344-.444 2.573.466 3.027-.631 2.181-2.809-.182-.467.03-.943.251-1.38l1.436-1.397c2.988-1.072 4.779-3.33 6.054-6.101.145-.868.696-1.306 1.53-1.443.79.282 1.343.839 1.781 1.527.193.391.294.802.225 1.224.298.926.544-.105.817-.047.575-.363 1.279-.507 1.663-1.063-.077.16-.213.192-.309.3-.618.344-1.201.268-1.779-.041-1.099-2.277 1.913-3.431 1.505-5.518z" fill="#33cc31"/><path d="M1369.9 1490.4h-.333l-.278-.182c-.733-1.92-3.943-2.139-3.334-5.186.146-.729-2.056.288-2.962-.588-1.057.013-1.652-.585-2-1.511-.665-1.357-1.708-2.342-3.016-3.065-.772-.188-1.231-.702-1.484-1.429-.331-.936-1.44-1.604-.971-2.813.386-.418.848-.791.901-1.424-.187.558-.467 1.053-.943 1.42-.713.369-1.345.191-1.936-.277-2.575-2.732-5.127-5.483-6.817-8.895-1.424-3.272-1.017-4.146 2.679-4.188 10.542-.119 21.087-.313 31.616.094 1.113.194 2.435 1.172 3.015-.788.223-.273.484-.491.78-.676a2.952 2.952 0 0 1 1.03-.216c3.188.662 6.698-.757 9.655 1.49.287.219.717.01 1.029-.202 2.504-1.663 4.836-1.179 7.181.425.691.473 1.692.152 2.531.339.222.066.431.169.642.268.405.188 1.126.698 1.184.448.192-.842-.748-.504-1.158-.785-3.458-.343-3.578-.463-2.787-2.786 2.57-1.399 5.08.214 7.64.175 9.78-.151 19.562-.059 29.333-.063 1.552-.228 3.067 1.259 4.652.126a2.909 2.909 0 0 1 1.465-.014c1.242 1.031 2.338.328 3.442-.307.908-.272 1.779-.246 2.594.293.419.449.509.98.393 1.565-.368.87-.971 1.603-1.428 2.424-1.205 1.509-2.673 2.011-4.483 1.156-.473-.355-.84-.867-1.463-1.021.457.163.829.443 1.148.804.646 1.62-.431 2.427-1.512 3.234-.877.41-1.783.447-2.705.201-2.655-.774-3.25 1.34-4.171 2.994-.368.873-1.01 1.43-1.92 1.678-1.444.091-2.515 1.356-4.012 1.292a2.254 2.254 0 0 1-.989-.438c-.316-.472-.392-.99-.299-1.537.355-1.088 1.151-1.801 2.032-2.502-1.055.516-1.779 1.793-3.19 1.5-1.114-.186-2.015-.769-2.836-1.499-2.618-1.393-5.218-2.53-8.339-1.479-2.006.677-4.24.697-6.229.073-2.63-.824-3.002.529-3.048 2.509-.034 1.486.251 2.949.441 4.419.35 2.706-.193 4.937-3.137 5.896a3.816 3.816 0 0 1-.989.494 2.812 2.812 0 0 1-1.649-.092c-2.696-2.25-3.697-5.567-5.01-8.58-1.527-3.502-4.123-3.714-7.283-3.659-2.982.052-3.858 1.829-4.816 4.228-1.838 4.606-4.102 9.042-7.041 13.08-.332.809-2.465 1.084-.716 2.491 1.3.203 2.639 0 3.897.458.971.453 1.877 1.417 3.029.357.277-.193.569-.353.868-.503 2.102-3.657 5.896-2.332 8.977-2.91 2.001-.375 2.592 2.063 3.981 3.033.239.256.434.542.604.845 2.418 3.836 3.823.047 5.623-.752.715-.323 1.472-.441 2.248-.479.799-.043 1.599-.041 2.396-.095.871-.04 1.747-.06 2.613 0 2.623.188 4.325-.495 4.296-3.614-.035-3.746 2.605-3.997 5.447-3.795 1.96.727 3.921 1.424 5.801-.219 1.749-.385 2.979.632 4.241 1.568.46.241.896.519 1.283.865.21.278.334.592.367.939.028.692-.814 1.374-.215 2.023.785.85 1.503-.307 2.295-.259 2.536.255 4.334 1.953 6.354 3.221.954.954 2.199.799 3.377.878 1.477.097 2.884.304 3.576 1.883.539 1.532 1.936 2.845 1.235 4.703-.424.877-1.401 1.108-2.038 1.738l-1.161.235c-1.361.442-2.891.364-4.086 1.321l-.294.173-.34-.03c-1.877.163-3.887-.164-5.369 1.455l-.169.17-.214-.109c-.861.344-1.78.258-2.669.36-.808.983-1.057-3.089-2.082-.225-.888.816-2.359.213-3.125 1.308l-.176.174-.222-.11c-7.397.94-14.908 1.306-22.185.036-3.76-.655-8.317.275-11.415-3.332-.988-1.15-2.303-.269-3.385.378-.402.144-.794.12-1.175-.069l-.241.063-.167-.184c-.836-1.866-2.714-.743-3.977-1.386l-.288.06-.235-.178c-2.369-1.521-5.054-2.186-7.732-2.872-1.29.06-1.913-.985-2.757-1.663-.664-.678-1.572-.94-2.371-1.39a.637.637 0 0 1-.632-.211c-.651-1.822-2.375-2.152-3.887-2.777z" fill="#fe0101"/><path d="M1445.7 1467.7c.528-.94 1.598-1.598 1.5-2.866v-.001c1.62-.141 3.526.579 4.5-1.5 1.238-.677 2.395-1.488 3.611-2.21 5.351-.692 10.726-.15 16.086-.334 4.232-.145 8.457.188 12.703-.471 4.183-.648 5.993 1.865 4.381 5.677-.508 1.197-.084 2.499-.68 3.639-1.292 3.099-4.422 4.588-6.295 7.179-.999.909-2.156 1.663-2.834 2.888l-3.586 3.186c-1.859.929-4.34-.371-5.938 1.999-.689 1.021-1.574-.551-2.263-1.151-.233-.222-.454-.458-.675-.689-.555-.63-1.309-.795-2.099-.873-1.591-.149-3.213-1.964-4.755.112-.68-.279-1.011-.875-1.346-1.47-.306-.611-.569-1.237-.579-1.939.163-.748.714-1.104 1.371-1.351.714-.411 1.352-.959 2.141-1.242.31-.085.619-.201.943-.058-.252-.264-.568-.094-.876-.124-1.044.024-1.728.945-2.729 1.031a1.206 1.206 0 0 1-.866-.447c-.937-2.153.63-5.108-2.147-6.67a3.234 3.234 0 0 1-.804-.63c-.577-1.646-1.717-1.118-2.954-.932-1.966.296-4.069.968-5.81-.753z" fill="#fe0101"/><path d="M1459.2 1482.1c1.357-.335 1.058-1.606 1.022-2.608 1.809.387 2.475 2.309 4.228 1.859.566.773 1.67.742 2.249 1.498h.001c.809.638.559 1.93 1.508 2.473 2.068 1.187.906 2.419.066 3.652-1.927 1.932-4.066 3.542-6.684 4.435-.904.68-2.35.359-2.953 1.596l-.091.029c-.493.161-.988.294-1.508.132-.654-.246-.94-1.379-1.644-1.102-.656.259-.016 1.003.083 1.535.077.322.111.646.11.976-.594.84-1.36 1.343-2.432 1.255-.511.461-.999.469-1.46-.072.557-1.828-1.169-2.883-1.495-4.411 1.071-.772 1.319-2.083 2.021-3.101.376-.345.828-.526 1.318-.631.918-.198 1.943-.048 2.676-.835a7.76 7.76 0 0 0 .511-.794c.697-2.019-.113-4.672 2.474-5.888z" fill="#fd0201"/><path d="M1382.7 1463.4c-11.186 0-22.372.07-33.556-.053-2.602-.029-3.368.749-2.492 3.153-1.931-1.543-2.837-3.751-3.841-5.896.256-.42.612-.723 1.065-.913 6.563-.75 13.152-.288 19.728-.304 6.579-.017 13.168-.377 19.744.237.717.238 1.277.648 1.515 1.403l-.662.872c-.559.442-.763 1.24-1.501 1.501z" fill="#fb0302"/><path d="M1447.9 1459c-.78-.978-.544-2.133-.544-3.235 0-38.26-.013-76.52.094-114.78 0-.926-1.68-4.079 1.99-2.782-1.344 2.003 1.216 3.878.193 5.887a5.162 5.162 0 0 0-.453 1.161c-.182 23.838-.017 47.661-.076 71.483-.03 12.224.079 24.449-.053 36.668-.01.674-.018 1.351-.042 2.023-.034 1.081-.057 2.169-.629 3.146-.158.144-.318.286-.48.429z" fill="#71cdfa"/><path d="m1384.9 1461-.65-.642-.149-.695c.31-.374.694-.641 1.15-.804 7.125-.61 14.265-.163 21.398-.258.891-.012 1.675.354 2.396.856 12.939.01 25.877.012 38.816.018 1.413-1.035 3.059-.902 4.667-.906 7.206-.018 14.456-.497 21.607.135 6.805.603 13.611.146 20.387.817.6.913.103 1.49-.611 2.002-12.48-.992-24.98-.132-37.469-.409-1.104-.024-2.253.146-3.218-.617l-2.994-.001c-1.008.674-2.008.672-3-.035l-1.508-.053c-.996.607-1.993.791-2.995.015-12.996 0-25.993-.01-38.989-.01-2.675 1.392-5.622.809-8.389.821-3.459.016-6.949.021-10.419-.207z" fill="#85435c"/><path d="M1453.2 1460.5c12.742-.044 25.484-.088 38.227-.129.996 0 2.056-.112 2.458 1.156-2.161 2.612-3.312 5.982-6.077 8.146-.273-1.813-3.712-4.094.838-5.225.649-.162.155-1.123-.165-1.623-.914-1.426-2.403-2.032-3.892-1.604-2.955.852-5.931.629-8.908.643-6.992.03-13.984.01-20.977.01-.5.451-.999.398-1.499 0v-1.374z" fill="#fa0204"/><path d="M1383.5 1441.6c0-4.345-.01-8.689-.01-13.035-.001-28.113.01-56.228-.034-84.342 0-1.439.864-3.436-1.616-3.944 2.82-2.268 2.304.25 2.313 1.685.045 7.366.028 14.731.024 22.097-.012 25.847-.027 51.693-.041 77.539-.214.275-.427.275-.64 0z" fill="#45cc45"/><path d="m1345.2 1388.4-3.001-1.499c-1.69.946-2.382-.436-3.256-1.396-.115-.572-.17-1.137.247-1.63 1.188-3.915 3.042-7.47 5.717-10.581 2.94.624 1.381 2.999 1.793 4.607-1.681 2.155-3.249 4.265-1.22 7.133.717 1.014.67 2.314-.28 3.366z" fill="#33cd2f"/><path d="M1393.2 1500.8c1.7-2.442 3.49-2.588 5.423-.172.841 1.05 1.602 1.535 2.96 1.824 9.504 2.016 19.137 1.188 28.716 1.522-7.941 2.039-15.93 1.509-23.917.369-3.425-.489-6.941-.569-10.167-2.058-.912-.686-2.219-.567-3.015-1.485z" fill="#f70304"/><path d="M1449.5 1343.4c-.068-1.746-3.67-3.462-.045-5.24.576.782 1.528.598 2.294.895.861.872 2.093.846 3.13 1.291 2.278 1.833 5.748 1.689 7.446 4.486-3.113.089-6.144-.351-9.073-1.43-1.25-1.665-2.501.227-3.752 0z" fill="#68ccf9"/><path d="M1490.7 1371.9c-3.556-2.774-8.148-4.303-10.028-9.087-.589-1.499-1.353-2.828-1.194-4.48 4.704 3.725 8.058 8.567 11.222 13.567z" fill="#6acbfa"/><path d="m1494.5 1459.5-46.661-.046c.01-.179.018-.356.032-.534l.104-.246c1.006-.827 2.214-.864 3.429-.885 7.523.661 15.064.146 22.595.325 1.582.038 3.233-.33 4.701.619 5.271.01 10.543.019 15.814.026.053.249.047.495-.014.741z" fill="#d392ab"/><path d="M1414.4 1455.1c.727 3.24-1.903 1.776-3.151 2.248-.506-.478-.747-1.078-.828-1.752-.23-.331.378-.916-.284-1.088-.478-.123.222-.021-.197.281-.241.374-.526.68-.856.955-.711.514-1.453.809-2.314.389a1.83 1.83 0 0 1-.481-.89c.174-1.283-.271-2.31-1.285-3.103a1.972 1.972 0 0 1-.088-1.027c.73-1.561 2.454-1.152 3.626-1.844.814-.387 1.625-.792 2.571-.656.349.111.658.292.928.54l.156-.024c-.34 2.387.688 4.269 2.203 5.971z" fill="#ca934f"/><path d="M1342.9 1460.6c-.697-.269-.741-.888-.806-1.497.307-.658.904-.881 1.545-1.046.645-.134 1.3-.158 1.957-.174.673-.026 1.345-.03 2.019-.034 11.411.028 22.819-.078 34.228.045.699.04 1.374.172 1.986.535.394.281.615.664.665 1.146a1.449 1.449 0 0 1-.24.316c-12.345.275-24.691.022-37.037.144-1.32.014-2.744-.493-3.969.463l-.146.146z" fill="#ac8136"/><path d="M1499.6 1447.6c-1.352-3.347-1.181-7.001-2.074-10.442-.047-.185.459-.511.707-.771 1.157-.541 2.066-1.411 3-2.249.563.023 1.126.048 1.688.072-.225 1.242.216 2.599-.636 3.733-1.485 1.163-1.14 3.038-1.767 4.534.297 1.816-.456 3.443-.918 5.123z" fill="#63cdfd"/><path d="m1384.4 1459.6-.454-.743c.139-.128.279-.256.414-.386a3.98 3.98 0 0 1 1.032-.386c4.932-.342 9.88-.001 14.859-.198-.327-.727-1.267-.969-1.203-1.862.638-.868 1.543-.879 2.483-.784.708.129 1.349.436 1.979.764.45.22.9.443 1.375.607 1.125.354 2.324-.088 3.446.305.322.156.514.411.579.763l.093 1.828-24.603.092z" fill="#f2dedb"/><path d="M1400 1410.9c-.899-1.133-.619-2.482-.69-3.767.483-.944-.286-1.946.126-2.892.426-1.379.61-2.745-.233-4.053-1.437-1.419-1.014-2.983-.366-4.565.097-.314.283-.571.536-.779a1.82 1.82 0 0 1 1.347-.061c.674.428 1.43.01 2.136.188.804.57.828 1.348.604 2.197-.123.315-.284.61-.466.892-.989 1.689-.567 3.135.761 4.428.369.71.074 1.344-.213 1.981-.995 1.443-.969 3.232-1.607 4.799-.483.735-1.081 1.336-1.935 1.632z" fill="#b28647"/><path d="M1394.8 1383.9c-1.397-5.155-2.083-10.412-2.271-15.741a1.1 1.1 0 0 1 .962-.163c.473.251.817.623 1.043 1.107.194.476.29.975.332 1.484.042 1.128.111 2.257.269 3.377-.161.894-.118 1.765.316 2.594.396 2.032.052 4.313 2.012 5.803a6.823 6.823 0 0 1 1.081 2.483 8.48 8.48 0 0 1 .052 2.834c-.185.762-.431 1.477-1.336 1.653-.961-.383-1.163-1.33-1.575-2.12-.295-1.101.178-2.409-.885-3.311z" fill="#e4cc9c"/><path d="M1468.3 1489c1.639-2.599-2.459-3.721-1.574-6.125 1.296-.179 1.285 1.253 2.344 1.896.616-5.467 3.898-1.467 6.045-1.843-2.089 2.232-3.673 5.025-6.815 6.072z" fill="#fb0305"/><path d="M1392.4 1440.1c-.2-.469.077-.684.45-.847 2.569-.482 3.513-2.377 4.027-4.643.247-.683.56-1.302 1.376-1.44.905.271 1.498.921 2.009 1.668.205.505.209 1.013.01 1.52-.8 1.382-3.03 2.202-1.725 4.408.48.464.956.93.996 1.656-.086 1.215-.181 2.429-.591 3.592-.412.844-1.017 1.488-1.9 1.845a1.365 1.365 0 0 1-1.004-.24c.167-1.934-.655-3.552-1.658-5.101-.336-.514-.791-.919-1.262-1.309-.331-.313-.392-.799-.727-1.109z" fill="#c96b34"/><path d="m1413.4 1443.1.797 2.228c-.944 1.338-2.358 1.576-3.846 1.645-1.053-1.281-2.124-2.561-1.232-4.384.176-.201.39-.272.635-.212-.065-.539-.693-.289-.899-.639a1.859 1.859 0 0 1-.252-.88c.042-.973.11-1.937.759-2.741.94-.867 1.901-.402 2.864-.051.466.252.801.62.987 1.118.123.483.104.962-.057 1.43-.559.888-.032 1.675.244 2.486z" fill="#c0652c"/><path d="M1428.6 1386.3c-1.116 5.218-2.775 10.246-5.253 14.987a1.625 1.625 0 0 1-.615-.918c-.199-1.157.249-2.208.532-3.287.799-2.019.404-4.333 1.529-6.27.561-1.488 1.926-2.614 1.336-4.614-.357-1.208.959-1.37 2.004-1.162.505.293.843.648.467 1.264z" fill="#c6974e"/><path d="m1384 1458.8-1.261-.041c-.395-.361-.484-.82-.438-1.326.069-.478.178-.947.27-1.421-.05-1.058 1.11-2.038.181-3.148.656-3.725-.526-7.564.714-11.252.213.01.426.01.639 0 .137.198.221.418.25.657.432.412.63.936.726 1.51.125.934.097 1.873.118 2.813.023.372.023.745.022 1.119.017.373.013.746.01 1.119a36.882 36.882 0 0 0 .251 5.598c-.152 1.521-.092 3.102-1.18 4.369z" fill="#3dbe3c"/><path d="M1416.3 1420.6c-.633 1.54-.592 3.391-2.084 4.536-1.704-.39-.84 1.312-1.466 1.803-.557.529-1.132.917-1.855.261-.544-.856-.51-1.78-.335-2.724.646-1.747.245-3.646.757-5.412a2.32 2.32 0 0 1 .616-.854c.332-.093.653-.051.952.12.542.448.807 1.308 1.746 1.188.301-.033.595-.017.89.041.478.183.598.634.779 1.041z" fill="#a36f37"/><path d="m1401.5 1355.4 3.041 1.611c.801.983.15 1.886-.144 2.809-.229.583-.423 1.178-.482 1.807a8.562 8.562 0 0 0 .252 3.194c.078.313.111.628.118.949-.029.661-.23 1.279-.447 1.896a4.233 4.233 0 0 1-.442.898c-.359.418-.774.636-1.323.36a2.649 2.649 0 0 1-.492-.889c-.132-.495-.187-1.002-.218-1.513-.291-1.834-.023-3.724-.556-5.539a10.446 10.446 0 0 1-.281-2.227c.041-1.203-.049-2.442.974-3.356z" fill="#e1c795"/><path d="m1424 1397.4-.822 3.004a72.955 72.955 0 0 0-1.358 5.364l-.306 2.064c-1.384-.16-1.349-1.426-1.812-2.309a6.046 6.046 0 0 1-.24-2.084c.054-1.038.464-2.007.567-3.036.041-.511.096-1.019.163-1.527a3.717 3.717 0 0 1 .488-1.463c.594-.708 1.362-1.039 2.279-1.046.579.11.8.581 1.041 1.033z" fill="#b1762a"/><path d="M1363 1484.5c1.299.211 2.333-2.355 3.828-.355.196.263.642.341.971.504-2.599 2.699 1.966 3.492 1.497 5.625-2.765-1.198-4.62-3.389-6.296-5.774z" fill="#f50909"/><path d="m1420.2 1405.6 1.238 2.172c-.963 2.243-1.199 4.781-2.752 6.785-.548-.086-.934-.394-1.193-.873-.729-1.649.314-3.275.06-4.92-.014-.694.247-1.29.655-1.833.543-.622 1.109-1.216 1.992-1.331z" fill="#a47431"/><path d="M1352.7 1362.7c-.039 1.534 2.294 2.302 1.201 4.269-1.565 2.816-3.341.087-4.978.364.969-1.781 2.209-3.341 3.777-4.633z" fill="#3ac939"/><path d="M1391.1 1356.9c1.4-.917 2.86-1.758 4.189-2.771 2.376-1.81 1.494.357 1.643 1.287-.187 1.352.568 2.771-.29 4.073a1.546 1.546 0 0 1-.827.547c-1.027-.472-2.046-.963-2.886-1.744-.586-.493-1.331-.782-1.829-1.392z" fill="#e2ddb9"/><path d="M1360.2 1355.2c.135 3.235-2.94 6.334-6.054 6.101 1.567-2.481 3.661-4.439 6.054-6.101z" fill="#34ce34"/><path d="m1428.6 1386.3-.822-.882c-.47-.494-1.018-.93-1.225-1.625a2.535 2.535 0 0 1 .045-1.527c.234-.879 2.161-.36 1.582-1.922.67-.921 1.075-2.058 2.174-2.618.601 0 .876.34.952.896-.815 2.59-.939 5.424-2.706 7.678z" fill="#cc9b4e"/><path d="m1412.7 1439.4-.768-.774c-.303-.667.453-1.427-.194-2.066-.458-.734-1.057-1.474.051-2.164 1.145-.492 2.2-.38 3.144.466 1.501 1.505 1.501 3.011 0 4.515-.737.645-1.481.585-2.231.023z" fill="#a1572c"/><path d="m1403.7 1359.9.835-2.848 1.448-.054c.291.241.511.535.653.887.323 1.083.278 2.194.23 3.306a5.21 5.21 0 0 1-.357 1.601c-.637 1.127-1.401 2.111-2.769 2.397-1.195-1.092-.578-2.502-.668-3.789.434-.405.829-.829.628-1.5z" fill="#d5ae77"/><path d="M1423.2 1353.1c1.429 1.238-.01 3.408 1.5 4.622.824.958.871 1.959.166 3.001-1.082.65-2.035.542-2.833-.481-.782-1.52-.454-3.241-.875-4.831.058-1.318.252-2.521 2.042-2.311z" fill="#e6c793"/><path d="m1397.1 1389.1.793-1.584c2.525 2.168 2.516 4.802 1.402 7.638l-.068-.049c-.737.275-1.478.368-2.226.042-.801-1.321-.885-2.802-.951-4.287.193-.68.293-1.416 1.05-1.76z" fill="#dab887"/><path d="M1363.2 1355.4c-1.042-.034-1.493-.638-1.553-1.615.796-1.751 2.923-2.066 3.903-3.618 1.611 2.401-.979 3.516-1.604 5.231-.247.258-.496.272-.746 0z" fill="#32ce31"/><path d="M1397.7 1434.9c-1.117 2.021-.343 6.135-4.861 4.389l2.677-4.39c.728-.55 1.457-.641 2.184.001z" fill="#bc673c"/><path d="M1411.9 1353.2c.523-.01 1.047-.017 1.57-.025.362.368.606.797.69 1.314.094.672.043 1.339-.084 2.003a9.756 9.756 0 0 1-.237.968c-.347 1.141-.251 2.312-.22 3.479.03.726.04 1.449.045 2.177-.04 1.176.01 2.373-.794 3.369-.35.29-.722.324-1.12.103-.57-.668-.714-1.474-.771-2.312-.057-1.238-.03-2.479-.064-3.718-.014-1.46.025-2.92.019-4.381.021-1.09.179-2.137.966-2.977z" fill="#feeeca"/><path d="M1391.1 1356.9c.81-.046 1.649-.193 2.179.671-.272 1.522.146 3.028.114 4.545.028.51.026 1.02.024 1.53-.029 1.027.155 2.032.327 3.04.031.546-.082 1.042-.507 1.425-.248-.01-.496-.014-.745-.013-.953-3.672-1.137-7.439-1.392-11.198z" fill="#d6be91"/><path d="M1402.6 1423.8c-2.025-2.19-1.626-4.964-1.827-7.593.848-.274 1.229.37 1.698.854.23.271.43.563.614.869.563.967.789 2.045 1.049 3.115.046 1.228.73 2.818-1.534 2.755z" fill="#a4743a"/><path d="M1496.6 1382.4c-.432.198-.942.31-1.282.612-1.056.938-2.199 1.484-2.909-.136-.614-1.403.488-1.868 1.724-2.085.419-.074.773-.516 1.158-.79.806.598 1.349 1.338 1.309 2.399z" fill="#6ccbfa"/><path d="M1397 1395.1c.734-.427 1.476-.48 2.227-.042 1.611 1.278-1.745 3.427.794 4.544a6.933 6.933 0 0 0-.557.719c-.427.427-.807.96-1.544.695-.37-1.963-1.262-3.844-.92-5.916z" fill="#c0985e"/><path d="M1414.8 1431.2c.329.719 1.149 1.382.26 2.242-.438.371-.93.621-1.509.676-1.313-.057-2.588.258-3.882.409-2.641-1.272-1.734-2.295.227-3.247 1.632.053 3.266-.123 4.904-.08z" fill="#b56333"/><path d="M1403 1428.2c-1.32-1.279-.854-2.545.032-3.806.762-.382 1.073-1.194 1.67-1.737a1.19 1.19 0 0 1 .923.355c.97 1.732 1.157 3.369-.58 4.773-.632.375-1.318.495-2.045.415z" fill="#a77333"/><path d="M1397.7 1430.3c1.258-1.614 3.004-.459 4.488-.791.631.224 1.02.627 1 1.339-.65 1.678-2.058 1.89-3.593 1.861-1.215-.341-2.733-.452-1.895-2.409z" fill="#b16a39"/><path d="M1499.7 1389.9c-3.916-1.12-2.518-4.409-2.854-6.992 1.537 2.09 2.42 4.449 2.854 6.992z" fill="#6ccbfa"/><path d="m1428.5 1356.2 1.396-.155c.744.486.876 1.257.967 2.051a5.24 5.24 0 0 1-.038 1.187c-.24 1.263-.801 2.256-2.177 2.552a1.75 1.75 0 0 1-1.118-.361c-.377-.492-.555-1.057-.624-1.665-.011-1.44.286-2.748 1.594-3.609z" fill="#e0cca0"/><path d="M1423.2 1353.1c-1.006.429-1.514 1.183-1.487 2.284.288.343.293.69.014 1.042-.775.863-1.605 1.119-2.544.235-.813-1.509-.435-2.688.994-3.575 1.013-1.142 2.021-1.387 3.023.014z" fill="#e4c8a3"/><path d="M1379.5 1496.5c3.076-.385 5.718.399 7.732 2.872-2.664-.724-5.436-1.156-7.732-2.872z" fill="#f7090a"/><path d="m1392.4 1440.1.812.763c.342.971-.204 1.524-.932 1.997-1.379.563-2.792.525-4.222.235-.824-.255-1.491-.688-1.75-1.572 1.827-1.347 4.312.123 6.092-1.423z" fill="#bf6730"/><path d="m1435.3 1502.4 3.336.103c-2.421 1.586-5.153 1.479-7.874 1.442.254-1.99 1.818-1.396 3.015-1.526.501-.439 1.01-.439 1.523-.019z" fill="#f50601"/><path d="M1439 1502.4c1.084-3.093 3.076-2.831 5.369-1.455-1.625 1.094-3.411 1.592-5.369 1.455z" fill="#f8080a"/><path d="M1414.8 1431.2c-1.303 1.044-2.748 1.223-4.305.701-.886-.871-2.352.417-3.133-.843.034-.694.481-1.05 1.059-1.304 1.42-.403 2.842-.432 4.266-.023a27.9 27.9 0 0 0 1.079.61c.519.076.982.221 1.034.859z" fill="#c56833"/><path d="M1397.7 1430.3c.084 1.508 1.151 1.575 2.278 1.552.438.788-.051 1.251-.594 1.696-.341.127-.641.062-.898-.197-.608.317-.737.877-.756 1.494l-2.185-.001c.631-1.556.88-3.294 2.155-4.544z" fill="#c06e3f"/><path d="m1431.3 1378.6-.547-.738c-.572-.505-.748-1.175-.8-1.899a6.082 6.082 0 0 1 .022-1.054c.116-.894.418-1.699 1.133-2.3.301-.185.628-.274.982-.258.532.168.88.514 1.008 1.065-.684 1.699-.507 3.697-1.798 5.184z" fill="#c59652"/><path d="m1433.1 1373.4-.823-.779c-1.212-1.41-.892-2.882-.183-4.372.309-.507.711-.905 1.298-1.078.646.04 1.029.4 1.21 1.004l-1.502 5.225z" fill="#d39a53"/><path d="M1339.3 1454.4c1.107.843 3.808-2.288 3.736 1.498-.5.926-1.313 1.409-2.307 1.638-.834-.882-1.523-1.83-1.429-3.136z" fill="#35cb33"/><path d="M1433 1354.6c1.226 1.297.215 3.312 1.476 4.597.672.702.36 1.191-.344 1.598-1.255-.097-1.616-1.151-2.165-2.01a6.592 6.592 0 0 1-.42-.954c-.281-1.161-.991-2.327 0-3.487.537-.215 1.027-.17 1.45.256z" fill="#e2cea9"/><path d="m1402.2 1417.6-1.41-1.463-.847-5.228c.055-.949.5-1.52 1.502-1.55.255 2.747 2.179 5.341.755 8.241z" fill="#b08040"/><path d="M1396.2 1359.8c.23-1.436-.49-3.027.701-4.307.58.813 1.375.794 2.222.576.103.124.206.248.311.371.129 1.011-.169 1.919-.669 2.78-.589.637-1.308.961-2.187.893l-.378-.313z" fill="#ddc394"/><path d="M1411.9 1353.2c.01.98.012 1.96.018 2.941-.911.476-1.729.094-2.553-.27-.669-.423-1.005-1.02-.943-1.821.096-.353.27-.665.519-.935 1.008-.745 1.964.367 2.959.085z" fill="#e0cba5"/><path d="m1401.5 1355.4-.074 3.873c-1.86-.206-1.137-2.2-2.096-3.029l-.175-.201c.154-1.032-.097-2.475 1.34-2.589 1.166-.092.889 1.165 1.005 1.946z" fill="#dfc795"/><path d="M1340.7 1457.5c.415-1.045 1.158-1.627 2.307-1.638h.752c.834.962.805 1.922-.01 2.879-.564.108-1.128.218-1.692.328-.452-.524-.904-1.048-1.358-1.572z" fill="#30cf30"/><path d="m1431.5 1354.6.73 3.741c-.756.667-1.511.598-2.266 0l-.087-2.372.701-1.503c.345-.207.65-.149.922.136z" fill="#d5b47d"/><path d="M1410.5 1446.8c1.018-1.04 2.51-.865 3.706-1.449 1.03 2.24-1.233 2.24-2.148 3.158-.968-.275-2.289.016-2.468-1.531.253-.313.559-.36.91-.178z" fill="#8e4e28"/><path d="M1409 1353.1c0 .253.01.507.012.759-.966 1.213.522 2.483-.082 3.708a2.27 2.27 0 0 1-.575.974c-1.132.568-1.799-.041-2.355-.931a3.72 3.72 0 0 1 0-.692c1.829-.621.758-3.523 3.004-3.818z" fill="#e2d8af"/><path d="M1469.7 1349.6c-.319 1.236-1.22 2.354-2.314 2.242-1.153-.118-.478-1.581-.667-2.44.783-.689 1.593-.475 2.408-.07.23 0 .422.094.573.268z" fill="#5dcffc"/><path d="m1397.9 1401.1 1.306-1.416c.779 1.049 1.126 2.233 1.099 3.533-1.043.439.018 2.305-1.598 2.356-.27-1.49-.539-2.982-.807-4.473z" fill="#d0b07e"/><path d="M1414.4 1455.1c-2.065-1.499-3.598-3.195-2.206-5.972l2.206 5.972z" fill="#d9a86d"/><path d="M1369.9 1490.4c2.047-.122 4.29-.518 3.889 2.782-1.413-.764-2.904-1.419-3.889-2.782z" fill="#f20d10"/><path d="M1387.8 1499.5c.356-.035.867.07 1.047-.126 2.89-3.157 2.516-.067 2.93 1.512-1.507.059-2.79-.524-3.977-1.386z" fill="#f7090a"/><path d="m1415.8 1353.2.724-.824c1.742.127 1.32 1.58 1.604 2.608a4.362 4.362 0 0 1-.178 1.206c-.296.808-.756 1.46-1.641 1.703a1.14 1.14 0 0 1-1.007-.608c-.611-1.457-.613-2.839.498-4.085z" fill="#dcc69e"/><path d="M1433.7 1360.6c.586-.285.734-.8.73-1.394l1.661.043c.546.604.559 1.299.356 2.035-.344.635-.568 1.349-1.166 1.824a1.715 1.715 0 0 1-1.588-.034c-.418-.424-.56-.942-.521-1.522.083-.369.258-.687.528-.952z" fill="#ebe0c2"/><path d="M1409 1455.1c.261-.257.521-.515.783-.771.876-.461 1.076.357 1.483.783v2.168l-2.274.316c.113-.098.135-.211.068-.344-.7-.698-.555-1.42-.062-2.152z" fill="#b2722e"/><path d="m1469.1 1349.3-2.408.07-1.489-3.017c1.841.266 2.784 1.718 3.897 2.947z" fill="#68ccf9"/><path d="m1417.3 1356.2-.06-.776c.713-.614 0-1.7.763-2.298l2.191.032c-.667 1.197-.873 2.472-.637 3.821a49.52 49.52 0 0 0-.489.193c-.756-.021-1.346-.345-1.768-.972z" fill="#f7ebd2"/><path d="m1434.6 1368.2-.892-.885c-.466-.439-.607-1-.598-1.616.151-1.142.742-1.815 1.953-1.822.406.056.75.235 1.03.537-1.166.997-.175 2.847-1.493 3.786z" fill="#c89842"/><path d="M1413.4 1443.1c-.445-.686-2.806-.801-.672-2.256 1.093-.521 2.215-1.12 2.347.892-.128.983-1.319.663-1.675 1.364z" fill="#a25720"/><path d="m1386.3 1441.5 1.538.847c.356 1.701-1.168 1.453-1.996 1.932-.563.093-1.083 0-1.528-.381v-1.654c.677-.208 1.136-1.005 1.99-.744z" fill="#b55c26"/><path d="M1428.5 1356.2c-.689 1.136-.859 2.379-.763 3.678-.976.552-1.708.091-2.392-.573-.226-.519-.273-1.028.092-1.511l3.063-1.594z" fill="#e8dcb8"/><path d="m1418 1413.9.717.732c-.287 1.135-.604 2.257-1.437 3.142-.466-.279-.701-.724-.883-1.21-.234-.654-.432-1.316-.371-2.025.08-.351.257-.644.528-.88.531-.216 1.02-.174 1.446.241z" fill="#905a24"/><path d="m1413.7 1430.3-1 .075c-.606-.949-1.951-.93-2.525-1.925-.023-.707.026-1.346 1.024-1.085l1.477-.742c.443.074.522.54.823.767l.201 2.91z" fill="#a9692e"/><path d="m1403 1430.4-.786-.853.762-1.352c.331-.636.907-.792 1.56-.799.283.275.48.603.596.981.15.808.043 1.553-.534 2.182-.565.283-1.105.295-1.598-.159z" fill="#aa7432"/><path d="M1394.8 1383.9c2.041.248 1.305 1.854 1.475 3.016-.444.454-.083 1.307-.806 1.622-1.082-1.423-.727-3.051-.669-4.638z" fill="#d0ae7a"/><path d="m1415.8 1353.2-.05 4.407c-.297.208-.601.208-.911.03-.337-.404-.485-.878-.506-1.398-.084-.624.523-1.591-.798-1.597.01-.486.011-.972.017-1.457.75.01 1.499.01 2.248.015z" fill="#f0d9b0"/><path d="M1421.8 1405.8c-.599-2.054.125-3.774 1.358-5.364l.154.872c-.349 1.55-.542 3.152-1.512 4.492z" fill="#b98237"/><path d="M1395.4 1388.5c.102-.624.142-1.278.806-1.622l.84 2.192c-.09.74-.331 1.391-1.047 1.76-.701-.647-.677-1.481-.599-2.33z" fill="#c2a170"/><path d="m1417.2 1416.2.056 1.583-.965 2.875-.654-.749c-.375-.475-.61-1.003-.629-1.617.204-1.249.526-2.377 2.192-2.092z" fill="#7c4c26"/><path d="m1435.9 1361.3.217-2.013c3.096.3 1.252 1.835.76 3.032-.553-.122-.855-.484-.977-1.019z" fill="#ccb183"/><path d="m1435.9 1361.3.976 1.019c-.144.743.097 1.634-.803 2.085l-.85-.031c-.417-.485-.419-.981-.039-1.488l.716-1.585z" fill="#d9ad6b"/><path d="M1478.7 1479.7c-.264-2.148 1.461-2.346 2.834-2.888-.431 1.467-1.563 2.244-2.834 2.888z" fill="#f60808"/><path d="m1355.7 1475.4.713 3.089c-1.196-.828-2.234-1.808-2.949-3.095h2.233z" fill="#f40c0c"/><path d="M1338.5 1389.9c-.247 0-.493-.01-.739-.01-.46-.54-.382-1.108-.09-1.689l.255-1.29a1.113 1.113 0 0 1 1.153-.164c.913 1.253 1.739 2.492-.579 3.153z" fill="#2fd12a"/><path d="M1334.9 1442.4c3.057-.137 1.287 1.839 1.322 3.022-.765-.864-1.385-1.795-1.322-3.022z" fill="#3dca3c"/><path d="M1415.1 1441.8c-.542-.932-1.457-.88-2.347-.892v-1.465c.744-.01 1.487-.016 2.231-.023.226.783 1.118 1.534.119 2.38z" fill="#b4673b"/><path d="M1404.5 1422.9c-.037.973-.539 1.479-1.514 1.515a1.327 1.327 0 0 1-.344-.641c1.817-.848.728-2.042.376-3.148.317-.382.475-.968 1.147-.901.331.152.588.385.777.697.366.918.255 1.751-.442 2.478z" fill="#97652b"/><path d="M1445 1500.8c.726-2.408 2.648-1.109 4.085-1.32-1.223.869-2.554 1.403-4.085 1.32z" fill="#f8080a"/><path d="M1500.5 1442.5c-.021-1.748-.218-3.564 1.765-4.533-.402 1.583-.554 3.264-1.765 4.533z" fill="#64ccf0"/><path d="M1336.2 1445.4c1.003.753 1.38 1.827 1.544 3.011.399.421.467.877.151 1.376l-.205.123c-1.041-1.323-1.459-2.853-1.49-4.51z" fill="#3dca3c"/><path d="M1413.5 1433.4h1.537l-.064 1.463-3.736.029-.15-.448c.44-1.188 1.784-.287 2.413-1.042z" fill="#60220c"/><path d="M1357.9 1479.9c1.868.173 2.872 1.195 3.016 3.065l-3.016-3.065z" fill="#f40c0c"/><path d="M1458.7 1495c-.025-2.401 1.768-1.437 2.953-1.596-.638 1.172-1.704 1.554-2.953 1.596zM1457 1494.9l1.601.206c-.647 1.166-1.8 1.359-2.959 1.541a4.084 4.084 0 0 1-.238-.356c-.393-1.527.159-1.968 1.596-1.391z" fill="#f60709"/><path d="M1393.2 1500.8c1.214.07 2.41.179 3.014 1.486-1.525.095-2.902-.277-4.073-1.299l1.059-.187z" fill="#f30a0a"/><path d="m1398.7 1405.5 1.189-2.107c.273.081.393.207.359.378-.037.192-.092.289-.166.289-.121 1.062.296 2.263-.798 3.071l-.584-1.631z" fill="#e7c68c"/><path d="m1409.7 1446.9 2.316 1.629c.045.207.03.41-.044.608l-.822-.034c-.776-.725-3.013.27-2.425-2.061.291-.279.614-.338.975-.142z" fill="#7e4329"/><path d="m1425.4 1357.8.071 1.366c.564.644.767 1.376.542 2.213-.247.59-.618.999-1.331.898-.387-.537-.423-1.068.028-1.591v-2.88c.23-.07.459-.072.691-.01z" fill="#dfc392"/><path d="m1337.7 1388.2.09 1.689c-.03.915-.45 1.465-1.412 1.511-.077-1.281.454-2.31 1.322-3.2z" fill="#38cb35"/><path d="M1465.2 1346.4c-1.188-.141-2.84.585-2.942-1.579 1.113.282 2.236.542 2.942 1.579z" fill="#68ccf9"/><path d="M1454.9 1340.3c-1.179-.104-2.71.648-3.13-1.292 1.209.031 2.337.254 3.13 1.292z" fill="#71cdfa"/><path d="m1431.5 1354.6-.921-.135c.181-.772.521-1.368 1.458-1.215.762.125.855.733.921 1.348h-1.458z" fill="#e6d6a8"/><path d="M1418 1353.1c-.072.827.115 1.739-.763 2.298-.149-1.033.338-2.23-.775-3.016 1.196-1.227 1.32-.155 1.538.718z" fill="#eaddc3"/><path d="m1451.7 1497.8 1.46.072c-.843.773-1.759 1.392-2.967 1.377.044-.961.649-1.337 1.507-1.449z" fill="#f20f0d"/><path d="M1374.4 1493.4c1.12-.099 2.21-.148 2.371 1.39-1.041-.035-1.798-.556-2.371-1.39z" fill="#f20d10"/><path d="m1413.5 1427.4-.823-.767c.261-.75-.502-2.556 1.527-1.48-.906.538-.504 1.487-.704 2.247z" fill="#976220"/><path d="m1338.5 1386.9-.289.01-.288-.01c.039-1.184.649-2.122 1.311-3.037l.039 1.512c.415.85-.211 1.172-.773 1.527z" fill="#39cc3c"/><path d="M1478.7 1458.8h-27.749c-1.05-.879-1.928-1.936-2.929-2.865v-1.524c1.132-1.507 1.063-3.264 1.063-5.014 0-33.021-.012-66.042.038-99.063 0-1.78-.578-3.408-.703-5.132.744-1.029 1.615-.858 2.531-.27 1.297 1.236.725 2.833.726 4.262.034 33.608.021 67.217.031 100.82 0 5.127 1.333 8.05 7.129 7.51 5.45-.508 10.985-.146 16.481-.08 1.233.013 2.898-.685 3.379 1.353z" fill="#66cbfe"/><path d="M1501.2 1434.1c.029 2.122-.816 3.077-3 2.249.176-1.61-1.9-1.285-2.176-2.558-.411-1.9-1.204-3.967 2.175-3.44.619 1.262 2.059.882 3.001 1.499v2.25z" fill="#68cbfc"/><path d="M1451 1344.9h-2.246c-.427-.499-.421-.997 0-1.496h.747c1.251-.879 2.504-3.096 3.752 0-1.089-.01-2.179-.02-2.253 1.499z" fill="#5fcffe"/><path d="M1501.2 1431.9c-1.762 1.022-3.43 1.857-3.001-1.499.957.586 3.12-1.239 3.001 1.499z" fill="#63cdfd"/><path d="M1499.2 1397.1c-.91-.24-.908-.754-.913-1.249-.01-.693.266-1.279 1.011-1.298.791-.021 1.111.508.783 1.232-.23.509-.625.943-.881 1.315z" fill="#5dcffd"/><path d="M1492.3 1455.9c.238.155.821.325.927.649.221.677-.447.726-.907.79-.492.068-1.05-.01-1.181-.553-.167-.699.481-.691 1.161-.886z" fill="#68cff6"/><g fill="#35cb33"><path d="M1343.7 1458.8c0-.96.01-1.919.01-2.879 1.487-1.322 3.243-1.54 5.177-1.528 10.063.063 20.127.057 30.19-.01 1.312-.01 3.156.814 3.628-1.468 1.237 1.063.581 2.48.704 3.751-10.931.673-21.872.139-32.808.282-2.037.027-4.001.026-5.385 1.847h-1.515zM1345.2 1445.4c-.015.997-.01 1.995-.05 2.992-.047 1.105-.752 1.474-1.754 1.477-.951 0-1.913-.216-1.854-1.334.12-2.227-.4-4.744 2.158-6.135 1.012.743.461 2.27 1.5 3zM1345.2 1388.4c.59-2.898-2.569-5.303-.931-8.491.634-1.233.922-2.147 2.43-2.007-.208 2.678-2.025 5.271-.093 8.089.53.772.18 2.247-1.406 2.409z"/></g><path d="m1338.5 1386.9.772-1.527 2.971 1.514c.832 2.446-2.733 3.263-1.636 5.9-1.748-.674-1.412-2.112-2.11-2.899 1.044-.995 1.065-1.991 0-2.988z" fill="#38cb35"/><path d="M1355.9 1363.2c1.88-.354 2.754-.153 2.77 1.247.01.48-.054 1.207-.693 1.074-1.112-.23-1.181-1.41-2.077-2.321z" fill="#35ca36"/><path d="M1366.2 1355.4c.12-1.228.836-1.641 1.961-1.345.238.063.606.568.549.68-.572 1.111-1.655.478-2.51.665z" fill="#32ce31"/><path d="M1363.2 1355.4h.747l2.25.001c-.024.975-.525 1.474-1.5 1.5-.5.417-.999.48-1.498 0l.001-1.497z" fill="#39c931"/><path d="M1345.2 1445.4c-2.008-.246-1.358-1.82-1.5-3 2.01.244 1.356 1.822 1.5 3z" fill="#31ce2a"/><path d="M1363.2 1356.9h1.498c-.608 1.005-1.384 2.108-2.547.98-.546-.529.455-.868 1.049-.982z" fill="#32ce31"/><path d="m1337.9 1449.8-.152-1.376c.666.093 1.735-.271 1.796.666.07 1.091-.988.679-1.644.71z" fill="#2dd029"/><path d="M1379.8 1486.7c2.873-4.762 5.736-9.533 7.612-14.805.748-2.1 2.066-2.953 4.355-3.168 4.645-.437 8.117.386 9.672 5.52.77 2.543 2.516 4.789 3.82 7.17 1.828 2.71 4.552 5.067 3.492 8.908l-2.018.107c-1.991 1.216-3.958 1.583-5.865-.164-1.475-.691-1.339-3.145-3.301-3.198-2.321-.063-4.671-.13-6.967.113-1.672.176-1.945 2.473-3.504 3.094l.016-.013c-.907 1.041-1.885.893-2.898.175l-5.088-.07c-1.315-1.506-.017-2.533.674-3.669z" fill="#fcfafb"/><path d="m1432 1472.5.363 1.376c1.081 1.5.716 3.049.161 4.606-.393 1.168-1.163 2.034-2.177 2.701-1.71 1.355-3.781 1.427-5.816 1.628-3.711-.638-5.881.338-5.074 4.671.367 1.975-.406 2.961-2.609 2.782-1.825-.148-3.677.039-5.517.078-2.454-1.248-1.964-3.555-1.877-5.601.188-4.451 1.052-8.877.468-13.358-.164-1.253.254-2.592 1.528-2.566 5.65.114 11.376-1.434 16.947.646l2.314 1.439c.558.429 1.329.686 1.289 1.598z" fill="#fdfafa"/><path d="M1454.8 1469.3a.56.56 0 0 0 .651.136c3.283 1.012 1.854 3.786 1.932 5.789.064 1.661-1.588 1.437-2.821 1.239a6.032 6.032 0 0 1-1.649-.441 5.874 5.874 0 0 1-.932-.536c-1.414-.999-2.909-.78-4.416-.275-.592.278-1.157.603-1.639 1.057-1.283 1.27-2.327 2.621-1.437 4.557.947 2.058 2.656 2.592 4.815 2.685 2.286.1 4.328-.668 6.463-1.189 3.198 1.688 1.479 4.199 1.092 6.488l.061-.073c-.349.528-.854.786-1.47.854-1.915-.215-3.418.948-5.099 1.526-2.281-.249-4.691.685-6.845-.741l-5.848-3.046c-1.758-.221-1.835-1.764-2.34-2.971l.021-.018c-2.088-1.985-1.812-4.556-1.756-7.073.24-2.202 1.277-3.86 3.32-4.823.77-.102 1.346-.432 1.502-1.263.762-1.317 2.035-1.943 3.367-2.495 3.195-.408 6.405-.482 9.621-.404 1.229.027 2.514-.133 3.407 1.017z" fill="#fcfafa"/><path d="M1428.4 1469.5c-5.204-.115-10.408-.23-15.612-.348-1.203-.027-2.254.086-2.235 1.708.072 6.196.11 12.394.2 18.591 0 .312.38.619.583.928l-2.576-.049c.033-3.438-2.909-5.712-3.492-8.909h1.467c.681.513 1.053 1.34 1.839 1.83-.248-1.038-1.347-1.125-1.837-1.832 3.686-2.058 3.146-5.274 2.578-8.66-.186-1.106-.472-2.344.087-3.623.674-1.542.292-3.561 3.191-1.695 1.955 1.258 4.875.944 7.197.035 3.452-1.353 5.977.363 8.61 2.023z" fill="#f80309"/><path d="M1384.9 1461c3.566-1.566 7.311-.446 10.964-.689 2.602-.174 5.228.037 7.843.075.796 2.653 3.004.954 4.497 1.459.58 1.581.081 2.082-1.501 1.499-1.688-.134-3.265.018-4.977-.979-2.377-1.385-4.861-.903-6.237 3.421-.711-3.751-2.468-4.163-4.77-3.993-1.947.142-4.019.461-5.819-.793z" fill="#f90204"/><path d="M1436.9 1472.4c-.906 1.407-2.248 2.586-2.318 4.431-.875 1.741-.504 3.563-.194 5.323.163.926.35 1.658-.604 2.189-1.078-1.039-2.063-2.233-3.756-2.248-.486-.496-.406-1.01-.048-1.533.391-.856 2.013-.792 1.651-2.211 1.869-1.063.649-3.104 1.426-4.514 1.422-.102 2.16-2.033 3.843-1.437z" fill="#f80409"/><path d="M1387.1 1490.2c.704-3.131 2.721-4.021 5.764-3.719 3.158.313 7.007-1.157 8.011 3.711-1.424.277-2.206-.881-2.596-1.729-.8-1.74-1.874-1.121-3.019-.773-.071.022-.089.222-.132.339-3.275-1.493-5.133 2.258-8.028 2.171z" fill="#f8020a"/><path d="M1454.8 1469.3c-4.501-.968-8.987-.927-13.458.194-.322-1.256.205-1.755 1.444-1.618l2.993-.116c2.377-.213 4.695.616 7.164-.843 2.106-1.245 2.403.627 1.857 2.383z" fill="#f8070a"/><path d="M1443.5 1490.4c2.51-.052 5.026.593 7.528-.083.542-.302 1.055-.354 1.504.171.06 1.603.068 3.167-2.26 2.926-.34-2.063-1.985-1.304-3.203-1.496-1.31-.208-3.12.723-3.569-1.518z" fill="#f60709"/><path d="M1400.9 1490.2c1.955.056 3.911.11 5.867.165-.688 2.151-2.116 3.21-4.409 2.938-2.123-.251-1.49-1.824-1.458-3.103z" fill="#fa0303"/><path d="m1432 1472.5-1.289-1.598c1.301-.068 2.024-.778 2.346-2.015.183-.704.767-1.109 1.4-.766.484.264.854.859 1.114 1.386.36.729-.069 1.287-.782 1.293-1.319.01-1.844 1.169-2.789 1.7z" fill="#fa030a"/><path d="M1353.5 1472c-.415-1.426-2.125-2.366-1.457-3.766.198-.416 2.276-.586 2.646-.148 1.282 1.508-1.132 2.382-1.189 3.914z" fill="#f80405"/><path d="m1429.9 1480.6.048 1.533c-1.377.74-2.426 1.774-2.696 3.513-1.455-.737-.841-2.998-2.751-2.835 1.8-.736 3.6-1.473 5.399-2.211z" fill="#f60502"/><path d="M1435.3 1484.3c.78.99 1.561 1.98 2.34 2.971-1.036-.197-.473 2.38-2.517 1.113-2.954-1.832-.01-2.763.177-4.084z" fill="#f60807"/><path d="M1442.7 1467.9c-.73.318-1.271.805-1.444 1.618-.793.887-1.789 1.417-2.936 1.687.058-2.258 2.027-3.095 3.381-4.307.572-.513.876.425.999 1.002z" fill="#fa0307"/><path d="M1406.7 1463.4c.974-.025 1.475-.524 1.501-1.499 1.755.397 2.018 1.595.861 2.615-.94.831-2.128.452-2.362-1.116z" fill="#fd0108"/><path d="M1403.9 1468.4c1.554-.626 2.752-.753 4.853.541-2.199.422-3.417.893-4.853-.541z" fill="#f70601"/><path d="M1433.7 1484.4c.945-2.433-1.263-5.199.799-7.512-.091 2.523.108 5.018.754 7.465l-1.553.047z" fill="#f21718"/><path d="M1447.2 1464.9c-1.329-.136-2.725.33-5.016-1.001 2.47-.282 3.96-1.595 5.016 1.001z" fill="#fa0307"/><path d="M1424.7 1487.6c-.096.93-.718 1.221-1.52 1.159-.635-.048-1.304-.335-.812-1.104.365-.571.977-1.23 1.576-1.349.765-.149.764.693.756 1.294z" fill="#f60403"/><path d="M1435.3 1502.4c-.508.01-1.016.013-1.523.019.221-.918-1.103-1.854-.082-2.678.353-.284 1.306-.29 1.665-.012 1.05.814-.292 1.757-.06 2.671z" fill="#f60502"/><path d="M1355.7 1475.4c.503-.904-1.047-2.091.376-2.824.171-.088.757.224.853.466.475 1.205.302 2.158-1.227 2.361z" fill="#f60402"/><path d="m1384.2 1490.4 2.898-.175c.039.827-.176 1.476-1.134 1.581-1.051.117-1.646-.349-1.764-1.406z" fill="#f40504"/><path d="M1429.6 1485c.248-.523.714-.623 1.204-.558.459.062 1.093.101.927.8-.131.547-.688.617-1.179.555-.462-.059-1.015-.083-.952-.797z" fill="#f60807"/><path d="M1453.2 1461.9h1.499c-.245 2.009-1.82 1.356-2.998 1.499.025-.974.526-1.473 1.499-1.499z" fill="#fa0307"/><path d="M1382.7 1463.4c.026-.976.525-1.477 1.501-1.5-.149.864.436 2.015-.566 2.524-.78.399-.782-.518-.935-1.024z" fill="#fe0009"/><path d="M1433 1473.9c.083 1.682 1.134 3.669-1.426 4.514.877-1.398.706-2.978.781-4.514.215-.015.43-.015.645 0z" fill="#f21718"/><path d="m1447.2 1460.5 3 .035c-1.023 1.983-2.023 1.977-3-.035z" fill="#fa0204"/><path d="M1442.7 1460.4c.998 0 1.997-.01 2.995-.015-.992 1.277-1.984 2.761-2.995.015z" fill="#f40500"/><path d="M1379.8 1486.7c.167 1.295-1.561 2.241-.675 3.669-2.92-1.802-.4-2.603.675-3.669z" fill="#f31212"/><path d="m1452.5 1475.4 1.463.163c1.002 1.143 2.578.705 3.757 1.362h.743c1.301-.024 1.245.628.75 1.501-.617.015-1.177.146-1.499.75-.104.622-.756.846-.993 1.371.581.034 1.168 0 1.742.128.604.323.735.883.75 1.5-1.417 2.001-.432 4.874-2.418 6.668.01-1.466-.059-2.936.049-4.394.112-1.52-.789-1.509-1.834-1.413-1.485.535-2.982.902-4.546.315-2.116-2.586-1.083-5.33-.402-8.059.838-.579 1.647-.473 2.438.106z" fill="#fb0305"/><path d="M1457.7 1476.9c-1.302-.317-3.163.908-3.757-1.362.874-.532 2.475 1.198 2.724-.503.277-1.894.897-4.151-1.3-5.587 4.132.04 1.541 3.711 2.806 5.344.281.363-.293 1.389-.473 2.108z" fill="#f8070a"/><path d="M1458.5 1480.6c-.518.245-1.02.641-1.559.698-.791.086-1.916.247-2.016-.909-.138-1.611 1.328-.259 1.858-.824.229-.243.64-.314.967-.464.605.324.736.882.75 1.499z" fill="#fd0201"/><path d="M1460.7 1475.4c1.349.18 2.843-.416 4.392.75-1.55 1.165-3.043.57-4.392.749-.398-.499-.449-1 0-1.499z" fill="#fb0305"/><path d="M1460.7 1475.4v1.499a2.574 2.574 0 0 1-1.5 1.501c-.015-.618-.146-1.178-.75-1.501.42-.996 1.169-1.497 2.25-1.499z" fill="#fd0201"/><path d="M1466.7 1482.9c-1.091.012-2.181.023-2.249-1.498 1.09-.01 2.181-.023 2.249 1.498z" fill="#fb0305"/><path d="M1457 1494.9c-.916.023-1.422.518-1.597 1.392-.554-.901-2.344-1.249-1.352-2.824.301-.479.967-1.145 1.349-1.076 1.289.231 1.451 1.415 1.6 2.508z" fill="#fe0101"/><path d="M1452.5 1490.5c-.502-.058-1.003-.113-1.504-.171 1.391-.97 2.91-1.49 4.626-1.33.01 1.396-1.279.908-1.941 1.328l-1.181.173z" fill="#f7e7e3"/><path d="m1453.7 1490.3 1.941-1.328 1.259-.226c-.146 2.412-1.928 1.459-3.2 1.554z" fill="#f60709"/><path d="M1343.2 1460.5c.227-.739.837-.838 1.469-.836 13.179.071 26.357.15 39.536.229.044.162.06.326.048.492l-41.053.115z" fill="#7c5005"/><path d="M1448.7 1343.4v1.496c1.19 1.937 1.553 3.993 1.548 6.304-.072 32.615-.043 65.231-.065 97.847-.001 2.022.581 4.38-2.166 5.327-.019-35.945-.04-71.891-.046-107.84 0-1.083-.32-2.281.729-3.137z" fill="#65cdfb"/><path d="M1448 1455.9c2.119-.214 2.629 1.219 2.929 2.866-.992-.021-1.984-.039-2.976-.059l.047-2.807z" fill="#60cff7"/><path d="M1409 1446.9c-.138 1.609 1.69 1.232 2.205 2.183l-2.166.81c-1.74-.209-3.363-.575-4.972.89-1.251 1.138-3.029.195-4.578.027-.764-.164-1.504-.364-1.929-1.113.179-1.754 1.514-2.124 2.887-2.234 1.718-.138 3.375-.571 5.066-.824 1.17-.039 2.39-.683 3.487.261z" fill="#722a0c"/><path d="M1400 1449.9c1.783.24 3.474 1.529 5.108-.959 1.083-1.649 2.764-.117 3.916.981-.874 1.572-2.91-.034-3.833 1.403-.234.277-.51.504-.833.675-1.213.38-2.497.37-3.728.671-.581.043-1.116-.067-1.572-.455-.572-1.132.057-1.776.942-2.316z" fill="#5e2e0d"/><path d="M1404.5 1451.4a12.3 12.3 0 0 1 .654-.12l.059.847c.743.863.255 1.675-.097 2.495-.43.759-.656 1.659-1.463 2.164l-1.632-.762c-.351-1.105-1.842-1.817-1.138-3.291.155-.308.352-.586.586-.839.974-.398 2.106.187 3.031-.494z" fill="#ba8446"/><path d="m1409 1455.1.063 2.152c-1.515.084-3.018.779-4.547.089-.054-1.714.956-1.831 2.261-1.505l2.223-.736z" fill="#d19447"/><path d="m1404.5 1454.4.783-2.221c2.73-.107 2.357 1.306 1.459 2.977-1.087.753-1.763.292-2.242-.756z" fill="#deb369"/><path d="m1404.5 1454.4 2.242.756c.01.25.014.5.021.75a1773.5 1773.5 0 0 1-2.261 1.505l-.778-.571c.121-.857-.141-1.837.776-2.44z" fill="#e0b064"/><path d="m1411.2 1455.2-1.483-.783.354-1.644c.833.596 1.062 1.474 1.129 2.427z" fill="#d6a25a"/><path d="M1345.3 1458.8c-.088-1.622.041-2.914 2.265-2.901 11.28.065 22.56.028 33.84.08.697 0 1.393.451 2.088.692l-.695.757c-1.306 1.04-2.857.723-4.325.728-9.105.027-18.21 0-27.315.026-1.472 0-3.013-.297-4.363.626-.499 0-.997-.01-1.495-.01z" fill="#30ce2d"/><path d="M1346.7 1458.8c.588-2.193 2.402-1.342 3.707-1.35 10.766-.063 21.531-.032 32.297-.03-.01.463-.014.926-.021 1.388-11.995 0-23.989-.01-35.983-.01z" fill="#34cd32"/><path d="M1399.3 1455.8c.848 1.469 3.152.788 3.985 2.993h-18.241c-.728-2.119.232-3.281 2.185-3.873.257-.136.585.193.711.063.149-.156-.072-.342-.389-.286-.297-.123-.466-.334-.499-.655.145-.503.504-.798.949-1.02 1.962-.566 3.787-1.501 5.728-2.121a5.37 5.37 0 0 1 1.002-.221c1.27-.045 2.382.16 2.612 1.705.137.981.84 1.572 1.528 2.174.333.349.589.725.429 1.241z" fill="#f6fefd"/><path d="m1399.3 1455.8-.869-.795c-1.008-3.479 1.325-2.393 3.005-2.198-.528 1.227 1.31 1.99.635 3.245-.924-.083-1.847-.168-2.771-.252z" fill="#ab733e"/><path d="m1387.3 1454.4.818.064c.178.252.148.478-.089.677-1.665.673-2.861 1.722-2.95 3.663-.25.01-.499.015-.749.021-.182-1.5-.442-3.014.809-4.238.653-.849 1.383-.793 2.161-.187z" fill="#f7f6ec"/><path d="m1404.4 1419.9-.686-.036c-.563-.683-.393-1.856-1.469-2.195l-.063-.054c.224-2.791-2.335-5.327-.754-8.241.029-1.885-.211-3.846 1.504-5.248 1.119-.2 1.28.662 1.558 1.396.224 1.122.175 2.255.116 3.386-.15 1.479-.875 3.002.339 4.385.223.515.345 1.052.403 1.609.031 1.555.265 3.133-.509 4.597-.145.134-.291.267-.439.401z" fill="#a87735"/><path d="M1399.3 1395.2c-.468-2.545-.937-5.091-1.403-7.637-.035-.958-.071-1.917-.108-2.875.395-.45.88-.471 1.407-.299.295.18.541.416.748.691a11.767 11.767 0 0 0 1.838 2.381c.44.549.753 1.166 1 1.822.121.337.201.684.254 1.038.087.906.051 1.789-.509 2.562-1.871-.219-.733 1.888-1.778 2.311-.484 0-.967 0-1.449.01z" fill="#b38242"/><path d="M1403.7 1405.6c-.017-.624-.153-1.188-.763-1.514l.766-1.489c.151-.057.302-.114.453-.173 1.803.417 1.612 2.245 2.402 3.383.486.774.417 1.592.193 2.425-.138.513-.362.978-.763 1.342a2.079 2.079 0 0 1-1.026.203 1.24 1.24 0 0 1-.807-.614c-.31-1.167.346-2.458-.455-3.563z" fill="#9e6e2c"/><path d="m1402.2 1392.8.069-2.879c2.388.317 1.375 2.581 2.188 3.803.305 1.442.364 2.893.146 4.354-.255.825-.488 1.676-1.62 1.624-.666-.756-.596-1.538-.081-2.334.033-.802.25-1.66-.664-2.172-.691-.789-.636-1.588-.038-2.396z" fill="#83591d"/><path d="M1403.7 1402.6c-3.905-.769-2.204-3.154-1.514-5.249.874.717-.256 2.119.938 2.726.514.051.814.366 1.02.806.089.309.11.623.076.94a1.696 1.696 0 0 1-.514.784z" fill="#ac7a34"/><path d="m1402.2 1392.8.039 2.393c-.306.306-.583.823-.925.869-.6.082-.5-.56-.587-.96.492-.766-1.112-2.876 1.473-2.302z" fill="#a27032"/><path d="M1400.1 1404.1a8.209 8.209 0 0 1-.193-.668l-.69-3.781.795.001c.657 1.471 1.376 2.939.088 4.448z" fill="#aa8042"/><path d="M1403 1400.4c-1.594-.66-.36-2.035-.758-2.998.22 0 .44.001.659.012l.146 2.186c.204.189.265.372.183.545-.079.17-.156.255-.23.255z" fill="#c08f46"/><path d="M1396.8 1382.4c-2.865-1.235-1.859-3.82-2.085-5.977 1.486-.194 1.409 1.146 1.904 1.927.269.771.477 1.563.705 2.349.116.489.103.967-.121 1.426l-.403.275z" fill="#d6be91"/><path d="m1396.2 1378.6-1.487-2.261c-.513-.733-.522-1.476-.044-2.229-.181-.878.378-1.009 1.045-1.033 1.187.477 1.297 1.535 1.412 2.594.012 1.078-.046 2.134-.926 2.929z" fill="#d4b07d"/><path d="m1395.5 1373.4-.799.761c-1.202-1.096-.56-2.524-.688-3.814.605-.434 1.178-.367 1.725.111.602 1.036.593 2.023-.238 2.942z" fill="#d6be91"/><path d="M1399.2 1384.7c-.499 0-.997-.01-1.496-.014l-.907-2.283.252.08c.727-.65 1.39-1.579 2.492-.558.486.998.505 1.94-.341 2.775z" fill="#b17c2f"/><path d="m1395.5 1370.4-1.457-.072c-.001-.483 0-.966-.01-1.449.015-.888-.09-1.815.811-2.405.908.027 1.188.694 1.436 1.399-.131.879 1.165 2.211-.784 2.527z" fill="#cc9e5e"/><path d="M1394.8 1366.6c-.059.817.107 1.71-.761 2.254l-.795-.729c0-.501 0-1.002.01-1.503.257-.716.729-1.066 1.511-.893.163.186.222.378.18.573-.044.199-.091.298-.141.298z" fill="#d4b07d"/><path d="M1394.7 1441.6c1.011 1.872 3.148 3.467 1.47 5.997a.95.95 0 0 1-.913.119c-1.187-1.036-3.177-.986-3.799-2.795a1.955 1.955 0 0 1-.018-.976c.165-.288.381-.531.653-.722 1.156-.077 1.08-2.139 2.607-1.623z" fill="#da7f4e"/><path d="M1398.5 1446.1c.179-1.264-.501-2.698.746-3.751.402-.44.917-.536 1.48-.493 1.184.339 2.581.269 3.236 1.651.001.799-.474 1.336-1.008 1.842a3.742 3.742 0 0 1-.908.546c-1.169.255-2.326.795-3.546.205z" fill="#ce662e"/><path d="M1397.7 1441.6c-1.507-2.714-.425-4.32 2.243-5.249.319-.231.632-.234.94.021.569 1.119.075 2.061-.498 2.989-.723.949-1.731 1.562-2.685 2.239z" fill="#ce7846"/><path d="M1397.7 1441.6c.541-.957.779-2.22 2.251-2.243.604-.584 1.294-.667 2.053-.356.515.34.671.847.663 1.43-.067.555-.293 1.047-.61 1.5-.359.417-.746.764-1.348.436-.505 0-1.009-.01-1.514-.011-.322-.601-.881-.732-1.495-.756z" fill="#d57242"/><path d="M1400.7 1436.4c-.253 0-.506-.01-.76-.012 0-.492.01-.984.012-1.477.131-.336.327-.631.574-.896 1.435-1.235 2.653-1.042 3.658.561.193.831.087 1.577-.602 2.163-1.038.538-1.995.398-2.882-.339z" fill="#cd6c43"/><path d="M1398.5 1446.1c1.157-.701 2.43-.83 3.744-.752.188.322.206.648.029.982-1.448 1.426-3.507 1.389-5.222 2.176-.197-.188-.272-.384-.226-.589.048-.209.102-.313.162-.313l1.513-1.504z" fill="#bb5a1e"/><path d="M1397 1447.6c0 .249.01.497.016.746.387.92-.214 1.391-.84 1.853-.738.332-1.463.332-2.167-.101-.409-.451-.493-.975-.336-1.55.396-.733 1.044-.986 1.838-.954.241-.01.481-.013.721-.016.256.01.512.014.768.022z" fill="#ce662e"/><path d="m1394.7 1441.6-2.23 2.25c-.461-.485-.465-.978-.023-1.477l.752-1.508c.612.017 1.171.143 1.501.735z" fill="#bc673c"/><path d="M1400.7 1434.9c-.245.01-.49.013-.735.024-.968-.041-1.488-.525-1.503-1.513.248 0 .496-.01.744-.01 1.562-.56 2.136-.136 1.494 1.499z" fill="#ba622e"/><path d="M1402.2 1446.1v-.748l.001-.001c1.125-.795 3.095-.097 3.576-2.034 1.093-1.214 2.285-2.022 3.929-.962-1.083 1.707.813 2.9.764 4.429-.253.025-.506.053-.759.079-.251.01-.503.014-.754.02l-2.995.692c-.973-1.204-3.308 1.063-3.758-1.475z" fill="#b95319"/><path d="m1401.5 1441.6.707-.777c.641-.752.977-1.907 2.308-1.752 1.313 1.008 3.537-.258 4.443 1.771 0 .253.01.505.013.758-.58.504-1.375.357-2.018.671-.868.254-1.745.471-2.645.588-1.053-.153-2.252.01-2.808-1.259z" fill="#bd5a20"/><path d="M1409 1440.9c-1.204-1.39-3.68 1.045-4.5-1.497.001-1.582 1.27-1.436 2.265-1.67 1.104-.046 2.154.084 2.974.941l-.739 2.226z" fill="#ad4b1a"/><path d="m1409.7 1438.6-3.004-.036c-.247-.245-.308-.535-.208-.866a2.54 2.54 0 0 1 1.026-1.021c.297-.139.609-.235.929-.305.477-.097.96-.157 1.442-.226.947-.047 1.921-.457 2.821.189.871 1.128-.321 1.565-.756 2.257-.75.233-1.503-.88-2.25.01z" fill="#b95d24"/><path d="M1406.7 1441.7c.758-.01 1.517-.016 2.275-.022.313.188 1.364-.357.747.753-1.578-.312-2.574.82-3.75 1.508-.281.26-.572.259-.871.032-.399-1.414.888-1.639 1.599-2.271z" fill="#c56129"/><path d="M1427 1383.9c.613.313.725.877.744 1.487-.48.058-1.346.376-1.164.563 2.1 2.167-.385 3.23-1.039 4.717-.656-.313-.982-.911-1.319-1.504-.525-1.066-1.143-2.094-1.427-3.269-.096-1.303.263-2.373 1.545-2.955.99.028 1.702.835 2.66.961z" fill="#b58544"/><path d="M1424.8 1389.1c.595.341.718.918.771 1.532l-1.559 6.713-.732-.745c-.596-.508-.743-1.184-.732-1.921.02-.349.085-.691.176-1.028.565-1.409.832-2.94 1.67-4.246.133-.102.269-.203.406-.305z" fill="#ab7522"/><path d="m1394 1449.9 2.205-.033.277.373c.013.334-.135.576-.421.739-.452.069-.926.055-1.32.347a.883.883 0 0 1-.667.146c-2.158.361-4.102 1.307-6.055 2.225l-.745.735c-.72.062-1.44.124-2.16.188-1.604-1.867-.681-4.066-.809-6.128 1.194-.679 2.472-.156 3.707-.271 2.159-.02 4.288.072 5.988 1.679z" fill="#9f481f"/><path d="m1394 1449.9-6.074-.796c-1.187-.501-2.646-.323-3.589-1.436a1.401 1.401 0 0 1 0-.741c1.215-1.108 2.708-1.03 4.193-.988 2.123.208 4.162.608 5.511 2.516-.012.481-.024.963-.038 1.445z" fill="#da7f4e"/><path d="M1388.8 1446.9c-1.481.01-2.962.014-4.443.02.011-.981.021-1.963.033-2.944.474-.013.947-.024 1.421-.038 1.991.209 3.974-1.972 5.971-.019v.745c-.786 1.022-2.258 1.129-2.982 2.236z" fill="#da8353"/><path d="M1384.3 1447.6c1.246.357 2.584.484 3.59 1.437-1.279.22-2.484 0-3.62-.613.01-.274.021-.549.03-.824z" fill="#b6734d"/><path d="M1411.2 1427.4c-.591.335-.725.894-.743 1.511-.172.036-.345.072-.518.11-1.226-.749-1.125-2.126-1.551-3.256-.136-.724-.117-1.424.335-2.051 1.089.39 1.611-1.055 2.654-.82.202.531.244 1.043-.17 1.504 0 1-.01 2.001-.01 3.002z" fill="#c68538"/><path d="M1412.7 1418.4c-.244.01-.489.011-.732.015-.404.245-.763.189-1.076-.164-.854-1.545-.792-3.126-.184-4.727.203-.375.52-.574.945-.6 1.038.423 1.213 1.428 1.568 2.316.17.549.243 1.112.212 1.687-.063.58-.26 1.095-.733 1.473z" fill="#906621"/><path d="M1412.7 1418.4c.01-.501.011-1 .017-1.5.485-.484.946-1.011 1.721-.994 1.458.313.48 1.839 1.243 2.499l-.04 1.478c-.232.01-.464.015-.696.016-1.4.48-1.462-1.025-2.222-1.497z" fill="#af753f"/><path d="M1411.3 1418.4c.25.01.5.014.75.021-.36 1.978.736 4.139-.753 5.974l-.099-1.457c-1.165-1.54-1.148-3.052.102-4.538z" fill="#97632e"/><path d="M1412.8 1418.4c1.157-.118 1.453 1.041 2.222 1.497-.261.569-.653 1.278-1.286 1.035-1.121-.43-.941-1.562-.936-2.532z" fill="#b17932"/><path d="M1401.5 1361.4c1.183 1.609.132 3.482.613 5.175-.519.426-1.023.043-1.533-.01-.565.076-1.023.539-1.633.457a1.295 1.295 0 0 1-.763-.54 2.426 2.426 0 0 1-.148-.961c.245-1.11.65-2.189.644-3.351.053-.339.164-.657.332-.956.907-1 1.741-.978 2.488.185z" fill="#c29356"/><path d="M1401.5 1361.4c-.753-.454-1.505-.46-2.255.01-1.687-.28-1.296-1.276-.796-2.31-.119-1.076.219-2.012.876-2.85.618-.346 1.29-.847 1.432.415.102.903-.141 1.891.666 2.614l.077 2.124z" fill="#cb9e60"/><path d="M1402.1 1368.2c.059.226.119.452.18.677 1.318 1.958 1.332 4.277 1.8 6.472-.01.603-.233 1.081-.793 1.357a1.813 1.813 0 0 1-1.048-.078c-.8-.313-.095-1.982-1.547-1.72-1.105-1.175-.872-2.595-.748-3.995.321-.96.254-2.028.789-2.933.507-.241.977-.26 1.367.22z" fill="#c49654"/><path d="M1403.7 1375.6c-1.282-2.074-1.535-4.371-1.454-6.74l.76-.798c1.957.464.853 2.262 1.457 3.322.097.537.139 1.077.139 1.623-.038.957-.091 1.908-.902 2.593z" fill="#e1bb85"/><path d="M1403.8 1371.1c-1.023-.837.396-2.257-.73-3.07a3.73 3.73 0 0 1 .121-.618c.648-.636 1.363-.729 2.146-.261.58.655.638 1.417.463 2.23-.395.885-.693 1.891-2 1.719z" fill="#c48c49"/><path d="M1403.7 1365.1c.473-.992 1.188-1.746 2.182-2.227.52.381.713.922.763 1.537-.01.618-.179 1.176-.6 1.644-.769.441-1.502.46-2.177-.189l-.168-.765z" fill="#c5a165"/><path d="M1403.9 1365.9c.691-.01 1.383-.01 2.075-.015.417.443.452.939.202 1.474-.303.25-.613.273-.932.029l-2.08.052c.246-.513.49-1.027.735-1.54z" fill="#c69e5e"/><path d="M1403.7 1359.9c.512.16 1.372.097 1.153.911-.231.863-1.128.542-1.781.589-.053-.61.066-1.147.628-1.5z" fill="#cca065"/><path d="m1402.1 1368.2-1.379-.041c-.668-.755-.546-1.502.021-2.245l1.354.666v1.62z" fill="#d0a461"/><path d="m1423.2 1394.4.001 2.249-2.238.747c-.617-.448-.766-1.129-.912-1.814-.176-1.043-.322-2.083.828-2.724 1.334-.333 1.581.977 2.321 1.542z" fill="#a66f2e"/><path d="M1421 1395.2c0 .745.01 1.489.012 2.233l-.029 1.488c-.823.401-1.33-.095-1.824-.639a5.381 5.381 0 0 1-.748-2.564c.067-.37.251-.666.563-.88.748-.289 1.42-.144 2.026.362z" fill="#b38750"/><path d="m1419.5 1398.1 1.447.744c0 .506.01 1.012.01 1.518-.604.604-.798 1.682-1.933 1.675-1.211-.725-1.12-1.803-.8-2.945.264-.539.679-.886 1.278-.992z" fill="#a47d39"/><path d="M1420.2 1405.6c-.304.698-.775 1.227-1.507 1.494-.439-.323-.646-.785-.781-1.292-.172-.845-.45-1.688-.089-2.554.273-.23.587-.381.938-.454a1.703 1.703 0 0 1 1.415.567c.01.746.016 1.493.024 2.239z" fill="#8f5d20"/><path d="m1420.2 1403.4-1.645-.059c-.173-.739.231-1.114.854-1.351.288-.755.797-1.297 1.55-1.603l-.759 3.013z" fill="#a47431"/><path d="M1418.7 1405.6v1.528l-.711 1.571c.506.781.336 1.33-.564 1.626a1.562 1.562 0 0 1-.783-.754c-.284-.739-.335-1.502-.259-2.282.327-1.172.522-2.531 2.315-1.689z" fill="#ac7f39"/><path d="M1417.3 1410.2c.584-.31.715-.861.769-1.45 1.633 1.725-.796 3.439-.013 5.161-.502.01-1.005.013-1.508.021-.593-1.415-.306-2.652.752-3.732z" fill="#935e1e"/><path d="M1392.5 1362.2c.565-1.469-1.57-3.376.742-4.561.333 1.158 2.282.781 2.208 2.325.616.721.344 1.261-.345 1.717-1.039-.694-1.697.542-2.605.519z" fill="#d2b07c"/><path d="M1394.7 1361.4c.606-.314.775-.857.777-1.487l.745-.171.02.17c1.337.578 1.019 1.684.883 2.736-.256 1.044-.505 2.103-1.912 2.089a1.097 1.097 0 0 1-.735-.596c.05-.913-.519-1.88.222-2.741z" fill="#c0a77a"/><path d="M1428.5 1380.1c-.072 1.032.583 2.554-1.501 2.231-.823.411-1.312-.078-1.766-.658-.434-1.279.271-1.972 1.288-2.507a2.22 2.22 0 0 1 1.011-.143c.328.115.603.308.815.587.052.163.103.327.153.49z" fill="#c18646"/><path d="m1425.5 1381.6 1.501.737c0 .51 0 1.02.01 1.529-1.252 1.22-1.951.811-2.252-.765-.463-.437-.455-.936-.198-1.469.306-.255.62-.266.942-.032z" fill="#c39759"/><path d="M1430.7 1375.6c-.01.742-.018 1.484-.026 2.226-.961.549-.579 2.409-2.231 2.285l.01.01c-.756-1.086-.279-2.092.193-3.103.528-.698.833-1.731 2.058-1.415z" fill="#c28b3e"/><path d="m1412.7 1436.4-2.987.741c-.776-1-.277-1.73.508-2.4.373-.178.723-.141 1.05.111l-.062.069c.496.494.993.986 1.491 1.479z" fill="#ba652d"/><path d="M1406 1364.4c-.035-.487-.069-.973-.105-1.459l.118-1.508c.418-.447.912-.469 1.447-.254.731.616.938 1.484 1.139 2.357a2.88 2.88 0 0 1-.072 1.054c-.999 2.079-1.827 1.807-2.527-.19z" fill="#ebd7b1"/><path d="M1407.5 1361.4h-1.432l-.054-3.764 2.251.747c.416.385.501.869.424 1.405-.195.683-.524 1.271-1.189 1.609z" fill="#e3cfa5"/><path d="m1424.7 1360.6.001 1.5c.452.383.496.871.365 1.406a1.93 1.93 0 0 1-1.089 1.051c-.997.062-1.525-.68-2.153-1.256a3.036 3.036 0 0 1-.751-1.377c-.124-.737-.056-1.438.4-2.062.314-.237.635-.257.963-.028.544.882 1.435.733 2.264.766z" fill="#d7ba80"/><path d="M1422.5 1359.9a56.34 56.34 0 0 1-.717.04c-.498-.403-.705-.949-.772-1.564-.021-.831.288-1.551.755-2.218.001-.236 0-.473.01-.709 1.394 1.297.522 2.961.724 4.451z" fill="#cda168"/><path d="M1415 1356.1c.01.49.014.98.021 1.471.328.914 1.016 1.459 1.88 1.83.59.417.871.976.799 1.702-.118.669-.427 1.241-.889 1.734-.55.432-1.181.304-1.799.264-.72-.085-1.479.193-2.172-.2l-.053-2.28c.84-1.148-.101-2.617.679-3.776l.079.014c.384-.446.605-1.205 1.455-.759z" fill="#e5c490"/><path d="m1409.7 1355.4 2.231.769c-.01 1.488-.013 2.975-.02 4.462-.284.394-.426.929-1.017 1.017-.734-.062-1.238-.449-1.556-1.101-.324-1.265.299-2.562-.128-3.827-.029-.511.081-.971.49-1.32z" fill="#d5b584"/><path d="m1412.8 1362.9 2.155-.75c.704.917.953 1.922.587 3.045-.266.693-.783 1.148-1.419 1.49a2.119 2.119 0 0 1-.993.193c-.146-.087-.292-.176-.438-.265.037-1.237.072-2.476.108-3.713z" fill="#d5a05d"/><path d="m1415 1356.1-1.457.759-.031-2.246c1.84-.848 1.402.581 1.488 1.487z" fill="#d0ba8c"/><path d="M1412 1366.6c.236.01.473.017.708.026l.206-.082c.631.901.776 1.884.502 2.94-.13.404-.36.74-.686 1.012-1.469-.108-1.438-1.227-1.529-2.266.062-.642.265-1.217.799-1.63z" fill="#eedcb0"/><path d="m1412 1366.6-.042 1.57c-.354.192-.681.144-.986-.111-.562-.824-.594-1.734-.449-2.677.089-.364.247-.696.465-1 .322-.244.65-.249.98-.016.012.745.022 1.49.032 2.234z" fill="#ebdaaf"/><path d="M1412 1364.4c-.218 0-.437.013-.655.025-.981-.972-.942-1.976-.096-3.006l.718-.788c.01 1.256.021 2.513.033 3.769z" fill="#d8cba8"/><path d="M1413.4 1356.9c-.076 1.285.484 2.686-.679 3.775.088-1.282-.471-2.682.679-3.775z" fill="#f0d9b0"/><path d="M1394.8 1363.6c.001.259 0 .518.01.776.438.515.377 1.013-.049 1.5l-1.475.744c-1.04-.831-.663-1.984-.693-3.044.744-.568 1.482-.616 2.212.024z" fill="#ceaa6b"/><path d="M1394.8 1363.6c-.738-.01-1.475-.015-2.212-.023 0-.478-.01-.956-.013-1.433.637-.506 1.057-1.639 2.174-.75-.188.741.881 1.452.051 2.206z" fill="#bd9656"/><path d="M1402.3 1417.7c1.52.043 1.419 1.17 1.469 2.196l-.738.731-.731-2.927z" fill="#8d5420"/><path d="m1410.5 1434.9-.73 2.192c-.495.01-.99.018-1.485.026-.543-.92-.856-1.981-1.685-2.728-.566-.83-.823-1.758-.88-2.751.033-.345.197-.615.468-.824.5-.175.958-.159 1.327.284 1.028.115 2.2-.35 2.986.74-.743.057-1.558.157-1.78.965-.186.674.442 1.032.991 1.312.463.06.72.327.788.784z" fill="#ce6f36"/><path d="m1410.5 1434.9-.787-.783c1.072-1.282 2.508-.675 3.816-.734l-2.202 1.421c-.276.031-.551.064-.827.096z" fill="#863e19"/><path d="M1404.5 1428.1c0-.247 0-.495.012-.742 1.857-1.244.551-2.992.716-4.506-.374-.72.082-.862.646-.93.297.178.53.419.704.718.488 1.065.782 2.203 1.195 3.301.118.32.19.65.237.989.032.53-.078 1.023-.385 1.466-1.157 1.133-2.17.718-3.125-.296z" fill="#be873f"/><path d="m1406 1422.1-.74.747c-.244 0-.487-.01-.729-.015l-.057-2.971.063-.037c.49-.632.942-1.411 1.84-.475.467.999.488 1.936-.377 2.751z" fill="#b17d3c"/><path d="M1400.7 1434.9c-.017-.979-.527-1.466-1.494-1.498l.749-1.488c1.275.06 2.426-.132 2.996-1.49.511-.01 1.021-.016 1.532-.023.241-.248.531-.369.879-.345.498.2.854.479.595 1.092l-.001.021c-.516 1.174-1.074 2.315-2.249 2.994-1.149-.353-2.204-.324-3.007.737z" fill="#be673a"/><path d="M1428.5 1361.4c1.038-.388 1.521-1.155 1.541-2.242 2.885-.559 2.069 1.638 2.293 3.066-.307 1.587-1.034 2.909-2.439 3.793-.379.086-.72.001-1.019-.25a4.417 4.417 0 0 1-.865-1.388 4.484 4.484 0 0 1-.236-1.051c-.039-.745.153-1.409.725-1.928z" fill="#c9954f"/><path d="M1425.5 1361.4c0-.762 0-1.524.01-2.286l2.229.718c0 .513.01 1.027.012 1.542.338.302.354.62.048.954-1.077.462-1.809.072-2.295-.928z" fill="#d9c09a"/><path d="M1431.5 1362.9c-.345-1.297.92-3.226-1.459-3.725a96.782 96.782 0 0 0-.067-.774h2.266l-.013.05c.612 1.106.761 2.301.673 3.541a2.34 2.34 0 0 1-.451.949c-.326.209-.642.185-.949-.043z" fill="#dea15b"/><path d="M1427.7 1362.2c0-.259 0-.517.01-.776.253 0 .507.01.761.014l-.054 2.202c-1.222.01-1.19-.606-.712-1.44z" fill="#d9bd8f"/><path d="M1421.7 1356.1c0 .744-.01 1.488-.012 2.232-.585.486-.176 1.872-1.517 1.679-.771-.55-1.112-1.329-1.197-2.245.029-.358.169-.673.399-.949l.162.097c.724-.27 1.445-.542 2.165-.814z" fill="#deb16b"/><path d="M1391.7 1443.9c-1.994-.905-3.979 1.043-5.972.019l2.104-1.512 4.612.001c.01.492.015.984.023 1.477-.255.01-.511.01-.767.015z" fill="#d9754a"/><path d="m1406 1431.1-.768-.742c-.322-1.831 2.216-.779 2.259-2.242 0-.5.01-1.001.011-1.502a.935.935 0 0 1 .947-.058c.649.829.958 1.768.914 2.821-.217.502-.754.64-1.112.982l-.756.748c-.498 0-.997-.01-1.495-.01z" fill="#b16626"/><path d="m1408.2 1430.4.763-.762c.336-.559 1.081-.306 1.479-.744l.016.01c1.641-.838 2.128.052 2.243 1.499h-4.501z" fill="#a56225"/><path d="M1433 1368.1c-.799 1.418-.768 2.97-.723 4.523-.251.01-.502.012-.752.018-.645-.342-.978-.935-1.268-1.565-.388-1.317-1.021-2.653.254-3.862.464-.294.963-.363 1.494-.239.536.193.765.661.995 1.125z" fill="#d6b17e"/><path d="M1430.7 1371.1c.632.311.795.874.812 1.515l-.76 2.213c-.385.286-.756.269-1.115-.049-.771-1.551-2.601-3.411 1.063-3.679z" fill="#d4ab66"/><path d="M1430 1374.9c.249 0 .497-.012.745-.026.01.257.01.514.015.771l-1.458 1.515c-.41.426-.895.479-1.43.288a1.795 1.795 0 0 1-.629-.815 2.613 2.613 0 0 1 .069-1.543c.227-.486.597-.826 1.08-1.046.83-.27 1.201.328 1.608.856z" fill="#cc984c"/><path d="m1433 1368.1-.795-.745c-.344-.34-.418-.75-.31-1.207.128-.276.325-.485.599-.621.459-.112.869-.052 1.185.339l.033 1.427-.712.807z" fill="#e6d0a5"/><path d="M1432.2 1362.9c-.01-1.489-.014-2.98-.021-4.469.94.431 1.007 1.454 1.485 2.198-.02.239-.025.479-.019.72-.584.421-.01 1.926-1.445 1.551z" fill="#cfa56a"/><path d="M1396.2 1362.2c.414-.743.504-1.485-.01-2.225l2.202-.852c.092.829-.099 1.756.796 2.309.001.245 0 .489-.01.734-.302.587-.683 1.067-1.432 1.044-.68-.087-1.096-.58-1.552-1.01z" fill="#d0a674"/><path d="m1409.7 1355.4.042 1.484c.415.551.427 1.196-.144 1.507-.616.336-1.047-.225-1.375-.73.168-1.269-.517-2.706.742-3.759.017.612.137 1.172.735 1.498z" fill="#efd1af"/><path d="M1408.3 1357.7c.863.439 1.526.485 1.519-.777 1.57 1.27-.246 2.548.01 3.821.358.52.459 1.064.165 1.649-.574.567-1.145 1.158-1.974.374-.051-.958-.358-1.941.27-2.835 0-.498 0-.995-.01-1.493.01-.246.011-.493.017-.739z" fill="#e9c693"/><path d="m1419.4 1356.9.081.837c-.374 1.27-.022 2.791-1.293 3.752-.332.164-.654.138-.969-.048-.026-.615-.101-1.206-.764-1.495-.585-.729-.602-1.475-.066-2.237l.916-1.49 2.095.681z" fill="#f9f6ed"/><path d="m1416.4 1357.7.066 2.237c-1.505-.115-2.301-.685-1.466-2.295.235.012.472.015.707.01.231.022.462.039.693.05z" fill="#d2b78e"/><path d="m1432.2 1362.9 1.447-1.552.078 1.525c.313 1.395-.585 2.188-1.484 2.979l-.094.066c-2.259-1.052-.291-2.021.059-3.021z" fill="#e6d0a5"/><path d="m1432.3 1365.9 1.483-2.979h1.398l.04 1.488c-1.021-.017-1.452.582-1.568 1.506-.451 0-.902-.01-1.353-.016z" fill="#ecd8b8"/><path d="M1417.3 1410.2c.085 1.312-.087 2.57-.752 3.731-.032.24-.05.48-.056.723-.451.481-.971.467-1.525.215-.695-.746-.739-1.613-.47-2.536.143-.308.354-.563.627-.764 1.097.131.845-1.824 2.142-1.397z" fill="#ac7f39"/><path d="m1415 1414.7 1.455-.039.789 1.548c-1.038.382-1.456 1.187-1.522 2.231l-1.476-2.259a.877.877 0 0 1-.219-.766c.207-.398.519-.654.973-.715z" fill="#9d6a31"/><path d="M1407.5 1428.1c.169 1.677-1.743 1.257-2.259 2.243-.236-.001-.471 0-.707-.01 0-.746-.01-1.493-.01-2.238.992.029 1.983.725 2.975 0z" fill="#c57f40"/><path d="M1427.7 1362.2c.02.588.125 1.134.712 1.44l.068.766c.163.168.241.352.233.552-.01.208-.032.312-.073.311-.335.583-.826.903-1.508.893-.591-.557-1.359.209-1.973-.257-.543-.664-.855-1.37-.456-2.222v-1.498l.754-.735 2.242.75z" fill="#d7ae79"/><path d="m1390.9 1482 3.082-6.863c1.235 2.629 3.255 4.683 2.502 6.704-.483 1.3-3.337.608-5.584.159z" fill="#f01516"/><path d="M1398.5 1482.1c1.429-.854 2.311-1.379 3.746-2.235-.69 2.041-1.169 3.225-3.746 2.235z" fill="#f4fefa"/><path d="M1419.5 1475.7c-.036-1.586-.125-3.043 2.031-2.803 1.719.192 2.893 1.074 2.888 2.826-.01 2.029-1.434 2.737-3.275 2.771-2.377.044-1.435-1.784-1.644-2.794z" fill="#f00e0e"/><path d="M1415.3 1479c.058.709-.491.745-.956.805-.49.063-1.049-.01-1.179-.558-.167-.702.469-.733.929-.797.492-.069.957.027 1.206.55z" fill="#fcfef5"/><path d="M1417.2 1470.9c.479.046 1.067.028 1.063.691 0 .655-.585.677-1.066.681-.485 0-1.068-.023-1.063-.682 0-.648.581-.654 1.066-.69z" fill="#f6fef8"/><path d="m1450.2 1482.9 4.799.116c-2.532 2.278-5.626 1.94-8.406 1.173-4.354-1.203-4.643-5.377-.837-8.758.167.024.336.048.504.07 2.228.448 3.053 1.736 2.785 4.032-.136 1.159-.61 2.733 1.155 3.367z" fill="#f90706"/><path d="M1452.5 1475.4c-.764.032-1.528.066-2.293.1-1.398 1.039-2.825.73-4.259.088l-.183-.134c.195-.736.927-.557 1.399-.818 1.751-.315 3.513-.836 5.187.277.059.16.108.321.149.487z" fill="#f90706"/><path d="m1452.4 1474.9-5.186-.278c1.791-1.059 3.546-1.489 5.186.278z" fill="#ebbbb6"/><path d="M1406.7 1481.4c3.492-.281 3.224 1.713 2.54 4.563-1.612-1.461-2.245-2.909-2.542-4.562z" fill="#fe0101"/><path d="m1446 1475.5 4.26-.089v7.424h-3.401c2.077-2.934 1.87-5.372-.863-7.335z" fill="#fd0108"/><path d="M1402.2 1446.1c.887 1.426 2.864.069 3.758 1.475-2.632 1.188-6.034-.409-8.252 2.279-.466.397-.946.456-1.445.062l-.111-.121.806-1.44c1.56-1.189 3.316-1.924 5.244-2.255z" fill="#9f481f"/><path d="m1396.3 1449.9 1.445-.062 2.262-.001-.784 2.263c-.706.349-1.227.01-1.719-.452-.231-.6-1.17-.536-1.227-1.301-.01-.15 0-.299.023-.447z" fill="#6d3d22"/><path d="m1397.9 1451.3 1.371.825 1.487-.046c.313-.276.596-.248.849.083a14.4 14.4 0 0 1-.127.625c-1.488.067-3.167-.125-3.004 2.197-1-.408-1.733-1.07-2.045-2.136.674-.34.835-1.168 1.469-1.548z" fill="#7e5736"/><path d="m1401.6 1452.2-.849-.083c1.115-1.15 2.529-.601 3.834-.671-.781 1.099-1.975.564-2.985.754z" fill="#7e4329"/><path d="M1388 1453.7c1.721-1.551 3.636-2.572 6.055-2.225-1.871 1.145-3.836 2.029-6.055 2.225zM1397.9 1451.3c-.115.872-.483 1.504-1.47 1.55.998-2.149-.722-1.458-1.657-1.587.518-.296 1.035-.592 1.552-.89l1.575.927z" fill="#b6734d"/><path d="M1388 1455.1c0-.229.031-.456.088-.678l1.718.334c-.083.299-.078.768-.266.866-.63.33-1.151.029-1.54-.522z" fill="#f5fefe"/><path d="M1406 1419.1c-.488.246-.977.491-1.466.735.01-1.751.01-3.503.013-5.255a1.26 1.26 0 0 1 1.232-.182c1.497 1.502 1.488 3.073.221 4.702z" fill="#c48d42"/><path d="M1404.5 1409.4c.245 0 .49.01.735 0 .434.4.549.904.493 1.469-.204.891-.442 1.765-1.288 2.296-2.862-.788-.348-2.535-.675-3.776.25-.359.494-.356.735.01z" fill="#b08040"/><path d="M1404.5 1409.4c-.245 0-.49 0-.734-.01v-3.734c1.281 1.042.548 2.482.738 3.741z" fill="#c18f4e"/><path d="M1404.4 1413.2c.117-.787-.104-1.689.754-2.225.727.535.856 1.304.837 2.133a2.504 2.504 0 0 1-.775 1.573c-.238-.001-.476-.01-.713-.024l-.103-1.457z" fill="#d09d50"/><path d="M1399.2 1384.7c0-1.001-.01-2.003-.01-3.005a2.792 2.792 0 0 1-.621-.884c-.255-1.095-.244-2.128.697-2.938 1.374-.26 1.405 1.143 2.119 1.707.206.253.358.538.475.841.115.485.079.96-.096 1.425-.195.438-.436.856-.649 1.286-.622.78-.15 2.472-1.907 2.314-.001-.248 0-.497-.01-.746z" fill="#ca9548"/><path d="M1403.7 1393.7c-1.418-.864-.01-2.847-1.462-3.697l-.04-.862.034-.493c.227-.923.101-2.219 1.744-1.655.216.282.369.592.479.929.202.699.27 1.422.424 2.131.092 1.372 1.268 3.101-1.179 3.647z" fill="#bf9044"/><path d="M1399.3 1385.4c1.195-.657.287-2.275 1.364-2.986 1.094.735 1.131 1.971 1.458 3.071.084.809.051 1.581-.703 2.108-1.402-.057-1.612-1.268-2.119-2.193z" fill="#d1a057"/><path d="M1401.4 1387.6c0-.695.01-1.39.01-2.085-.332-.803-.419-1.513.675-1.775.363.187.62.47.775.847.398 1.599-.215 3.061-.614 4.553l-.01-.03c-.666-.288-.676-.941-.841-1.51z" fill="#765315"/><path d="M1406 1407.9c.051-.516.808-1.041-.02-1.544.04-1.963-.298-3.914-.208-5.881.042-.822.194-1.61.736-2.27 1.416-.587 1.704.605 2.239 1.414.353.964.347 1.949.155 2.942-.584 2.019-.604 4.041-.01 6.066.247 1.137.3 2.272-.026 3.405-.741 1.286-1.337 3.222-2.977.707a1.834 1.834 0 0 1-.164-1.014c.058-1.276 1.157-2.478.274-3.825z" fill="#9e773f"/><path d="M1406.7 1400.3c-.059 2.034.44 4.134-.718 6.037-1.286-.914-.297-3.198-2.238-3.718v-.761c.446-.45.632-.993.681-1.623.065-.839.097-2.005 1.042-2.087 1.494-.129.428 1.632 1.233 2.152z" fill="#a97d42"/><path d="M1406 1411.6c-.01.261-.017.521-.025.782.375.777-.022.829-.636.677l-.181-2.135.041-1.539c.249-.001.497 0 .746.012.558.72.5 1.456.055 2.203z" fill="#8c5c25"/><path d="m1406 1411.6-.056-2.203.047-1.492c1.084 1.229 1.093 2.461.01 3.695z" fill="#ac814c"/><path d="M1403.7 1393.7c1.46-1.244.54-2.511.036-3.773.413-.418.908-.49 1.456-.348.501.219.881.577 1.172 1.034.405.774.636 1.608.819 2.459.169 1.244-.246 2.371-.706 3.49-.372.835-1.23 1.175-1.821 1.789-.349.142-.642.057-.884-.225-.023-1.476-.048-2.951-.072-4.426z" fill="#b3823a"/><path d="M1403.8 1398.1c.215.044.433.075.651.094.403 1.146 1.258 2.398-.701 2.989l-.752-.776.046-.8c.61-.322.679-.917.756-1.507z" fill="#9c6821"/><path d="M1403.7 1401.2c1.125-.788.624-1.957.702-2.99.314-.725.811-1.266 1.56-1.554.313-.225.621-.231.925.018.265.513.28 1.002-.133 1.453l-.089 2.237-1.228-1.713c-.543 1.187.32 3.207-1.729 3.271 0-.242-.01-.482-.01-.722z" fill="#c0904b"/><path d="M1400 1377.9c-1.079.793-.624 1.96-.73 2.991-.759.345-1.544-.107-2.308.073-.747-.621-.599-1.506-.687-2.322 0-1.001.01-2.003.01-3.006.59-.457.164-1.875 1.52-1.607.302.523.565 1.047.046 1.594.604-.376.14-1.125.549-1.573.324-.147.649-.153.979-.022.519.518.663 1.192.792 1.874.099.678.265 1.364-.17 1.998z" fill="#c68e45"/><path d="M1396.9 1381c.711-1.868 1.515-.772 2.308-.073v.758c-.714.263-1.428.525-2.141.789l-.165-1.474z" fill="#c17f3e"/><path d="m1397.7 1374.2-1.458 1.482c-.079-.804.094-1.691-.741-2.245l-.03-2.979c.911-.739-.25-1.512.035-2.261.704-1.068 1.422-2.11 2.974-1.518l.01.04c.774.454 1.354 1.012 1.105 2.022-.474.955-1.086 1.853-1.27 2.935-.347.806-.043 1.776-.625 2.524z" fill="#c08843"/><path d="m1398.5 1366.6-2.974 1.518c-.037-.606-.158-1.172-.737-1.514-.028-.24-.054-.481-.075-.722l.048-1.5c1.523-.068 1.497-1.165 1.491-2.246.617-.01 1.175.105 1.511.702 1.025.818.018 2.129.731 3.023v.739z" fill="#c29153"/><path d="M1388.8 1446.9c-.263-2.422 1.408-2.266 2.982-2.235.59 1.822 3.864.296 3.747 3.002-.301.613-.859.745-1.468.779-1.864-.137-3.281-1.799-5.261-1.546z" fill="#e18e5f"/><path d="M1405.2 1443.9c.252 0 .504.01.755.012.044 3.763-2.342 1.399-3.755 1.488l1.5-1.497c.187-.254.439-.395.749-.437.312.039.563.183.751.434z" fill="#bb5a1e"/><path d="M1404.5 1443.9c-.252 0-.504 0-.756.01-.636-1.216-2.346-.281-2.985-1.49l.773-.762c.916.533 1.881.867 2.961.749.482.498.421.996.01 1.497z" fill="#c56129"/><path d="M1400.7 1436.4c.998 0 1.997-.01 2.995-.014.726.259 1.077.756.979 1.539-.655.78-1.352 1.492-2.485 1.462-.747 0-1.494.01-2.24.01l.751-2.994z" fill="#da7b50"/><path d="m1402.2 1439.4 2.243-1.498c.762-.622 1.521-.652 2.277.012-.01.24-.02.481-.037.721-.814.052-1.699-.104-2.234.765l-2.25 1.479c-.001-.494 0-.986.001-1.479z" fill="#cc6f3e"/><path d="M1406.8 1437.9c-.759-.01-1.518-.01-2.277-.012l-.736-1.503-.001-2.236c.063-1.514 1.029-2.35 2.249-2.994.509.915.86 1.87.755 2.942a3.279 3.279 0 0 1-.309.738c-.257.573.054.938.483 1.265.347.299.572.658.622 1.114l-.786.686z" fill="#c97241"/><path d="M1404.5 1443.9c0-.498 0-.997-.01-1.497.542-.868 1.412-.727 2.235-.727l-1.484 2.227h-.372z" fill="#ca672f"/><path d="m1406 1434.1.749-.055c1.827.367 2.141 1.481 1.511 3.062a8.51 8.51 0 0 0-.714.055l-.817-.798c-.562-.653-1.143-1.298-.729-2.264z" fill="#e58050"/><path d="M1424.7 1381.6v1.492c-.986.789-1.4 1.842-1.427 3.075l-.543.078c-.972-.495-1.035-1.43-1.146-2.345a14.467 14.467 0 0 1-.042-1.626c.021-.902.048-1.805.455-2.642.207-.311.491-.507.861-.577.997.126 1.595.754 2.014 1.607.169.355.111.667-.175.938z" fill="#d7a255"/><path d="M1423.3 1386.2c.94.748 1.301 1.783 1.449 2.924l-.028.032c-.624.542-1.304.62-2.037.248a1.889 1.889 0 0 1-.6-.903c-.117-1.032.386-1.756 1.164-2.345z" fill="#9f7034"/><path d="m1422.5 1389.1 2.238.059c-.034 1.643-.409 3.171-1.491 4.464-.888-.667-1.056-1.685-1.314-2.663-.076-.519-.024-1.021.205-1.498.119-.121.241-.242.362-.362z" fill="#986225"/><path d="M1422.5 1390.6c.5.958.888 1.943.771 3.058v.756c-1.168.131-1.469-1.066-2.277-1.486a60.74 60.74 0 0 0-.198-.477c0-.727.256-1.348.763-1.867.316-.198.631-.182.943.016z" fill="#9c7129"/><path d="m1411.3 1418.4-.101 4.536c-.621.486-1.041 1.561-2.11.711-.911-.646-.907-1.722-1.243-2.641-.184-.648-.266-1.307-.168-1.979.056-.334.155-.653.277-.968a21.99 21.99 0 0 0 .689-1.929c.552-1.875.15-4.146 2.239-5.379 1.179.642 1.046 1.515.438 2.471-.01 1.727-.014 3.453-.021 5.178z" fill="#c28942"/><path d="M1408.3 1420.6c.985.835.575 2.013.75 3.046l-.033 2.246c.279.785-.083.934-.763.77-.25 0-.501 0-.752-.01h-.01c-.267-.925.125-1.883-.149-2.81-.038-1.187-.085-2.375.956-3.241z" fill="#a86a23"/><path d="m1408.2 1426.6.762-.77c1.18.664.251 2.363 1.477 3.004-.311.613-.864.74-1.479.744l-.76-2.978z" fill="#b47133"/><path d="M1411.3 1413.2c-.08-.833.112-1.756-.776-2.318-1.013-.975-.952-2.114-.512-3.311 1.564-1.402 1.738.346 2.377 1.047.292.444.545.912.749 1.404.168.501.188 1.012.064 1.528-.231.654-.564 1.23-1.23 1.54-.226.025-.45.062-.672.11z" fill="#bb8640"/><path d="m1414.2 1415.4-.001.735c-.319.601-.873.739-1.489.754l-.046-1.534c-.479-.768-.421-1.546-.038-2.329 1.637.055 2.248.789 1.574 2.374z" fill="#b37735"/><path d="m1412.8 1413.1-.083 2.205c-.885-.541-.656-1.456-.76-2.26.042-.59.107-1.167.78-1.408.408.471.485.957.063 1.463z" fill="#824e17"/><path d="m1399.3 1368.8-.777-2.154c.959.356 1.234-1.291 2.25-.768-.01.749-.014 1.496-.021 2.245.424.75.514 1.497-.015 2.241-.231.262-.504.32-.822.173-.514-.47-.683-1.061-.615-1.737z" fill="#b7792e"/><path d="M1398.5 1365.9c-1.836-.622-.741-1.954-.732-3.023l1.474-.735c.921 1.484-.281 2.548-.742 3.758z" fill="#cc9e5e"/><path d="M1400.1 1370.4c.221 0 .442 0 .663.01.255 1.505-.539 3.184.744 4.52.581.746.452 1.645.547 2.492-.525.845.207 1.93-.508 2.744-1.521-.06-1.516-1.159-1.529-2.245l-.732-1.506c1.014-1.43 0-2.622-.461-3.88-.094-1.022.21-1.806 1.276-2.131z" fill="#b88534"/><path d="M1401.5 1380.1c.273-.75-.933-1.554.081-2.279.43-.402.099-1.173.718-1.484.234.01.467.016.7.023.658.534 1.3 1.083 1.708 1.849.157.307.252.633.295.975 0 .345-.07.676-.197.997-.274.45-.653.772-1.157.939-.936.121-1.573-.387-2.146-1.029z" fill="#cb9e5b"/><path d="M1404.4 1378.6c-.962-.425-1.447-1.157-1.42-2.216l.745-.797.038-3.009c.717-.09 1.064.353 1.33.918.279.766.328 1.563.323 2.369-.053 1.017-.093 2.041-1.016 2.735z" fill="#dca76e"/><path d="m1402.3 1376.4-.719 1.484-.119-2.958c1.45-.174.46 1.039.838 1.474z" fill="#e7ba81"/><path d="m1404.5 1373.4-.73-.774v-1.46l1.449-1.49c1.465.617 1.613 1.769 1.271 3.122-.474.815-1.055 1.29-1.987.602z" fill="#bf8340"/><path d="M1406 1372.6c.067-1.082-.243-2.061-.803-2.972.01-.75.015-1.5.021-2.25.234 0 .469-.011.703-.018 1.116.653 1.422 1.744 1.586 2.917.054.787-.043 1.541-.5 2.213-.304.325-.64.361-1.007.11z" fill="#d8aa64"/><path d="m1406.8 1370.4-.8-3.019c.01-.495.018-.99.026-1.485l.045-1.518c.743 1.086 1.469 1.107 2.179-.033.847.546 1.244 1.444 1.763 2.247.073.317.037.626-.086.926-.943.688-1.377 1.589-1.141 2.772a1.996 1.996 0 0 1-.374.904c-.86.387-1.205-.265-1.612-.794z" fill="#e5c186"/><path d="m1421 1395.2-2.218-.056c-1.034-.301-1.333-1.01-1.122-2.008.161-.314.392-.567.687-.763 1.012-.481 1.985-.774 2.588.58h.037c-.434.756-.539 1.508.028 2.25z" fill="#78441d"/><path d="M1418 1392.9c-.189.878.378 1.501.737 2.193a3.992 3.992 0 0 0-.07.681c0 1.147-.226 2.259-.555 3.356-.382.782-.652 1.731-1.875 1.229a2.906 2.906 0 0 1-.509-.969c-.388-1.709.1-3.328.508-4.956.129-.559.352-1.072.729-1.51.339-.249.685-.256 1.035-.024z" fill="#dba65e"/><path d="M1418 1398.9c-.903-1.29-.199-2.217.697-3.103.937.552.74 1.501.824 2.352l-.757.766c-.26.263-.515.271-.764-.015z" fill="#724615"/><path d="M1418 1398.9c.255 0 .509.011.764.016.045 1.07-.384 2.242.664 3.098-.283.451-.566.902-.852 1.353a5.213 5.213 0 0 0-.618-.105c-.495-.021-.855-.273-1.142-.657-.347-.676-.77-1.344-.308-2.137l1.492-1.568z" fill="#613a22"/><path d="m1417.5 1402.7.441.581.776 2.368c-1.481.057-1.488 1.167-1.582 2.215-.514.522-1.048.455-1.596.053a2.392 2.392 0 0 1-.24-1.188c.712-1.354-.844-3.952 2.201-4.029z" fill="#75420d"/><path d="M1415.9 1407.8h1.299l.068 2.304c-.983.014-.111 1.919-1.525 1.494-1.043-1.311-1.09-2.582.158-3.798z" fill="#8f5e25"/><path d="M1424.7 1381.6c-.01-.263-.016-.524-.023-.785-.467-.671-.668-1.44-.833-2.225-.139-1.607-.195-3.194 1.124-4.43.54-.347 1.025-.29 1.445.205.394.804.099 1.635.086 2.453-.186.901.969 1.56.47 2.52-.448.79-1.643 1.077-1.521 2.252-.25 0-.499.01-.748.01z" fill="#cb964f"/><path d="M1427 1379.4c-.464-.769-1.66-1.055-1.482-2.247 1.162 1.012 1.159-1.424 2.209-.747l.046.773c.573.76.538 1.5-.075 2.22h-.349z" fill="#ba8737"/><path d="m1427.7 1379.4.075-2.22c.502-.01 1.004-.012 1.507-.018l-.793 3.003-.789-.765z" fill="#d9a656"/><path d="M1409.7 1366.7c-1.526-.108-1.441-1.253-1.488-2.313v-.694c-.192-.175-.25-.342-.175-.503.073-.158.144-.237.212-.237l1.424-.803c.79.572.776 1.426.797 2.267-.019.841 0 1.697-.772 2.283z" fill="#e0b77c"/><path d="M1408.2 1362.9c0 .248-.015.494-.037.74-.835-.555-.682-1.435-.736-2.245.035-.62.161-1.193.771-1.521v3.026z" fill="#d2bf99"/><path d="m1421.7 1362.1.771.775c.275 1.505.341 3.014.091 4.531-.239.727-.408 1.53-1.453 1.453-1.401-1.426-1.162-3.513-2.073-5.14-.204-.968-.247-1.892.733-2.515.875-.203 1.386.384 1.931.896z" fill="#deaa61"/><path d="M1421.7 1367.4c-.087-1.552-.113-3.096.713-4.505l1.532 1.51c.822.974.895 1.997.206 3.072-.836.615-1.652.544-2.451-.077z" fill="#e1c69b"/><path d="M1424 1367.4v-2.995l.752-.754.769 2.269c.892 1.161.2 2.129-.373 3.115-.551.57-1.144 1.021-2.003.669-.656-1.115-.015-1.75.85-2.304z" fill="#dcb685"/><path d="M1421.7 1362.1c-.606.012-1.135-.135-1.446-.717-.471-.483-.389-.967 0-1.449l1.489-1.578.029 1.55-.074 2.194z" fill="#d1a055"/><path d="M1417.2 1361.4c.225-.01.449-.029.672-.058.81.568.772 1.461.882 2.298.119 1.326.185 2.631-1.334 3.293-.751.052-1.213-.336-1.506-.985-.234-1.083-.296-2.139.529-3.039.029-.615.141-1.189.757-1.509z" fill="#ebd2a5"/><path d="m1416.5 1362.9-.121 2.947a.749.749 0 0 1-.654.432l-.412-.101-.3-.299c0-1.233-.01-2.467-.012-3.699l1.499.72z" fill="#d4a86a"/><path d="m1409.7 1364.4-.064-2.283.113-1.411 1.443.715.096 3.006c-.065.24-.132.479-.202.718-.165.249-.387.337-.675.24-.304-.279-.414-.699-.711-.985z" fill="#c89559"/><path d="m1412.8 1369.7.093-3.093c.193.026.386.041.58.042.585.334.86.884 1.056 1.496.043.32.01.63-.11.931-.419.521-.881.93-1.619.624z" fill="#e3b474"/><path d="M1414.2 1368.2c-.603-.345-.72-.918-.723-1.544.327-.591.889-.7 1.491-.726l-.001.001c.753 1.097.288 1.782-.767 2.269z" fill="#e0aa60"/><path d="m1412.8 1369.7 1.394-.771c.456-.428.97-.46 1.524-.231.428.363.641.845.758 1.377.13 1.156.3 2.304.981 3.303.07.338.054.67-.053.999-.838 1.017-.796 2.685-2.342 3.183a1.82 1.82 0 0 1-.984-.234c-.485-.522-.623-1.186-.76-1.848-.085-.851-.646-1.478-1.046-2.184-.278-.657-.351-1.331-.171-2.027.136-.328.329-.618.582-.867.032-.235.071-.468.117-.7z" fill="#daa458"/><path d="M1412.7 1370.4c0 .259.011.52.016.779-.504.664-.979 1.455-1.888.457-.563-1.231-.634-2.405.399-3.452.244.01.487.025.729.048.055.789-.147 1.667.744 2.168z" fill="#debf8a"/><path d="m1411.2 1368.1.044 3.724c.425.979.43 1.652-.958 1.32-.91-1.096-.806-2.411-.811-3.704.334-1.443.499-2.927.979-4.338.21 0 .419-.01.628-.013l.118 3.011z" fill="#d9a75d"/><path d="m1405.4 1413.1.636-.677c.75 1.054 1.5 1.014 2.25 0 1.393 1.975.523 3.979.078 5.977l-.126.035c-.917.916-.44 2.07-.532 3.13-.336.707-.449 1.689-1.644 1.342a25.453 25.453 0 0 0-.045-.729v-3.009c-.221-1.503.553-3.17-.74-4.497.042-.523.081-1.047.121-1.572z" fill="#9c6d33"/><path d="m1406 1422.9 1.435-1.485c.88.841-.072 2.156.777 3.005l-.748 2.24c-.972-1.065-1.217-2.414-1.464-3.76z" fill="#9d6d38"/><path d="M1432.2 1362.9c.229 1.011-1.302 1.99-.059 3.021-.01.48-.017.961-.026 1.44l-1.41.029c-.815.635-1.393.381-1.808-.481-.055-.403.06-.752.344-1.044l2.206-2.982c.251.01.502.011.753.017z" fill="#cfa56a"/><path d="m1429.3 1365.9-.063.747c-.585 1.238-.396 2.998-2.273 3.362-.612-.098-.972-.465-1.129-1.052.016-1.156.33-2.187 1.245-2.964l1.438-.872c.26-.204.504-.196.727.059 0 .24.024.48.055.72z" fill="#efcc94"/><path d="m1429.2 1365.1-.728-.058a8.62 8.62 0 0 1 0-.719l.724.777z" fill="#cfa56a"/><path d="M1418.1 1363.7c-.068-.782-.138-1.563-.207-2.345l1.589-3.646.744 2.255v1.45c-.88.538-.72 1.415-.729 2.236l-.429.307a1.115 1.115 0 0 1-.966-.257z" fill="#d09b5e"/><path d="M1427 1369.6c1.111-.742.705-2.605 2.24-3.036.314.64.895.76 1.525.778-.897 1.229.311 2.503-.08 3.742-2.9.759-.32 2.53-.694 3.755-.495-.249-.991-.496-1.487-.744a26.15 26.15 0 0 0-.422-.291c-.758-.967-.954-2.168-1.372-3.279a1.039 1.039 0 0 1 .29-.925z" fill="#c18c45"/><path d="m1426.3 1374.9-.744-.788a1.805 1.805 0 0 1-.564-.901 2.312 2.312 0 0 1 .313-1.56c.5-.529 1.034-.965 1.83-.611.555.984.308 2.332 1.384 3.086l.02.012-.782.749c-.482.435-.967.464-1.457.013z" fill="#bf893f"/><path d="M1426.3 1374.9c.486-.01.972-.01 1.457-.014.01.499.012.998.019 1.497-.676.431-1.096 1.618-2.21.747l.734-2.23z" fill="#b07f2a"/><path d="m1415.9 1407.8-.157 3.799c-.237.011-.474.02-.711.027-.173-.069-.345-.14-.519-.208-1.398-1.26-1.03-3.147-1.674-4.68-.247-1.202-.324-2.397.12-3.577a1.68 1.68 0 0 1 .88-.868c3.421.52 2.275 2.868 1.956 4.886.011.211.046.418.105.621z" fill="#bc883c"/><path d="m1412.8 1413.1-.063-1.463c0-.513.01-1.027.012-1.54-.552-.966-.775-1.863.506-2.448 1.355.955-.219 3.198 1.713 3.901l.031.052c0 1 0 2 .01 3l-.753.746c-.001-1.061-.482-1.812-1.452-2.248z" fill="#b17f38"/><path d="m1427.1 1366-.798 2.972a1.092 1.092 0 0 1-.765.384 1.234 1.234 0 0 1-.757-.418l.753-2.983c.519.167 1.114-2.378 1.567.045z" fill="#c59e5e"/><path d="m1401.5 1380.1 2.229.765c.214.261.311.56.296.897-.149.813-.337 1.613-.93 2.244-.324.168-.611.11-.866-.143l-.085.1c-.698-.665-1.419-1.323-.648-2.386v-1.477z" fill="#c88e3f"/><path d="M1401.5 1381.6c.216.794.433 1.59.648 2.386l-.759 1.509c-.865-.881-.531-2.058-.766-3.094l.877-.801z" fill="#8d652f"/><path d="M1403.8 1387.7c0-.256-.01-.513-.014-.77a2.076 2.076 0 0 1-.664-1.518c.01-.595.231-1.119.538-1.615a1.658 1.658 0 0 1 1.119-.21c.855.299 1.145 1.005 1.308 1.807.132.995.086 1.963-.464 2.847-.906.826-1.346.082-1.823-.541z" fill="#b98648"/><path d="M1403.7 1385.4c0 .507.01 1.014.011 1.521l-1.516 2.243c0-1.744.01-3.489.01-5.234h.76c.527.35.228 1.113.736 1.473z" fill="#bf883e"/><path d="m1403.8 1387.7 1.42.708c.454.5.454 1.011.033 1.529-.484 0-.967-.01-1.45-.011v-2.226z" fill="#b2793b"/><path d="m1408.3 1418.4-.078-5.977-.055-3.864c-.175-.511.01-.788.547-.831.409.189.689.494.844.917.417 2.792-.135 5.518-.58 8.25l-.678 1.505z" fill="#be8c43"/><path d="M1408.4 1407.9a2.883 2.883 0 0 0-.169.652c-1.193-1.931-1.073-3.867-.03-5.809.759.543.921 1.355 1.002 2.206.062 1.073-.089 2.09-.803 2.951z" fill="#573510"/><path d="m1406.8 1398.1-.058-1.454c-.13-1.417.767-1.085 1.568-.92.787.846.836 1.842.595 2.898a1.952 1.952 0 0 1-.717.983l-1.388-1.507z" fill="#785121"/><path d="m1408.2 1399.6.178-.734c.396-.191.724-.108.986.246.787 1.644.651 3.338.276 5.048a1.823 1.823 0 0 1-.705.878l-.545-.176-.216-2.146c.01-1.039.017-2.078.026-3.116z" fill="#dca95a"/><path d="M1406.7 1392.9c-.878-.565-.72-1.476-.773-2.317-.452-1.114-.714-2.208.323-3.17 1.908-.185 1.978 1.239 2.209 2.523-.134 1.05-.827 1.819-1.363 2.67-.13.099-.263.197-.396.294z" fill="#ad7f4b"/><path d="M1408.1 1396c-.589-.03-1.077.144-1.377.69-.245-.001-.49-.01-.734-.016l.732-3.718.012-.039c.948-.307 1.493.202 1.922.949.235.82.22 1.576-.555 2.134z" fill="#9e773f"/><path d="M1406.7 1387.6c-1.032.802-.568 1.963-.718 2.978l-.758-.693c-.011-.51-.021-1.02-.033-1.529l.071-2.972c.228-.261.501-.325.822-.19.515.423.793.989.975 1.614.047.337-.074.601-.359.792z" fill="#8e5a1e"/><path d="m1400.1 1370.4-.782 2.246c.388.515.392 1.021-.034 1.518-.241 0-.481-.01-.722-.021-.481-.659-1.131-1.254-.799-2.208.144-1.221-.415-2.796 1.562-3.092.259.518.517 1.038.775 1.557z" fill="#cf9d5b"/><path d="m1397.7 1371.9.799 2.208-.174 1.672h-.424l-.204-1.651c-.147-.744-1.173-1.491 0-2.234z" fill="#b37b34"/><path d="m1399.2 1374.1.034-1.518c1.038 1.265 1.095 2.52-.034 3.765v-2.247z" fill="#cb9743"/><path d="m1406 1434.1.728 2.264c-.577-.136-1.55-.135-1.653-.434-.246-.718.237-1.401.925-1.83z" fill="#d88050"/><path d="M1422.5 1388.4c0 .245.01.489.012.733l-.011.039c-1.403.901-2.163-.663-3.285-.859a2.624 2.624 0 0 1-.331-.947c.065-1.566.444-3.076.793-4.594a2.453 2.453 0 0 1 1.004-1.206c.845-.348 1.341.022 1.637.801l.157 1.496c-.916 1.518-.18 3.026.024 4.537z" fill="#a46d27"/><path d="m1422.3 1382.3-1.179-.7c-.585-.859-.542-1.868-.683-2.839.095-.578.325-1.05.934-1.241 1.307.068 1.79.643 1.171 1.896l-.243 2.884z" fill="#a06d2c"/><path d="M1422.5 1388.4c-1.3-1.505-1.588-3.016-.024-4.536.076.842-.107 1.773.802 2.328l-.778 2.208z" fill="#d1954c"/><path d="M1424.7 1378.7c-.01.737-.01 1.473-.016 2.209-.733-.269-1.208-.794-1.496-1.506-.472-.908-.687-1.837-.216-2.816 2.322-.724.744 1.742 1.728 2.113z" fill="#dfad64"/><path d="M1423.2 1376.4v2.959a49.43 49.43 0 0 0-.672.103c-.079-.902-.448-1.529-1.466-1.539-.178-.179-.263-.375-.257-.59.01-.223.032-.334.077-.336.662-.634 1.378-1.054 2.321-.597z" fill="#ae7b3f"/><path d="M1419.5 1388.4c1.3-1.063 1.825 1.024 2.938.723 0 .476-.01.952-.013 1.428l-.756.052c-1.79 1.506-2.82 1.297-2.816-1.249.104-.393.321-.711.647-.954z" fill="#814e13"/><path d="M1419.5 1389.1c-.335 2.1.942 1.827 2.241 1.521l-.79 2.277c-.748-.556-1.527-.381-2.311-.097-.69-.849-.783-1.798-.479-2.817.263-.57.613-1.013 1.339-.884z" fill="#8d5828"/><path d="M1409 1416.9c0-2.991-.01-5.982-.014-8.973-.05-1.002-.681-2.005 0-3.007l-.01.01c.439-.547.816-1.242 1.71-.736.352.444.492.958.5 1.516-.037.563-.196 1.072-.639 1.456l-.055 3.76c-.429 2.01-.366 4.142-1.499 5.976z" fill="#d6a256"/><path d="M1408.2 1424.4c-1.097-.784-.613-1.979-.777-3.005-.662-1.221-.834-2.321.741-2.986l.095 2.182-.059 3.809z" fill="#845421"/><path d="M1410.6 1407.1c0-.494-.01-.987-.011-1.481.682-.789-.193-2.551 1.64-2.622.43.044.721.269.876.671.278 2.028-.153 3.921-1.087 5.718l-1.418-2.286z" fill="#ab7235"/><path d="M1412 1409.4c.071-2.031 1.13-3.936.77-6.022.247-.268.491-.251.731.01l.068 3.81c.192.172.245.328.159.469-.081.133-.159.198-.233.198-.847.563-.696 1.446-.727 2.271l-.768-.734z" fill="#a26c29"/><path d="M1404.4 1383.9a29.025 29.025 0 0 1-.662-.044c-.607-.686-.496-1.406-.101-2.139l.046-.799.69-.741c.921.74.94 1.712.714 2.75a2.606 2.606 0 0 1-.687.973z" fill="#d8ac60"/><path d="m1404.4 1378.6.089-2.954c.372-.269.712-.234 1.024.104.671 1.119.666 2.251.07 3.396-.269.364-.61.451-1.021.261l-.162-.807z" fill="#a77337"/><path d="M1404.6 1379.4c.19-.013.382-.018.573-.012.302.209.527.479.667.822a3.532 3.532 0 0 1-.023 2.136c-.248.509-.559.92-1.225.736l-.152-2.95.16-.732z" fill="#996826"/><path d="M1405.2 1375.7a11.05 11.05 0 0 0-.681-.013v-2.292c.635.01 1.186-.152 1.518-.753.223.02.446.035.668.046.303.195.548.445.732.755.511 1.135.979 2.277.383 3.532-.581.654-1.15.37-1.716-.021-.485-.281-.12-1.183-.907-1.254z" fill="#c79a54"/><path d="M1406.8 1373.4c-.037-.23-.075-.462-.115-.692l.053-2.267 1.421.759c.295.234.49.534.589.898.065.575-.061 1.093-.465 1.524-.543.253-1.048.253-1.483-.222z" fill="#eacb8b"/><path d="M1408.2 1370.4c-.873-1.658-1.251-3.078 1.453-3.01.66.688.342 1.539.386 2.329-.337.972-.911 1.304-1.839.681z" fill="#d9b880"/><path d="M1408.2 1370.4c.624-.025 1.197-.154 1.541-.752.224-.331.452-.335.686-.01l.04 3.772-.406.215a.997.997 0 0 1-.732-.442c-.256-.503-.526-1-1.066-1.271l-.125-.744.062-.768z" fill="#d19d5a"/><path d="M1410.5 1369.6c-.229.01-.458.013-.686.01l-.088-2.257a3.068 3.068 0 0 0 0-.723l.04-2.268.759.757-.027 4.481z" fill="#c59653"/><path d="m1418.7 1389.9-.097 2.904a6.8 6.8 0 0 1-.583.094h-.775c-.435-.413-.517-.923-.42-1.487.378-.807.633-1.772 1.875-1.508z" fill="#d49f4c"/><path d="M1415.8 1407.2c-.231-1.78.778-4.164-2.236-4.587-1.013-.864-.928-2.044-.934-3.201a4.41 4.41 0 0 1 .37-1.6c.171-.311.435-.521.767-.643 1.132.086 1.673.902 2.163 1.776.182.252.385.488.614.702 0 .265.01.53.015.795.335.738.67 1.477 1.007 2.215-1.884 1.01-.159 3.425-1.766 4.543z" fill="#cf9747"/><path d="M1416.5 1399.7c-.25 0-.501-.01-.752-.013-.567-1.335-1.025-2.691-.787-4.179.1-.412.287-.782.552-1.112.577-.377 1.146-.412 1.7.048-.397 1.731-.92 3.444-.713 5.256z" fill="#bd8636"/><path d="M1417.2 1394.4h-1.45c-.42-.364-.508-.836-.442-1.358.166-.667.475-1.252.988-1.719a.924.924 0 0 1 .93.073c.01.502.014 1.005.021 1.509l-.047 1.495z" fill="#bc8f3e"/><path d="m1423.2 1376.4-2.16.812a1.44 1.44 0 0 1-.421-.932c.222-1.329.001-2.812 1.289-3.777.813-.167 1.518.421 2.322.339.484.025.91.181 1.239.552.01.243.017.485.023.729-.922 1.396-.777 2.978-.784 4.532a1768.4 1768.4 0 0 0-1.508-2.255z" fill="#cf9a57"/><path d="M1419.5 1363.6c1.691 1.416 1.481 3.37 1.493 5.263-.124.119-.249.238-.373.359-.666.323-1.342.279-2.024.056-.646-.271-1.244-.607-1.586-1.261a1.02 1.02 0 0 1 .302-.902c2.061-.338.942-2.643 2.163-3.502z" fill="#d9a452"/><path d="m1424 1367.4-.745 2.239c.256.365.216.693-.121.986-1.396.292-2.299-.026-2.098-1.701l-.017-.021c.592-.331.707-.896.74-1.502l2.241-.001z" fill="#e2ca91"/><path d="M1423.2 1370.3c.029-.236.05-.474.063-.712l1.518-.737c.254.001.507 0 .761 0 .675 1.023.66 2.041-.026 3.052v1.438h-1.478c-.878-.162-1.191-.971-1.738-1.514-.153-.776.512-1.074.9-1.536z" fill="#c69956"/><path d="M1419.5 1363.6c-.224 1.543.904 3.885-2.2 3.727-.177-.144-.233-.283-.17-.42.063-.136.124-.204.186-.204 1.03-.821.582-2.034.815-3.066l1.369-.037z" fill="#c28c44"/><path d="M1417.3 1366.8a4.197 4.197 0 0 0-.016.624c0 .262.01.524.01.787.229.252.298.545.233.876-.369.684-.565 1.592-1.684 1.321l-.113-1.459c-.741-.989-.471-1.99-.041-2.995.225-.015.449-.032.672-.051l.94.897z" fill="#c7ad82"/><path d="m1415.7 1365.9.041 2.994c-.502 0-1.004-.01-1.507-.01.013-.246.013-.491.001-.735l.767-2.269c.233-.001.466.01.698.019z" fill="#cc9447"/><path d="M1415 1377.1c1.266-.623.151-3 2.23-3.023.289.23.503.516.648.855.116.343.185.697.228 1.056.067 1.41.07 2.83.478 4.207.098.94.097 1.844-.924 2.344-1.311-.063-1.736-1.176-2.399-2.011-.5-.763-.926-1.553-.798-2.516.109-.345.288-.649.537-.912z" fill="#d09743"/><path d="M1410.5 1373.4c.603-.336.726-.915.776-1.53l1.445-.73.041 2.244c.55.6.717 1.324.688 2.112-.01.565-.079 1.117-.412 1.599-3.64.694-2.336-2.016-2.536-3.689z" fill="#e2bc7d"/><path d="M1417.2 1374.9c-.01-.259-.015-.52-.022-.779-.01-.256-.017-.513-.025-.768-1.079-1.496-.544-2.979.038-4.46.017-.244.037-.487.06-.73.634 0 1.184.16 1.503.771.367.455.614.96.662 1.552-.113 1.529-.412 3.009-1.202 4.354-.32.3-.659.32-1.014.06z" fill="#ca8e3c"/><path d="m1417.2 1368.9-.038 4.461c-2.099-.252-1.265-1.831-1.353-2.992l1.391-1.469z" fill="#d5b07a"/><path d="M1412.7 1377.2c0-.511.01-1.022.015-1.533.421-.382.623-1.228 1.476-.701 0 .734.01 1.468.014 2.203-.178.901-.264 1.902-1.636 1.5-.293-.519-.302-1.014.131-1.469z" fill="#e6bd80"/><path d="m1412.7 1378.6 1.49-1.5h.754c-.01.253-.014.505-.021.757-.592.712-.226 1.931-1.271 2.406a1.39 1.39 0 0 1-.937.021 1.401 1.401 0 0 1-.42-.842c.032-.33.168-.612.405-.846zM1414.2 1374.9l-1.477.701c.01-.75.016-1.501.023-2.252.986.048 1.467.568 1.454 1.551z" fill="#d7a962"/><path d="M1425.5 1372c.01-1.017.018-2.034.026-3.052l.76.03.716.718.043.765c.219.177.28.335.185.478-.089.132-.175.198-.261.198-.489.288-.978.576-1.469.863z" fill="#e3ba7c"/><path d="M1427 1371.1c0-.228.021-.454.076-.676 1.803.728.856 2.52 1.441 3.719-2.038-.249-1.304-1.882-1.517-3.043z" fill="#b87e3a"/><path d="m1413.5 1398.9.058 3.721-.044.782c-.244 0-.488-.01-.732-.01-.254-.001-.508 0-.763-.01-1.208-1.641-1.301-3.22.256-4.71.448-.15.857-.076 1.225.221z" fill="#b0752c"/><path d="M1413.5 1407.9c.026-.223.051-.445.074-.667 1.292 1.2.285 3.142 1.419 4.391-2.446-.46-1.094-2.443-1.493-3.724z" fill="#d1a253"/><path d="m1403.7 1381.7.1 2.14-.057 1.529c-.604-.313-.714-.871-.736-1.474.046-.789-.172-1.663.693-2.195z" fill="#b97d2f"/><path d="m1404.6 1383.1.684-.747c1.926.653 1.545 1.805.663 3.065a15.259 15.259 0 0 0-.677-.032c-.045-.62-.167-1.2-.796-1.513l.126-.773z" fill="#a36e2b"/><path d="M1409 1404.9c.027 1.002.731 2.005 0 3.007-.209 0-.419-.01-.629-.015.01-1.003.012-2.007.018-3.011.205.011.409.016.614.019z" fill="#ca9549"/><path d="M1408.1 1396c.013-.759.025-1.518.039-2.276-.314-.583-.391-1.146.142-1.657 2.243.689 1.415 2.61 1.655 4.105a6.182 6.182 0 0 1-.271 1.797 2.058 2.058 0 0 1-.716.953h-.301l-.301-.01-.247-2.918z" fill="#ebb964"/><path d="M1409 1398.9c.017-.248.038-.496.063-.743.527-.439 1.082-.425 1.656-.106 1.474 2.095.782 4.118-.211 6.13l-1.49.738c0-2.007-.012-4.014-.018-6.019z" fill="#ca9549"/><path d="M1406.7 1387.6a4.238 4.238 0 0 0-.021-.617c-.368-.906.111-1.609.553-2.324.683-.487 1.276-.166 1.866.204a4.07 4.07 0 0 1 1 1.104c.161.284.287.586.392.896.238.77.509 1.532.682 2.325.095.487.122.979.093 1.474-.043.505-.183.978-.469 1.4-.254.23-.553.334-.896.314-.567-.343-.964-.875-1.449-1.311-.071-.146-.14-.293-.209-.441-.686-.921-.45-2.311-1.542-3.024z" fill="#c99b52"/><path d="M1408.2 1392.1c-.017.514-.032 1.029-.05 1.543l-1.406-.806c-.01-1.075-.027-2.158 1.477-2.233l.065.034c.278.505.091.983-.086 1.462z" fill="#b49569"/><path d="m1407.5 1384.6-.827 2.35-.74-1.567c.016-1.073.368-2.219-.664-3.065l.066-2.323c.773-1.107-.228-2.559.708-3.634l1.405.75c.833.602.871 1.544 1.056 2.427.106.537.266 1.063.357 1.606.196 1.407-.186 2.589-1.361 3.456z" fill="#c28f51"/><path d="m1417.2 1391.4-.742.001c-.472-.37-.684-.879-.793-1.448-.133-.937-.082-1.859.242-2.758.319-.715.864-1.15 1.63-1.307 1.096.038 1.352.979 1.819 1.697l.153.849a5.204 5.204 0 0 0-.071.682l-.762.797-1.476 1.487z" fill="#c89541"/><path d="m1419.4 1387.6-1.433-1.44c-1.181-1.54-.295-2.736.652-3.923.62-.303 1.201-.281 1.727.207.018 1.779-.351 3.489-.946 5.156z" fill="#d4a759"/><path d="M1420.3 1382.4c-.515-.01-1.029-.016-1.544-.023-.438-.901.071-1.917-.348-2.822.219-.711.731-1.065 1.437-1.188.598.041.753.547 1.005.954.534.722.575 1.493.232 2.304l-.782.775z" fill="#d5a653"/><path d="m1420.9 1379.3-.644-.704c-.994-1.076-1.001-2.257-.377-3.507.28-.365.647-.499 1.098-.403.459.556.494 1.122.038 1.699l.054.783c-.037.239-.031.476.02.712l-.189 1.42z" fill="#e3b266"/><path d="M1410.5 1404.2c-.132-2.002 1.008-4.002.01-6.005-.312-.561.039-.799.481-.994.701.124 1.524-.3 2.09.456.042.462.09.927-.315 1.279-1.347 1.314-.512 2.997-.759 4.497l-1.436 2.26c-.021-.498-.045-.995-.068-1.493z" fill="#bb823e"/><path d="M1406 1376.4c-.234 1.212.458 2.605-.708 3.634a10.297 10.297 0 0 0-.167-.626l.035-3.736c1.131-.742.605.433.84.728z" fill="#ddb36f"/><path d="m1407.5 1380.1-.062-2.971-.623-3.797 1.313.001c1.043.768 1.047 1.913 1.114 3.038-.249 1.397.573 3.3-1.742 3.729z" fill="#ebbd73"/><path d="m1408.3 1376.4-.179-3.013.169-1.458c1.909-.886 1.325.637 1.438 1.487.098 1.042.16 2.076-.518 2.983-.303.233-.607.233-.91.001z" fill="#c38d48"/><path d="M1409 1376.4c.144-1.025-.33-2.209.769-2.989.256 0 .513.011.769.016 1.618.737-.125 3.457 2.222 3.763 0 .49.01.98.016 1.47 0 .25-.01.501-.01.751-.604.58-1.294.673-2.056.368-.284-.988-1.185-1.035-1.958-1.278-.072-.719-.279-1.454.247-2.101z" fill="#d9a75d"/><path d="M1410.5 1392.1c.01-.497.012-.995.019-1.491.574-.644 1.208-1.163 2.153-1.019.906.351 1.343 1.389 2.346 1.609.23.249.366.539.418.871-.688 1.575-.134 3.354-.815 4.93-.126.115-.254.228-.382.341-.244 0-.488.01-.732.018-1.126-.918-.662-2.465-1.409-3.53-.515-.595-1.244-.991-1.598-1.729z" fill="#bc8738"/><path d="M1412.7 1392.9c1.373 1.314.495 3.008.759 4.508l-.036 1.499c-.241 0-.482-.01-.722-.01l.001-1.498c-.871-.759-.953-1.818-1.096-2.858-.013-.798.389-1.321 1.094-1.643z" fill="#b17c33"/><path d="M1415.7 1395.1c0 1.5.01 3 .014 4.5l-1.517-2.259v.011c.986-.427-.454-2.471 1.501-2.252z" fill="#c7983e"/><path d="m1415.7 1395.1-1.501 2.253c-.183-2.057.163-4.043.776-5.997 1.373-.05 1.188.669.748 1.514.001.496 0 .991.01 1.487-.012.248-.021.496-.028.743z" fill="#d0a046"/><path d="M1415.8 1392.9c-.029-.614-.149-1.182-.748-1.514l-.035.01c-.597-.549-.647-1.211-.408-1.936.181-.319.449-.52.814-.584.621.061.771.643 1.113 1.012v1.501c-.017.617-.152 1.176-.739 1.516z" fill="#cc9a4c"/><path d="m1421 1376.4-.03-1.563c-.909-.794-.761-2.016-1.218-2.992-.264-.545-.542-1.079-1.004-1.49l.041-1.45c.742 0 1.483-.01 2.225-.012.397.961 1.083 1.488 2.156 1.428l-.662 1.573c.233.187.297.349.191.488-.097.127-.192.191-.287.191-1.325.96.01 2.9-1.412 3.827z" fill="#e3b26c"/><path d="M1422.4 1372.6c.035-.226.066-.453.096-.679.73.259 1.209.772 1.499 1.478-1.261 1.189-1.372.083-1.595-.799z" fill="#b08343"/><path d="M1418.8 1370.4c.615.044 1.179.185 1.478.808.068 1.235.817 2.466.019 3.705v3.744l-1.464.753c-.508-.011-.438.6-.801.743-1.352-1.313-.504-2.984-.733-4.48a.941.941 0 0 1 .557-.32c.22-.038.581-.047.608-.158.064-.257-.33-.094-.417-.286-.27-1.591.485-3.009.756-4.509z" fill="#dca54c"/><path d="M1418 1380.1c.196-.324-.333-1.428.801-.743.635 1 .625 2.001.014 3.006l-.835 3.74-1.464.752c-.522-.1-.882-.402-1.107-.875a2.26 2.26 0 0 1-.036-.958c.478-.99 1.004-1.951 1.886-2.659.879-.547.724-1.433.741-2.263z" fill="#c28d3b"/><path d="M1417.2 1382.4c.309 1.403-.693 2.149-1.499 2.994-1.069.256-1.216-.559-1.468-1.257a4.235 4.235 0 0 1-.067-1.124c.163-1.144.473-2.211 1.562-2.849.49.746.981 1.492 1.472 2.236z" fill="#c38833"/><path d="m1415.8 1380.2-.776 2.982c-1.943-.281-1.542-1.729-1.492-3l1.468-2.243.8 2.261z" fill="#dca557"/><path d="M1418 1374.9c.356-.278.714-.555 1.071-.832.097.259.339.572.267.77-.372 1.012-1.309.745-2.086.827 0-.252 0-.504-.01-.755.252 0 .503-.01.755-.01z" fill="#d39c3f"/><path d="M1413.5 1380.1c1.194.653.281 2.354 1.492 3 .01.25.01.499 0 .75-1.333.964.139 3.465-2.144 3.91-1.391-1.168-1.567-2.769-1.583-4.428.037-.349.114-.691.22-1.025.315-.787.52-1.644 1.268-2.184.248 0 .497-.013.747-.023z" fill="#d09446"/><path d="M1412.7 1380.2c-.038.811.134 1.694-.758 2.214-1.345-.572-1.97-1.504-1.497-2.987h2.239c.01.258.011.517.016.776z" fill="#d49f5e"/><path d="M1408.2 1392.1c-.774-.534.01-.978.085-1.462.997 0 1.422.563 1.478 1.494.376.451.67.943.772 1.534.122.99.068 1.95-.492 2.822-.3.329-.644.381-1.03.157-.295-1.51.609-3.236-.813-4.545z" fill="#deac58"/><path d="M1409 1396.7c.235-.031.472-.051.709-.06.544-.428.28-1.384 1.076-1.651.376 0 .655.163.841.489.254.728.216 1.393-.407 1.934l-.757.759c-.484-.01-.969-.012-1.453-.018 0-.484-.01-.968-.01-1.453z" fill="#c18d40"/><path d="m1412.7 1389.9-2.226.761c-.01-.5-.013-1-.02-1.5.554-.926-.363-2.119.542-2.98 1.938-.618.899 1.468 1.706 1.88.246.26.389.567.43.922a1.508 1.508 0 0 1-.432.917z" fill="#c58c44"/><path d="M1409.8 1393.6c.01-.488.01-.976.016-1.463.24-.013.481-.021.722-.023l2.247.75-.747 1.499c.315.792-.077.904-.733.762l-.038-.015c-.557-.437-.963-1.02-1.467-1.51z" fill="#bb8748"/><path d="M1409.8 1386.9c-.01-.254-.018-.508-.026-.762-.554-.903-.835-1.845-.412-2.888.465-.727 1.042-1.222 1.985-.948.509.91.246 1.895.272 2.852-.675.511-.425 1.983-1.819 1.746z" fill="#b58b4e"/><path d="m1407.5 1384.6.747-3.752c.432-.231.792-.148 1.082.247.524 1.467.072 2.859-.335 4.255l-1.494-.75z" fill="#d29b55"/><path d="M1409 1385.4c.01-1.499.012-2.996.018-4.495.369-.224.702-.179 1 .135.402.759.238 1.454-.237 2.114l-.036 2.978-.745-.732z" fill="#e0aa64"/><path d="m1409.8 1386.9 1.478-1.502c.196.165.264.333.204.503-.061.171-.124.258-.188.258-.114 1.035.337 2.212-.759 2.999l-.735-2.258z" fill="#b48846"/><path d="M1409.7 1380.9h-.738c-.255 0-.51 0-.764-.01l-.737-.767c1.307-1.027.479-2.514.808-3.752.221.01.44.011.66.01.01.751.018 1.502.026 2.254.599.641 1.202 1.279.745 2.267z" fill="#cb984f"/><path d="m1415.7 1386.2.749.731v3.003l-.77-.764c-.736-.997-.884-1.988.026-2.97z" fill="#deab5a"/><path d="M1420.2 1374.9c.249-1.236-.842-2.467-.019-3.706 1.308 1.012.554 2.44.744 3.677a10.31 10.31 0 0 1-.725.029z" fill="#cf9b58"/><path d="m1411.3 1395.2.733-.762c1.1.789.645 1.965.749 3.002-.5.062-1.001.836-1.501 0 .01-.746.013-1.493.019-2.239z" fill="#af773d"/><path d="m1409.7 1380.9-.745-2.267c.821-.381 1.531-.542 1.501.759l1.497 2.987-.029.054c-.244.335-.478.313-.705-.017l-1.495.733c-.01-.75-.015-1.499-.024-2.249z" fill="#ca9b51"/><path d="M1412.7 1389.9c.01-.245.011-.491.011-.737.746-1.064 1.495-1.422 2.25-.01-.01.753-.016 1.506-.023 2.259-1.695.898-1.682-.729-2.238-1.514z" fill="#bc7f3b"/><path d="M1415 1389.1c-.751-.463-1.501-.475-2.25.01v-.756c-.216-.182-.282-.356-.2-.524.081-.163.16-.245.236-.245 1.491-.797-.298-3.54 2.213-3.731.014.618.142 1.178.75 1.498 0 .256 0 .512.01.768-.01.99-.017 1.98-.026 2.971-.241.01-.484.012-.726.011z" fill="#c88c3e"/><path d="m1412.8 1387.6-.037.769-1.493-2.244c0-.254-.011-.507-.016-.761l.027-2.971c.236-.012.471-.01.706.017l.813 5.19z" fill="#b98032"/><path d="M1409.8 1393.6c.948.058 1.478.521 1.466 1.51l-1.491 1.481c.01-.996.017-1.994.025-2.991z" fill="#d2a152"/></g></g></switch></svg>