<svg version="1.0" width="24" height="24" xml:space="preserve" xmlns="http://www.w3.org/2000/svg" xmlns:i="&amp;#38;ns_ai;"><switch transform="matrix(.12502 0 0 .12502 -165.24 -165.32)"><g i:extraneous="self"><g fill-rule="evenodd" clip-rule="evenodd"><path fill="#00913e" d="M1428.986 1514.375h-11.249c-.786-.861-1.138-1.91-1.138-3.042 0-6.137-.501-12.284.388-18.399.594-1.328 1.448-1.363 2.479-.493.513.519.845 1.162 1.185 1.79.203.288.313.707.666.821.227.072.317-.207.143-.512-.6-1.104-1.408-2.162-.504-3.457.171-.26.364-.507.558-.746.48-.632.549-1.287.092-1.967a5.27 5.27 0 0 0-.725-.503c-.616-.268-1.279-.292-1.923-.434-.803-.187-1.488-.53-1.858-1.323-.666-2.393-.881-4.762.344-7.059 3.152-1.022 4.042-3.322 3.652-6.391-.095-.734-.021-1.494-.01-2.241.092-4.485.927-5.772 4.146-6.4 3.546-.692 4.814.181 6.448 4.416.47 1.269.821 2.583 1.172 3.892.688 2.568 1.887 3.788 4.808 2.799 2.883-.976 2.223-2.707 1.529-4.673-.656-1.862-1.237-3.751-1.861-5.624-.723-2.165-.4-3.889 1.803-4.965 4.752-2.159 4.95-2.107 8.013 1.908.906 1.188 1.798 2.387 2.584 3.652 1.256 2.023 2.582 2.766 4.821 1.098 2.103-1.566 2.198-2.968.654-4.947-1.295-1.663-2.503-3.406-3.696-5.148-.908-1.326-1.941-2.672-1.047-4.445 4.952-4.539 5.285-4.556 10.677-.562l2.698 2c1.926 1.423 3.39.947 4.709-.926 1.292-1.833.927-3.201-.859-4.385-1.243-.824-2.446-1.708-3.646-2.597-5.178-3.835-5.277-4.391-1.678-9.851 1.471-1.229 3.053-.749 4.617-.277 2.032.612 4.05 1.274 6.047 1.985 2.001.712 3.304.346 4.052-1.843.748-2.189.392-3.589-1.974-4.309-2.147-.653-4.262-1.422-6.384-2.157-2.925-1.015-3.045-3.109-2.628-5.727.407-2.562 1.648-3.727 4.219-3.713 2.371.015 4.742 0 7.113-.035 2.273-.037 3.014-1.301 3.009-3.379-.01-2.02-.613-3.414-2.909-3.501-2.496-.095-4.992-.044-7.487-.074-2.695-.032-3.624-1.562-3.984-3.985-.359-2.42-.383-4.51 2.355-5.549 2.219-.842 4.464-1.611 6.761-2.199 1.921-.492 2.755-1.46 2.099-3.523-.649-2.04-1.529-3.398-4.013-2.561-2.244.757-4.496 1.494-6.789 2.114-3.126.845-4.15-1.278-5.358-3.416-1.178-2.085-.947-3.763.916-5.264 1.847-1.489 3.755-2.897 5.663-4.302 1.814-1.335 1.791-2.723.569-4.465-1.305-1.859-2.648-1.906-4.407-.644-1.823 1.309-3.634 2.64-5.49 3.906-2.439 1.666-4.396.893-6.313-.993-2.021-1.99-2.314-3.988-.576-6.292 1.353-1.793 2.705-3.586 3.995-5.428 1.168-1.666.868-2.957-.737-4.146-1.681-1.246-3.154-1.392-4.486.45-1.39 1.921-2.755 3.857-4.218 5.726-1.904 2.434-4.004 1.866-6.319.69-2.362-1.201-3.342-2.819-2.395-5.456.716-1.995 1.319-4.034 2.017-6.037.796-2.288-.091-3.471-2.266-4.227-2.184-.758-3.271-.016-3.884 2.071-.596 2.035-1.361 4.019-1.998 6.042-.901 2.868-2.903 3.438-5.576 2.978-2.621-.452-4.492-1.519-4.369-4.565.021-.496-.01.125-.001-.374.033-4.221.884-8.759-4.302-10.943-.917-9.043-.359-18.097-.318-27.145.01-1.013.426-1.931 1.123-2.695h11.249c1.941 1.157 4.146.583 6.212.938 18.236 3.134 34.131 11.106 47.737 23.521 13.604 12.412 22.967 27.53 28.032 45.306 1.276 4.482 1.888 9.021 2.366 13.613.014 1.151 0 2.302.01 3.454.177 1.297-.398 2.669.384 3.906v10.499c-.781 1.225-.206 2.586-.385 3.871 0 1.146.01 2.291-.01 3.437-1.665 18.919-9.419 35.315-21.466 49.636-14.879 17.687-33.774 28.827-56.687 32.858-2.06.363-4.26-.217-6.197.937z"/><path fill="#d9251c" d="M1417.763 1492.104c-.01 7.424-.017 14.848-.025 22.271h-11.999c-1.877-1.366-4.121-.637-6.176-1.059-25.615-5.253-46.17-18.296-61.21-39.757-7.168-10.229-12.013-21.525-14.954-33.681-.822-3.396-.234-6.975-1.649-10.243v-6.749c.634-3 .634-6 0-8.999v-6.749c1.454-2.133.579-4.622 1.051-6.927 5.28-25.762 18.404-46.418 40.083-61.401 11.213-7.75 23.541-13.033 37.048-15.422 1.934-.342 4.051.348 5.808-.989h11.999c.001 10.134 0 20.267.01 30.401-3.655 2.462-2.649 6.24-2.736 9.708-.107 4.265-1.12 5.346-5.177 5.734-2.451.234-4.087-.68-4.974-3.004-.805-2.106-1.41-4.27-1.992-6.44-.597-2.228-1.96-2.584-4.002-1.91-1.998.66-2.961 1.64-2.148 3.864.814 2.226 1.588 4.473 2.186 6.773.703 2.709-.631 4.095-2.933 5.267-2.313 1.177-4.203 1.394-5.966-.782-1.34-1.652-2.48-3.446-3.748-5.149-1.289-1.732-2.574-2.579-4.673-1.077-2.029 1.452-1.956 2.876-.59 4.709 1.267 1.701 2.486 3.442 3.705 5.181 1.149 1.64 1.941 3.294 0 4.947-1.947 1.66-3.623 4.157-6.743 2.308-2.045-1.213-3.859-2.761-5.775-4.158-1.789-1.303-3.1-1.055-4.363.804-1.197 1.761-1.315 3.146.597 4.42 1.662 1.108 3.239 2.34 4.859 3.509 2.62 1.89 2.763 4.085 1.394 6.862-1.401 2.842-3.365 3.373-6.141 2.322-1.75-.662-3.565-1.155-5.33-1.783-2.144-.762-3.546-.332-4.349 2-.821 2.386.114 3.513 2.3 4.136 2.161.616 4.327 1.207 6.453 1.953 3.301 1.158 2.667 3.684 2.414 6.208-.253 2.531-1.725 3.384-4.034 3.43-2.498.05-4.996.01-7.494.053-2.169.038-2.729 1.308-2.707 3.196.022 1.89.233 3.56 2.673 3.675 2.622.124 5.246.015 7.868.093 2.225.066 3.487 1.056 3.667 3.356.173 2.209.979 4.572-1.903 5.774-2.31.964-4.705 1.681-7.08 2.45-2.125.689-2.65 1.929-1.94 4.016.681 2 1.716 2.938 3.9 2.188a227.3 227.3 0 0 1 6.408-2.105c2.023-.628 3.71-.401 4.751 1.69 2.472 4.942 2.473 4.943-2.014 8.326-1.087.818-2.192 1.614-3.265 2.451-2.784 2.173-2.791 2.853-.626 5.666 1.083 1.408 1.958 1.457 3.382.479 2.638-1.812 4.974-4.095 8.02-5.297 3.281.5 5.064 2.662 6.178 5.568-1.35 2.82-3.302 5.253-5.197 7.704-1.55 2.006-.97 3.205.936 4.541 1.931 1.353 3.215 1.381 4.57-.735 1.537-2.401 3.117-4.81 5.265-6.759 2.998-1.482 4.994.561 7.156 2.028 1.558 3.672-.719 6.752-1.699 9.976-.771 2.535-.083 3.691 2.363 4.322 1.994.514 3.019-.161 3.633-2.047.843-2.591 1.431-5.276 2.719-7.721 2.116-2.398 4.664-1.903 7.162-.935 2.45.951 2.343 3.239 2.431 5.35.14 3.363-.754 7.006 2.603 9.485l-.001 7.082c-.28.65-.892.923-1.433 1.274-1.097 1.766-.483 3.692-.523 5.521.01-.033.238.119.238.119s.194-.194.191-.221c.179-.518.366-1.005.806-1.346.322-.126.569-.041.745.255z"/><path fill="#d43c36" d="M1321.75 1413.888c1.195 3 1.195 5.999 0 8.999v-8.999z"/><path fill="#42ae70" d="M1513.097 1427.509c-.119-1.345-.492-2.729.629-3.872v3.749c-.163.283-.371.336-.629.123z"/><path fill="#addbc0" d="M1513.097 1427.509c.217-.01.427-.047.629-.123v3.75l-.798-.029.169-3.598zM1512.928 1405.667l.798-.028v3.75c-.293.361-.502.318-.628-.129l-.17-3.593z"/><path fill="#42ae70" d="M1513.098 1409.259c.22-.01.429.037.628.129v3.75c-1.124-1.145-.749-2.532-.628-3.879z"/><path fill="#fefefe" d="M1373.563 1437.875c-.802-1.811-1.802-2.627-3.982-1.656-2.493 1.111-5.247 1.619-7.797 2.619-1.811.712-2.798.45-3.256-1.521-.281-1.211-.66-2.419-1.167-3.551-.784-1.754-.059-2.456 1.579-2.935 2.873-.842 5.659-2.007 8.559-2.716 3.373-.824 1.458-3.063 1.48-4.753.024-1.73-.278-3.207-2.677-3.059-2.612.162-5.275-.229-7.856.097-4.048.509-3.513-2.021-3.664-4.575-.171-2.884.351-4.547 3.755-4.075 1.838.254 3.765-.15 5.607.088 3.35.432 4.956-.51 5.143-4.233.108-2.164-.069-3.141-2.254-3.68-2.657-.655-5.195-1.789-7.847-2.474-2.136-.552-2.585-1.552-1.675-3.482.475-1.006.763-2.113 1.034-3.2.421-1.696 1.271-2.203 2.986-1.539 2.207.855 4.494 1.503 6.748 2.238 3.638 1.185 6.445-.607 6.825-4.295.136-1.315-.895-1.679-1.648-2.241-2.299-1.72-4.58-3.475-6.982-5.042-1.646-1.074-1.951-2.096-.531-3.512.087-.087.146-.202.217-.305 3.196-4.61 3.196-4.611 7.643-1.379 1.212.88 2.553 1.632 3.603 2.677 2.154 2.143 3.683 1.816 5.779-.357 1.811-1.877 2.41-3.085.48-5.156-1.521-1.632-2.543-3.723-4.036-5.387-1.941-2.164-1.797-3.5.753-5.159 4.069-2.646 3.954-2.825 6.91 1.251.953 1.313 2.07 2.542 2.817 3.964 1.396 2.655 2.919 2.898 5.583 1.442 2.303-1.258 3.194-2.29 2.058-4.849-1.008-2.269-1.458-4.781-2.416-7.077-.928-2.222-.225-3.21 1.968-3.643.971-.191 1.935-.53 2.836-.945 1.772-.817 2.705-.306 3.234 1.566.813 2.88 1.925 5.678 2.681 8.571.697 2.668 2.521 1.875 4.137 1.541 1.643-.34 3.982.182 3.698-2.899-.217-2.352.202-4.771-.101-7.105-.418-3.233.76-4.601 3.958-4.328 3.693-.448 5.213 1.059 4.572 4.823-.248 1.458-.04 2.992-.04 4.492.001 4.808.283 5.029 5.233 5.321 1.384.082 2.045-.264 2.413-1.612.56-2.045 1.311-4.037 1.967-6.057 1.592-4.897 4.086-5.69 8.465-2.844 1.232.8.812 1.668.526 2.575-.898 2.858-1.678 5.773-2.841 8.524-1.189 2.814.947 3.118 2.53 3.888 1.552.754 3.056 2.406 4.62-.274 1.441-2.47 3.418-4.621 4.965-7.037 1.187-1.852 2.292-1.941 3.82-.496.721.681 1.559 1.27 2.425 1.755 1.815 1.017 2.091 2.064.673 3.776-1.908 2.305-3.438 4.924-5.355 7.22-1.698 2.033-.064 2.93 1.113 3.854 1.243.977 1.873 3.711 4.407 1.695 2.345-1.864 4.931-3.429 7.234-5.338 1.695-1.405 2.748-1.189 3.773.642a13.734 13.734 0 0 0 1.761 2.422c1.364 1.521 1.389 2.641-.51 3.845-2.422 1.535-4.567 3.513-7.017 4.995-2.313 1.4-1.349 2.778-.417 4.308.939 1.542 1.067 4.058 4.118 2.756 2.631-1.122 5.487-1.705 8.159-2.743 1.847-.719 2.792-.306 3.257 1.586.297 1.21.637 2.43 1.142 3.563.774 1.738.134 2.434-1.556 2.91-2.881.813-5.666 1.98-8.564 2.714-2.313.586-2.249 1.929-1.663 3.639.555 1.622-.619 4.346 2.831 4.122 2.737-.177 5.524.219 8.237-.096 3.716-.431 3.308 1.886 3.253 4.18-.054 2.293.67 4.996-3.337 4.479-2.089-.27-4.264.145-6.361-.093-3.064-.348-4.404.545-4.728 3.879-.242 2.493.035 3.685 2.58 4.186 1.824.36 3.578 1.098 5.35 1.706 5.521 1.896 4.621.752 3.133 6.278-.719 2.668-1.737 3.342-4.394 2.288-3.11-1.234-6.405-2.014-9.644-2.905-.319-.088-.802.416-1.208.646-.805.315-1.287-.102-1.68-.732-.208-.886.145-1.667.441-2.46.381-1.039.873-2.055.625-3.214-.117-.29-.228-.58-.36-.86-.564-1.094-1.582-1.464-2.688-1.689a5.594 5.594 0 0 1-.919-.305c-1.186-.517-2.02-1.547-3.151-2.145-.738-.365-1.535-.582-2.281-.932-.969-.543-1.767-1.195-1.543-2.479 1.039-2.953 4.242-4.577 4.799-7.828a9.79 9.79 0 0 1 .239-1.033c.586-1.74.154-3.578.514-5.338.266-1.248.851-2.346 1.6-3.362 1.037-1.23 2.019-2.49 2.025-4.217.021-1.048.079-2.104-.713-2.957-.222-.208-.438-.419-.668-.616-.764-.595-1.689-.838-2.562-1.202a5.813 5.813 0 0 1-2.337-1.963c-.561-.876-.927-1.842-1.284-2.81-1.974-3.67-3.098-4.218-6.324-3.07-.559.666-1.056 1.392-1.872 1.781-1.012.425-2.08.431-3.147.435-1.709.369-3.308-1.301-5.048-.26-.539.624-.761 1.482-1.486 1.955-.973.538-2.023.532-3.082.462-1.14-.175-1.88.13-1.762 1.469.027 1.522.617 2.897 1.103 4.299.34 1.167.794 2.308.837 3.545 0 .349-.042.695-.108 1.038a17.164 17.164 0 0 0-.484 2.504c-.459 1.935-.863 3.868.016 5.799.253.94.666 1.803 1.26 2.577.703.894 1.364 1.813 1.698 2.919.2.804.747 1.397 1.252 2.018 1.318 1.651 1.981 3.324.157 5.073-.595.701-1.292 1.262-2.158 1.595-2.809.843-5.014 2.671-7.251 4.445-1.144.907-2.081 2.225-3.833 1.932-2.754-1.255-1.551-4.099-2.461-6.094-1.973-6.054-5.802-8.067-11.949-6.299-1.411.405-2.647 1.369-4.203 1.31-.747-.081-1.398-.4-2.017-.802-.895-.907-2.265-1.044-3.177-1.932-.32-.476-.481-1.005-.542-1.571-.097-1.591.478-2.946 1.461-4.154 1.822-2.096 2.697-4.416 1.681-7.182a7.572 7.572 0 0 1-.216-1.093c-.107-1.33-.101-2.653.167-3.963.568-3.834 1.134-7.668-.26-11.448-1.26-.864-2.662-1.459-3.999-2.171-1.358-.744-2.971-.255-4.349-.885-.667-.221-.978-1.116-1.844-.955-1.282 1.299-3.064 1.176-4.614 1.695-.437.208-.886.389-1.347.534-.926.14-1.761.41-2.067 1.454a9.19 9.19 0 0 1-.468.904c-.387 4.061-.535 8.109.14 12.147.201.913.216 1.83.055 2.747-.387 1.614-.868 3.227-.101 4.865.381.532.864.98 1.252 1.509.839 1.667 1.339 3.476 2.173 5.147.058.354.026.7-.087 1.041-.369.639-.938 1.019-1.62 1.25-1.341.466-2.976-.082-4.087 1.188-.935.921-1.982 1.695-3.08 2.405-.544.371-1.117.691-1.719.962-1.154.456-2.077 1.107-2.151 2.491-.126 1.365-.07 2.729 0 4.094.294 2.367 1.471 4.481 1.938 6.8.131.767.125 1.525-.126 2.271-.261.551-.603.985-1.309.863z"/><path fill="#fafbfb" d="M1417.737 1479.423c-3.119.229-4.416-1.045-3.957-4.291.292-2.06.126-4.196.028-6.292-.062-1.331.722-3.327-1.604-3.45-2.172-.114-4.848-2.259-6.37 1.21-1.349-1.399-.939-2.737.14-4.053.49-.408 1.065-.616 1.688-.698 1.716-.079 3.342.719 5.073.539.369-.013.738 0 1.106.01.551 0 1.103.01 1.656.01.373-.02.744-.02 1.116-.02.568-.017 1.134-.02 1.703-.022 2.51-.125 5.047.303 7.523-.427a6.674 6.674 0 0 1 2.384-.165c.578.09 1.106.295 1.546.685 1.332.252-1.61.674.142 1.475 2.226 1.017 2.768 3.252 1.284 5.555-1.569-1.509-.271-5.445-4.695-4.703-3.383.567-4.81 1.636-4.254 5.094.232 1.445-.135 2.984.073 4.438.52 3.621-.536 5.661-4.582 5.11zM1461.361 1435.632l1.307.741c-2.27 5.237-2.27 5.237 2.338 8.586.705.512 1.408 1.025 2.115 1.535 4.675 3.37 4.726 4.894.452 8.891-.776.726-1.371.954-2.234.306-.895-.673-1.827-1.298-2.715-1.979-3.662-2.811-7.199-6.64-11.786-1.348-.518-.342-.693-.854-.723-1.441.066-1.178.762-2.023 1.5-2.847 1.485-1.531 3.229-2.854 4.041-4.94.105-.305.238-.598.385-.885.22-.426.504-.807.822-1.163a24.31 24.31 0 0 0 1.153-1.479c1.276-1.191 1.727-3.077 3.345-3.977z"/><path fill="#f9fbfa" d="m1450.662 1450.478.176 1.886c.547 4.079 3.629 6.701 5.956 9.606 2.793 3.485-.364 4.033-1.986 5.488-1.88 1.686-3.579 2.549-5.116-.493-.773-1.532-2.204-2.733-2.972-4.268-1.684-3.365-3.899-4.364-7.179-2.178a1.684 1.684 0 0 1-1.146-.909 2.163 2.163 0 0 1-.052-.999c.182-.495.529-.842.979-1.097 1.028-.48 2.095-.895 3.006-1.602 2.909-1.612 4.8-4.787 8.334-5.434z"/><path fill="#fafcfb" d="m1438.592 1459.575.949.945c-1.677.834-2.164 1.968-1.418 3.837 1.053 2.639 1.76 5.414 2.738 8.086.645 1.761.397 2.804-1.633 3.17-1.084.195-2.143.623-3.162 1.063-1.974.854-2.976.193-3.412-1.85-.385-1.803-.965-3.564-1.459-5.343-.175-2.514.355-5.485-3.708-5.444.452-1.08 1.972-.402 2.199-1.563-.173-.818.246-1.307.92-1.656 1.365-.146 2.663-.513 3.855-1.223 1.375-.57 2.75-1.191 4.131-.022z"/><path fill="#ddefe5" d="M1477.889 1367.981c1.904.834 3.96-.962 5.275 1.7-3.229 1.045-7.031.44-9.557 3.218-.273.301-.913-.107-1.13-.622-.224-.533-.05-1.02.395-1.288 2.325-1.404 3.025-3.767 3.817-6.129.212-.63-.029-2.106 1.383-1.604.947.337.992 1.278.632 2.207-.308.794-.529 1.622-.815 2.518z"/><path fill="#d6ebe0" d="M1444.949 1486.602c-.714 1.673-4.066.794-3.623 2.593.684 2.778 3.28-1.191 4.657.969-1.239 1.775-4.144 2.879-5.431 2.103-2.353-1.419-2.295-4.893-3.149-7.488-.613-1.864 1.893-1.181 2.836-1.895.457.224.902.462 1.016 1.021-.037 1.195.741 1.246 1.662 1.273.936.028 2.006.028 2.032 1.424z"/><path fill="#daede2" d="m1460.499 1478.387-1.332 2.019c1.38.996 3.338-.823 4.051.946.353.875-.789 1.649-1.954 1.585-.677-.057-1.183.199-1.49.816-2.625-1.374-3.623-4.11-4.831-6.453-.819-1.59 1.054-2.583 2.576-3.119.421.302.718.681.754 1.221-.144.814-1.7 1.149-1.104 1.902.407.513 1.701.323 2.599.446.345.094.589.307.731.637z"/><path fill="#ddeee6" d="M1472.958 1358.479c-4.139-1.104-4.827 2.531-7.037 3.913-.705.441-1.106 2.121-2.237.907-.836-.897.06-1.793.742-2.532 1.459-1.576 3.501-2.723 3.538-5.31.015-1.046.918-1.095 1.594-.582 1.131.86 2.404 1.641 3.4 3.604z"/><path fill="#eff8f4" d="M1425.89 1340.136c-.144-.178-.127-.338.052-.482.626-1.323.546-3.607 3.113-2.286 1.307.025 2.681-.199 3.658 1.012.613 1.161.576 2.325.021 3.492l-.761.773c-1.401.859-3.035-.039-4.467.591-.979.524-.563 1.491-.765 2.276-.314 1.223-.909 1.282-1.527.138.971-1.746-.068-3.739.676-5.514z"/><path fill="#e6f3ed" d="M1453.661 1484.367c.208 1.149.992 2.493-.52 3.239-1.354.668-2.239-.447-3.118-1.267-1.506-1.402-2.997-2.82-4.494-4.231-.508-.489-.48-.977.01-1.463 2.189-.163 2.816 1.923 4.178 2.943.81.607 1.403 1.813 2.438.32-.666-1.27.181-2.782-.649-4.026-.109-.523-.541-1.369.339-1.341.825.027 1.422.777 1.23 1.795.622 1.281-.11 2.761.591 4.031z"/><path fill="#d8ede2" d="M1441.623 1348.084c-1.04-.106-2.129-.794-3.049.343-.618.766-1.446 1.095-2.167.256-.669-.778.228-1.295.643-1.791 1.483-1.771 3.021-3.495 4.539-5.236.952.093 1.654.507 1.919 1.484.027 1.051-1.003 2.072-.09 3.157.103.325.086.644-.028.96-.443.592-1.131.653-1.767.827z"/><path fill="#daeee3" d="M1454.406 1351.776c-1.133-.249-1.437.635-1.885 1.353-.484.777-.835 2.129-2.094 1.266-1.185-.812-.079-1.75.307-2.555.685-1.436 1.573-2.781 2.172-4.248 1-2.452 2.284-2.369 3.91-.654.233.268.309.57.203.913-.754.864-1.355 1.807-1.481 2.989a1.61 1.61 0 0 1-1.132.936z"/><path fill="#d8ece2" d="M1467.979 1473.09c-1.754 1.736 1.085 2.654.645 4.443-3.303-.521-4.908-3.194-6.409-5.572-.923-1.464.873-1.854 2.074-2.097.941.817 1.896 1.611 3.121 1.99.438.3.775.645.569 1.236z"/><path fill="#f7fdfb" d="M1425.303 1493.229c.133-.216.11-.416-.066-.6-.686-1.002-.238-2.13-.357-3.194.389-1.074-.152-2.18.107-3.261.348-.538.875-.676 1.473-.658 1.347.105 2.723-.257 4.042.26l1.498 1.575c.481.874.625 1.712-.262 2.438-2.053-.738-4.319-1.965-4.386 1.901-.234.693-.58 1.312-1.156 1.782-.368.18-.667.099-.893-.243z"/><path fill="#eaf4ef" d="m1467.979 1473.09-.931-.77c-.256-1.345-1.344-2.048-2.234-2.902 1.123-3.056 2.927-1.567 4.638-.695.441 1.719.486 3.78 3.118 3.604 1.047.785.901 1.453-.326 1.682-1.508.281-2.881-.423-4.265-.919z"/><path fill="#f5f5f1" d="m1415.509 1486.75 2.228-.245 2.215.239c.123 1.198-.918 1.219-1.592 1.598-.36.201-.614.441-.283.877.678.349 1.451.321 2.118.648.473.277.774.655.749 1.233-.807.572.064 2.38-1.67 2.266l-1.511-1.263-.125-.301c-2.015.392-.428 2.294-1.322 3.156v.035c-2.003-.284-1.131-1.868-1.136-2.858-.01-1.789-.479-3.637.331-5.385z"/><path fill="#0f9346" d="M1444.949 1486.602c-.773-1.253-1.954-.812-3.003-.643-.795.128-1.687 1.004-2.256-.141-.735-1.479 1.261-1.163 1.519-2.042.648-1.01 1.527-.912 2.47-.516l.383.416c.569.893 2.25 1.449.887 2.926z"/><path fill="#fefefe" d="m1454.406 1351.776 1.021-.991c1.113-.336 2.352-.448 2.966-1.669.336-.394.697-.724 1.268-.444 1.761 1.303.39 2.476-.152 3.683-1.626.372-2.781 1.059-2.442 3.066.135.795.09 1.761-1.209 1.651l-.011-.048c-.731-1.421.531-3.227-.871-4.519l-.57-.729z"/><path fill="#e6f3eb" d="m1443.246 1347.157-.127-.98c-.725-.816-.278-1.649-.038-2.479l-1.492-2.041c.418-1.088 1.229-1.69 2.294-1.132 1.531.803.973 2.306.883 3.611-.925.795.846 2.949-1.52 3.021z"/><path fill="#279b56" d="M1464.814 1469.418c1.694.236 4.81-.622 2.234 2.902-2.158.574-2.98-.354-2.76-2.455.177-.149.352-.298.526-.447z"/><path fill="#fefefe" d="M1443.246 1347.157c1.187-.666.297-2.375 1.52-3.022.166.178.19.374.074.587-.037 2.152 1.464 4.557-1.031 6.307-.786-.939-.774-2.47-2.186-2.945.325-.687.937-.872 1.623-.927z"/><path fill="#e1f1e8" d="M1431.301 1489.617c.84-.568.599-1.469.698-2.266 1.445 2.007 1.618 4.035.103 6.092-.827.312-1.169-.231-1.479-.836-.306-1.117-.294-2.162.678-2.99z"/><path fill="#dcede5" d="m1419.273 1493.367 1.392-2.285c.271-.218.53-.206.78.034-1.357 1.699 1.384 2.304 1 3.742-.769 1.885-1.622 1.055-2.48.078l-.692-1.569z"/><path fill="#ddeee5" d="M1455.856 1357.071c.76-.563.941-1.377.832-2.231-.29-2.258 1.021-2.633 2.819-2.486-1.569.811-2.408 1.83-1.99 3.844.311 1.493.012 1.555-1.661.873z"/><path fill="#cfe8dc" d="M1443.809 1351.029c1.864-1.854.214-4.282 1.031-6.307.803 1.851.587 3.827.605 5.752.014 1.359-.773 1.294-1.636.555z"/><path fill="#d0e8db" d="m1431.086 1492.388 1.016 1.055c-.1.996-1.426.494-1.643 1.347-.615.708-1.396.408-2.138.355-.758-.386-1.192-.94-.959-1.842 1.081-.952 2.337-1.199 3.724-.915z"/><path fill="#16974d" d="M1428.23 1494.865c.742-.025 1.485-.051 2.229-.075-4.03 1.858-4.717 1.65-5.156-1.561.178.146.363.283.556.41.916.164 1.601.778 2.371 1.226z"/><path fill="#0f9346" d="M1445.534 1480.645c0 .487 0 .976-.01 1.463l-1.469 1.568-.256-.229c-.757-.779-2.011-.373-2.764-1.16 1.059-1.75 3.071-.89 4.494-1.642z"/><path fill="#e0eee5" d="m1421.445 1491.116-.779-.034-.65-.692c-.594-.841-.102-1.555.266-2.285.304-.419.705-.686 1.222-.768.224.032.45.052.677.06.486 1.25.938 2.499-.254 3.633a7.039 7.039 0 0 0-.482.086z"/><path fill="#eefbf5" d="M1441.041 1482.288c.805.663 3.008-2.004 2.764 1.16l-2.596.329c-.323-.299-.646-.597-.97-.894l.802-.595z"/><path fill="#bde1cc" d="M1472.57 1472.328c-3.126.604-3.348-1.306-3.118-3.604.984 1.249.831 3.481 3.118 3.604z"/><path fill="#16974d" d="M1419.965 1494.936c.835.238 1.71 1.765 2.48-.078.545.185 1.437.624.762 1.066-1.208.792-2.695 1.072-3.242-.988z"/><path fill="#ddefe3" d="m1421.503 1487.336-.947.863c-.86.752-1.776.763-2.733.2-.325-.322-.351-.668-.075-1.036.774-.063 1.622.131 2.204-.619.645-.138 1.271-.227 1.551.592z"/><path fill="#dff0e7" d="M1429.055 1337.369c-1.933-.457-2.183 1.377-3.113 2.286-.225-2.482.222-4.049 3.113-2.286zM1425.89 1340.136c-.06 1.858.764 3.825-.676 5.514-.091-1.877-.064-3.739.676-5.514z"/><path fill="#ddeee5" d="m1459.66 1348.671-.825.945c-1.106.057-1.979-.23-2.187-1.492l.168-1.188c1.276.042 2.257.566 2.844 1.735z"/><path fill="#f7f9fa" d="M1458.272 1475.402c-.252-.406-.503-.813-.754-1.221.884-.156 2.174-.831 2.534.059.332.819-.895 1.154-1.78 1.162z"/><path fill="#16974d" d="m1425.971 1485.818-.863.756c.057.423.059.84-.122 1.241a.88.88 0 0 1-.663.451c-1.136-1.968-.29-2.852 1.701-3.109.233.167.303.32.21.461-.089.132-.176.2-.263.2z"/><path fill="#41aa6e" d="M1425.971 1485.818c0-.222.02-.442.053-.662 1.494.194 3.146-.758 4.478.62-1.512.014-3.022.027-4.531.042z"/><path fill="#16974d" d="m1425.207 1488.884.029 3.745c-1.365-1.233-.497-2.933-.913-4.364.101-.078.2-.16.3-.242.564.037 1.068.113.584.861z"/><path fill="#ddeee5" d="M1454.975 1352.504c1.825 1.21.835 2.963.871 4.519-1.087-1.353-.453-3.037-.871-4.519z"/><path fill="#dff0e7" d="M1427.506 1343.237c1.369-1.099 2.979-.379 4.467-.591-1.313 1.529-2.955.571-4.467.591z"/><path fill="#e1f2e9" d="M1451.5 1479.882c1.229 1.179.603 2.656.649 4.025-.631-1.274-.745-2.632-.649-4.025zM1453.661 1484.367c-1.146-1.203-.556-2.662-.592-4.03.629 1.279.709 2.64.592 4.03z"/><path fill="#f9fdfb" d="M1459.773 1483.753c-.045-.495-.753-1.097.046-1.45.548-.242 1.112.075 1.444.634-.357.526-.827.846-1.49.816z"/><path fill="#dff0e7" d="M1432.733 1341.873c-.01-1.165-.014-2.328-.021-3.492 1.23 1.157 1.362 2.321.021 3.492z"/><path fill="#16974d" d="M1421.926 1491.029c.606-1.175.777-2.379.254-3.633 1.214 1.301 1.432 2.533-.254 3.633z"/><path fill="#f9fbfa" d="m1460.499 1478.387-.732-.637c.643-.149 1.187-1.355 1.755-.659.544.666-.524.954-1.023 1.296z"/><path fill="#fdfcfc" d="M1391.463 1459.578c-1.482 2.141-3.177 4.168-4.396 6.449-1.811 3.39-3.477 3.328-6.481 1.092-2.72-2.023-2.939-3.322-.756-5.729 1.992-2.195 3.627-4.716 5.42-7.092.371-2.573-2.705-2.92-3.191-4.94-.01-.347.079-.666.252-.965 1.2-.608 1.876.326 2.679.896.384.318.76.647 1.153.955 1.232.841 2.374 1.794 3.484 2.78 1.171 1.473 2.248-.657 3.392-.096 1.15 1.379.132 3.177.898 4.632-.232 1.385-2.148.72-2.454 2.018z"/><path fill="#fdfcfc" d="M1382.496 1448.373c0 .262-.01.523-.011.785-1.005.621-1.982-1.125-2.993-.034-2.684 2.019-5.421 3.971-8.029 6.083-1.543 1.248-2.595 1.126-3.503-.616a3.593 3.593 0 0 0-.659-.905c-2.726-2.656-2.763-4.863.927-6.688 1.212-.599 2.152-1.739 3.357-2.359 3.104-1.6 4.5-3.575 1.978-6.764l.711-.813c.302-.206.623-.229.96-.102 1.559 1.135 2.274 2.902 3.322 4.422.609.976 1.449 1.778 2.105 2.718.563.794 1.065 1.627 1.584 2.451.293.576.674 1.146.251 1.822zM1406.488 1462.638c-.743 1.233-.86 2.57-.654 3.962-.836 2.858-1.739 5.698-2.485 8.579-.524 2.023-1.631 2.002-3.34 1.502-5.625-1.647-5.643-1.59-3.813-7.13.546-1.654 1.103-3.306 1.648-4.96.35-1.061.8-2.116.281-3.253-.343-1.188.543-1.386 1.333-1.666 2.635.293 5.337.435 7.03 2.966z"/><path fill="#f3e7e5" d="M1382.374 1351.656c1.368 2.768-1.124 7.146-4.134 7.291-.76.037-1.104-.459-1.439-.98-.744-1.154-1.643-2.25-2.153-3.501-.586-1.438-3.158-2.748-1.297-4.393 1.803-1.595 4.091-3.588 6.882-1.314.44 1.167.476 2.634 2.141 2.897z"/><path fill="#f4e5e4" d="M1376.221 1360.546c-3.755.022-6.669.347-5.899 4.633.036.199-.417.62-.715.72-.818.274-1.045-.411-1.25-.972-.89-2.437-1.728-4.892-2.637-7.321-.357-.954-.182-1.655.638-2.251.756-.55 1.564-.298 2.028.201 1.971 2.115 4.988 2.5 7.835 4.99z"/><path fill="#f0dad8" d="M1395.199 1486.613c.19-.451.303-.961.588-1.342.681-.909.86-2.625 2.572-2.098 1.635.504 1.068 1.992 1.094 3.171.013.593 0 1.185 0 1.792 1.85-.313 1.365-3.135 3.744-2.973-.181 2.6-2.067 4.457-2.869 6.734-.235.669-.691 1.391-1.621 1.222-1.077-.195-1.266-1.019-1.252-1.957.017-1.114.132-2.245-.023-3.337-.177-1.244-.814-.213-1.255-.125-.584-.131-.881-.52-.98-1.087z"/><path fill="#f2e0dd" d="M1401.85 1347.867c-4.015 2.696-6.202 2.155-7.367-2.179-.483-1.798-2.734-4.638-.474-5.419 2.051-.709 1.709 2.849 2.316 4.498.79 2.143 1.748 3.202 4.047 2.166.669.033 1.167.335 1.478.934z"/><path fill="#f4e4e2" d="M1384.655 1344.696c.481-2.161 2.254-2.532 3.861-2.139 2.353.574 4.257 1.974 4.565 4.723.281 2.503-.355 4.449-3.078 5.153-.448-.362-.614-.854-.652-1.406.558-4.883.3-5.254-3.948-5.667a1.202 1.202 0 0 1-.748-.664z"/><path fill="#f6eeeb" d="m1387.063 1485.324.805 1.06c.049 1.038 1.1 2.48-1.062 2.623-.103-.07-.272-.121-.299-.213-1.512-5.274-1.51-5.274-5.449-1.938.396-3.355 2.025-5.88 3.724-8.03.977-1.237 2.767-.251 2.914 1.788-2.204 1.158-.534 2.034.22 2.979.223.825-.56 1.157-.853 1.731z"/><path fill="#fafcfb" d="m1404.267 1340.396-.133-1.345c.01-1.696.897-1.299 1.84-.779.598 1.766 1.701 2.916 3.686 2.981.33.159.592.393.791.699-.345 1.732 1.418 2.108 2.068 3.203.287.483.944.827.238 1.509-.671.649-1.04.135-1.523-.227-1.314-.983-1.831-3.027-3.931-2.964-1.083.707-.365 1.733-.462 2.614-.134 1.208-.6 1.807-1.844 1.045l-.061-1.376c-.838-1.71.246-3.659-.669-5.36z"/><path fill="#f4e2e0" d="m1395.199 1486.613.979 1.088c-.319.664-.581 1.367-.974 1.985-.503.792-.792 2.047-2.068 1.777-1.558-.33-1.108-1.702-1.106-2.749 0-1.486.033-2.979.187-4.455.09-.86-.482-2.343 1.019-2.321 1.471.021.727 1.498 1.044 2.307.305.781-1.78 2.587.919 2.368z"/><path fill="#f3e1e0" d="M1401.85 1347.867c-.674-.025-1.192-.295-1.477-.934.539-2.444-.719-4.559-1.248-6.806-.18-.767-.219-1.544.697-1.805.975-.278 1.356.492 1.424 1.231.252 2.767 2.99 5.362.604 8.314z"/><path fill="#fbfdfc" d="M1389.978 1350.841c.01.531.018 1.061.026 1.592-3.049 1.449-5.332.458-6.531-2.494-.731-1.802-2.279-4.207 1.183-5.243l.146.249c1.187 2.437 1.425 5.709 5.176 5.896z"/><path fill="#f7f3f1" d="M1407.158 1486.463c.904-1.208 2.128-1.218 2.554.083a38.59 38.59 0 0 1 1.646 7.711c.094.849-1.492 1.03-1.719.215-.387-1.393-1.291-1.644-2.377-1.899-.426-1.024 1.067-1.528.67-2.535-.194-.427-.441-.817-.684-1.213-.42-.774-.488-1.56-.09-2.362z"/><path fill="#f1dbdb" d="m1407.158 1486.463.831 2.451c.03.543.304.788.853.698 1.897 2.278-1.046 1.977-1.579 2.96-.365.047-.729.124-1.095.136-1.207.038-1.472 2.699-2.808 1.403-1.067-1.035.508-2.345 1.029-3.424.726-1.502 1.828-2.824 2.769-4.224z"/><path fill="#f0dcda" d="M1369.208 1469.531c-.535.972.892 2.61.233 2.605-2.031-.016-3.126 1.753-4.739 1.99-1.147.169-.959-1.091-.302-1.866 1.263-1.49 2.54-2.97 3.811-4.454.711.357.952.985.997 1.725z"/><path fill="#f1e1df" d="M1362.254 1371.097c-1.629-1.426-3.27-2.841-4.881-4.287-.522-.469-1.228-.974-.551-1.803.847-1.038 1.517-.236 2.133.309 1.368 1.208 2.696 2.46 4.04 3.694.443.941-.088 1.535-.741 2.087z"/><path fill="#f5e8e6" d="M1374.224 1482.191c-2.102-1.369-3.054-3.205-1.693-5.518 1.356-2.303 3.136-4.104 6.21-2.792.268 1.513-1.16 1.482-1.885 2.093-2.564 1.082-2.025 3.35-2.059 5.399a1.695 1.695 0 0 1-.573.818z"/><path fill="#f2e1df" d="m1374.224 1482.191.158-1.082c2.103-.586 3.79-1.987 5.72-2.916.762.333.873 1.035.988 1.735-1.432 3.352-3.678 4.237-6.866 2.263z"/><path fill="#e7e5e5" d="M1399.795 1460.342c-.706.083-1.347.272-1.67.996-2.382.023-3.896-3.239-6.662-1.761-.133-1.613 1.887-1.204 2.227-2.372.155-.081.309-.162.463-.245 2.24-.038 3.952 1.16 5.643 2.411a.88.88 0 0 1-.001.971z"/><path fill="#d44840" d="M1387.737 1483.645c-1.341-.372-3.179-.498-2.779-2.45.298-1.455 1.701-.883 2.739-.582.514 0 1.027.01 1.542.013.838 1.672.741 2.879-1.502 3.019z"/><path fill="#f2dfde" d="M1405.702 1338.878c-.63-.922-1.111-.487-1.568.172-.488-2.755 1.637-1.439 2.72-1.747 1.337-.29 2.675-.572 3.988.104 1.392 1.646 1.82 3.208-.392 4.543l-.971-.084a1.02 1.02 0 0 1-.355-.76c.02-.54.097-1.089-.208-1.583-.436-.454-.984-.359-1.522-.323a4.969 4.969 0 0 1-.907.101 1.152 1.152 0 0 1-.785-.423z"/><path fill="#f2e4de" d="M1379.491 1449.124c1.015-1.496 2-.339 2.993.034.954 1.076 1.92 2.141 2.857 3.23.554.645 1.273 1.339-.091 1.91-1.336-2.375-2.722-4.693-5.759-5.174z"/><path fill="#f3eae8" d="M1387.737 1483.645c1.565-.478 1.244-1.892 1.501-3.02 1.285.309 1.915 1.223 1.542 2.403-.541 1.711-2.055 2.207-3.716 2.295l.673-1.678z"/><path fill="#f2dbda" d="M1415.509 1486.75c.423 2.732-.934 5.639.805 8.243-.598.83-1.483.76-1.476-.144.021-2.703-.833-5.515.671-8.099z"/><path fill="#f1e1df" d="M1363.727 1369.007c1.309-.542 1.787-2.327 3.79-2.487-.116 2.092-1.513 2.981-2.769 3.961-1.416.254-1.435-.46-1.021-1.474z"/><path fill="#eed3ce" d="M1376.479 1475.304a2812.4 2812.4 0 0 0 2.262-1.423c1.212.26 2.093.886 2.391 2.159-.146.551-.485.924-1.029 1.106-1.459-.115-2.715-.637-3.624-1.842z"/><path fill="#f8fbf9" d="M1369.208 1469.531c-.72-.351-.923-1-.997-1.725 1.441-1.457 2.297-.538 3.061.754.186.208.24.408.165.602-.074.19-.145.285-.212.285-.673.028-1.345.055-2.017.084z"/><path fill="#df8b85" d="M1404.996 1347.132c1.766.027 1.703-.922 1.105-2.113-.695-1.386-.144-1.764 1.201-1.546-.016.953.049 1.915-.064 2.855-.201 1.653-.955 2.04-2.242.804z"/><path fill="#f9faf9" d="m1380.074 1477.096 1.058-1.056c.939 1.306.914 2.602-.042 3.888-.717-.358-.796-1.072-.968-1.735-.305-.353-.307-.719-.048-1.097z"/><path fill="#f6fcf9" d="M1363.727 1369.007c.067.681.31 1.24 1.021 1.474-.344 2.18-1.418 1.401-2.494.615l.74-2.086h.733z"/><path fill="#f2dfde" d="M1404.267 1340.396c1.346 1.646.647 3.548.668 5.36-.763-1.719-.775-3.532-.668-5.36z"/><path fill="#f7f6f2" d="m1371.224 1469.447.047-.887c.94.161 1.901.313 2.146 1.46.037.173-.148.545-.292.581-.996.253-1.526-.338-1.901-1.154z"/><path fill="#f2dbda" d="M1416.316 1494.959c-.243-3.162-.243-3.162 1.323-3.156-1.339.677-.422 2.297-1.323 3.156z"/><path fill="#f0dcda" d="M1382.374 1351.656c-2.274.186-2.192-1.367-2.141-2.898l2.141 2.898z"/><path fill="#efd7d4" d="m1410.842 1337.408-3.986-.105c1.342-.553 2.686-1.071 3.986.105z"/><path fill="#efcfce" d="M1386.807 1489.006c1.063-.587.818-1.704 1.062-2.622.555.984.938 2.048.173 3.023-.295.377-.895-.01-1.235-.401z"/><path fill="#305691" d="m1444.727 1387.974.814-1.758c3.424-1.242 5.442.685 7.206 3.191.117 1.535.856 2.682 2.172 3.468l1.81 1.631c.748 1.072 1.885 1.255 3.064 1.342l-.031-.022c.775 1.055.639 2.331.858 3.52-.035 1.868-1.636 3.06-2.064 4.761-.236.246-.517.42-.836.535-.336.042-.67.027-1.001-.042-.642-.183-1.246-.465-1.858-.725-1.299-.188-2.419-2.439-3.909-.313-.306.145-.627.2-.962.187-1.408-.233-2.494-1.605-4.097-1.149-1.885.936-3.999-1.822-5.805.38-2.42-.824-5.331 1.696-7.469-1.088-.844-1.345-1.37-2.817-1.729-4.354.134-2.538 2.857-3.123 3.802-5.051.128-.497.31-.968.588-1.4.271-.449.59-.85 1.059-1.108 1.384-.668 2.757-1.39 4.378-1.165 1.487.442 2.865.357 4.01-.84z"/><path fill="#e2e2e2" d="m1384.752 1385.357.347-.742c4.201-.063 8.402.053 12.604-.01 1.096.889 2.686 1.013 3.538 2.281 1.747 1.262.326 3.046.747 4.527.056 1.429-.146 2.87.194 4.287.109.352.115.704.02 1.059-.54 1.238-.076 3.05-1.994 3.501a3.898 3.898 0 0 1-1.057-.028c-1.479-.36-2.873-1.054-4.423-1.156a8.443 8.443 0 0 1-1.002-.153 8.854 8.854 0 0 1-.979-.242c-1.456-.47-2.922-.485-4.398-.094a9.739 9.739 0 0 1-.99.26c-1.051.172-2.063.479-3.061.859-1.045.275-2.044.428-2.439-.954.153-3.975-.915-8.013.656-11.906l-.062.057c.375-1.097 1.475-1.12 2.299-1.551z"/><path fill="#060606" d="M1403.522 1419.107c2.741-.982 5.3-2.391 8.424-2.214 5.8.329 7.4 1.512 8.934 7.358.242 1.35.573 2.705-.234 3.994-.566.245-1.122.146-1.672-.055-2.447-1.782-4.999-1.512-7.596-.361-2.655-.365-5.309.045-7.965.01-2.297-1.108-1.391-3.37-1.857-5.142-.119-.976.129-1.869.623-2.706.326-.477.755-.803 1.343-.884z"/><path fill="#2f4e80" d="M1433.541 1416.128c-.534-.952-1.067-1.905-1.602-2.857.229-1.229-.309-2.225-.969-3.186-.662-1.66.516-3.313.012-4.972.191-.664.301-1.365.879-1.843 1.015-.318 1.624.329 2.254.937.695.738 1.313 1.527 1.571 2.537.778 1.722 2.29 3.272 1.313 5.418-.509.793-.844 1.604-.245 2.517.207.737.179 1.405-.526 1.886-.993.438-1.889.302-2.687-.437z"/><path fill="#2e4f82" d="m1457.442 1407.228-.56 6.016c-.943-.779-.336-1.847-.517-2.727-.013.01.029-.036-.013-.035-.037 1.093.06 2.155-.078 3.215a1.105 1.105 0 0 1-.803.593c-1.298.01-1.803-1.018-2.447-1.863-.694-1.013-1.64-1.861-2.047-3.068a3.071 3.071 0 0 1-.036-1.609c.293-.914 1.018-1.496 1.646-2.154 1.214-1.493 2.739-1.686 4.457-1.063 1.633.675-.446 1.901.398 2.695z"/><path fill="#161617" d="M1422.951 1430.304c3.231-2.66 6.09-5.917 10.555-6.606.25.227.385.509.407.846-.114 1.015-.743 1.772-1.28 2.576a2.95 2.95 0 0 1-.68.644c-.79.433-1.749.472-2.474 1.062-.706.633-1.129 1.505-1.83 2.143-.819.696-1.714 1.25-2.771 1.517-.786.118-1.52.036-2.11-.568-.262-.577-.244-1.119.183-1.614z"/><path fill="#324d77" d="M1435.643 1392.753c-.705 2.3-3.374 2.729-4.452 4.673-.237.341-.43.3-.584-.069-1.241-1.247-1.987-2.66-1.512-4.486.455-.99.968-1.921 2.172-2.156 1.22-.01 2.44-.017 3.66-.025.267.148.364.371.293.667-.244.581-.054 1.031.423 1.396z"/><path fill="#2d1e19" d="m1384.057 1416.243 1.363-.974c1.135-.305 1.488.624 2.024 1.267.724 1.783 2.419 1.947 3.962 2.37.558.564.413 1.259.366 1.938-.011.351-.043.698-.073 1.047-.089.894-.161 1.792-.729 2.549a1.985 1.985 0 0 1-1.002.4c-3.522-1.118-4.912-4.154-6.4-7.108-.087-.578.01-1.098.489-1.489z"/><path fill="#282422" d="M1455.248 1424.342c1.602-.031 1.974 1.742 3.237 2.206-.468.955-.631 1.979-.681 3.029-.57.923-.521 2.023-.861 3.015a1.2 1.2 0 0 1-.858.329c-1.171-.406-1.947-1.635-3.338-1.588-.807-.408-1.397-1.016-1.752-1.851-.219-.721-.192-1.422.16-2.099.423-.617.954-1.041 1.757-.956.722.409 1.527 1.353 1.932-.3.718-.46.032-1.245.404-1.785z"/><path fill="#595959" d="M1382.514 1386.851c-.132 4.198-.477 8.399.175 12.586-.122.644-.502 1.039-1.142 1.183-1.21-4.188-.322-8.46-.505-12.69-.041-.944.613-1.22 1.472-1.079z"/><path fill="#0d111b" d="M1433.504 1404.801c-.333-.62-.695-1.204-1.514-1.223-1.224-.072-1.192-.806-.887-1.685l.082-.782c.769-.487 1.521-.524 2.254.075.228 1.119 1.242 2.092 1.957 1.362 1.82-1.859 3.249.154 4.834.071.461.361.643.858.692 1.42 0 .365-.065.72-.187 1.064-.26.503-.656.83-1.218.934a1.96 1.96 0 0 1-.962-.257c-.725-.852-1.469-1.657-2.724-.849-.791.226-1.595.631-2.327-.13z"/><path fill="#828282" d="M1397.702 1384.61c-4.2 1.188-8.401 1.402-12.603.01 1.738-1.279 4.846.103 5.684-2.926.81.491.419 1.894 1.598 2.104 1.765.33 3.679-.309 5.321.817z"/><path fill="#384969" d="M1461.361 1435.632c-.598 1.806-1.334 3.52-3.041 4.589-.905-.159-1.395-.88-1.985-1.466a3.501 3.501 0 0 1-.598-.815 1.797 1.797 0 0 1 .031-.999 2.456 2.456 0 0 1 1.069-1.037c.441-.199.908-.321 1.372-.432 1.396-.327.88-1.146.481-1.935a2.37 2.37 0 0 1-.132-.973c.131-.534.452-.903.948-1.128.925-.264 1.716-.033 2.386.646.196.29.317.611.364.96-.297.864-.596 1.727-.895 2.59z"/><path fill="#d0cd79" d="m1372.098 1428.156-.047-5.075c.735-.863 1.616-1.478 2.771-1.632.566-.023 1.106.063 1.588.386.255.277.399.604.421.983-.603 2.122-1.839 3.877-3.232 5.543-.541.229-1.05.222-1.501-.205z"/><path fill="#613929" d="M1402.164 1403.945c1.37 2.94.366 5.354-1.673 7.538-.741-.46-1.188-1.139-1.466-1.948-.276-.794-.541-1.592-.542-2.448.047-.688.313-1.29.726-1.831.318-.337.68-.591 1.163-.555 1.047.85.936-1.119 1.792-.756z"/><path fill="#96563b" d="m1386.858 1417.005-1.438-1.736a1.618 1.618 0 0 0-.011-.551c-.681-1.353-1.556-2.663-.931-4.299 1.064-.962 2.079-.453 3.091.1-.179 1.912 1.726.8 2.321 1.591.691.94 0 1.543-.526 2.19-.709.629-1.205 1.43-1.73 2.208a1.558 1.558 0 0 1-.776.497z"/><path fill="#513223" d="m1422.951 1430.304.039 1.629c.773 1.213.141 1.939-.873 2.538-2.087.204-2.317-1.464-2.859-2.825-.221-1.304-.381-2.598.801-3.589 1.325-1.042.35-2.581.82-3.807 1.735 1.662-.708 4.751 2.072 6.054z"/><path fill="#e3e3df" d="m1372.098 1428.156 1.36-.092c1.55.672 2.477 1.99 3.426 3.293.074 1.879-.2 3.504-2.618 3.541l-2.168-6.742z"/><path fill="#25334d" d="m1455.257 1413.904.679-.047c.28-.345.552-.338.815.02-.388 3.458-3.101 5.299-5.239 7.54-.137-.123-.272-.245-.41-.366-.582-1.032-.537-2.09-.132-3.164.4-.789 1.051-1.354 1.728-1.892 1.054-.448 1.522-1.619 2.559-2.091z"/><path fill="#1a243c" d="M1433.502 1424.342a3.552 3.552 0 0 1 0-.644l1.665-1.522c.524-.179.935.069 1.34.352.783.627 1.629 1.198 2.05 2.172.362 1.036.379 2.096.225 3.171-.069.367-.19.715-.352 1.052a2.677 2.677 0 0 1-1.236 1.099c-.56.153-1.094.102-1.591-.212-.513-.563-.641-1.251-.64-1.976.01-.32.058-.645.124-.956.066-.533.317-1.102-.283-1.519-.495-.268-.995-.524-1.306-1.017z"/><path fill="#3c2924" d="m1398.768 1415.333.373 1.387c.28.491.383 1.003.192 1.553-.508.855-1.331 1.194-2.252 1.375a2.875 2.875 0 0 1-1.061-.136 2.07 2.07 0 0 1-1.033-1.136c.021-1.328.499-2.594.555-3.923.346-.949.518-2.041 1.792-2.25 1.302.664 1.044 2.045 1.434 3.13z"/><path fill="#27354d" d="m1435.851 1422.955-.68-.778c3.003-1.868-.509-2.934-.546-4.427.222-.989 1.274-1.023 1.848-1.608.029-.679-.111-1.275-.783-1.614.041-1.183.795-1.042 1.576-.852.998.98 1.076 2.29 1.278 3.556.043.696-.102 1.374-.224 2.053-.175.974.211 1.984-.169 2.95-.622.702-1.424.83-2.3.72z"/><path fill="#51342c" d="M1382.983 1409.508c-.55-.059-1.081-.149-1.267-.791a.91.91 0 0 1-.241-.614c0-.228.023-.342.063-.342.407-1.166-.037-2.471.586-3.605.451-.616 1.082-.948 1.795-1.158a3.411 3.411 0 0 1 1.086-.013c1.188.393 2.509.663 2.308 2.394-.389.951-1.802.647-2.092 1.722-.301.933-.412 1.958-1.299 2.59a.934.934 0 0 1-.939-.183z"/><path fill="#202d44" d="M1452.141 1389.842c-.014-.24.026-.674-.047-.693-2.337-.642-3.728-3.407-6.553-2.934 3.713-1.973 6.035-.919 8.082 3.663-.507.469-.999.396-1.482-.036z"/><path fill="#636363" d="m1401.381 1391.436-.141-4.544c1.09-.467 1.703-.149 1.587 1.077-.345 3.687.184 7.43-.734 11.077-.676-.719-.603-1.465-.08-2.227.01-.355.01-.712.014-1.067-.95-1.329.047-2.949-.646-4.316z"/><path fill="#332823" d="M1384.118 1403.262c-.372.691-1.014.903-1.732.98-.323.145-.613.104-.864-.155a2.309 2.309 0 0 1 .085-.97l-.06-2.498 1.142-1.183 2.022-.735c.275.26.451.576.532.946 0 1.322-.221 2.575-1.125 3.615z"/><path fill="#243455" d="M1440.893 1389.248c-1.817-.685-2.596 2.072-4.428 1.336-.974-.543-1.363-1.282-.783-2.345-.057-2.004 1.395-1.768 2.018-.883.974 1.384 2.258.451 3.258.97.326.331.305.639-.065.922z"/><path fill="#0f0d10" d="M1455.248 1424.342c.055.519.749 1.054-.037 1.553-.597.677-1.218 1.282-2.222.744l-1.371.694-.483-.382c-.637-1.196-.651-2.356.211-3.462a2.05 2.05 0 0 1 1.77.033l2.132.82z"/><path fill="#212d47" d="M1431.249 1404.886c3.053 1.763-.472 3.509-.015 5.265.234.637-.063.81-.644.738-.792-2.264-1.081-4.524.054-6.772.584-.043.967.069.605.769z"/><path fill="#f4f196" d="M1374.267 1434.898c1.458-.762 1.878-2.17 2.247-3.609.262-.293.583-.387.962-.282.512.285.85.704.994 1.275-.305 2.239-.55 4.524-3.467 4.925l-.729-.145c0-.722 0-1.442-.01-2.164z"/><path fill="#293751" d="M1458.265 1404.156c-.611-2.164.592-3.441 2.209-4.516.254-.255.503-.263.748.013.183 1.887-.796 3.268-1.988 4.556-.337.223-.661.217-.969-.053z"/><path fill="#462b22" d="M1398.768 1415.333c-.703-.832-1.178-1.765-1.264-2.87-.27-.254-.355-.561-.261-.92.744-.816.836-2.397 2.499-2.142l.75 2.082c-.84 1.164-1.571 2.377-1.724 3.85z"/><path fill="#7d7e72" d="M1384.057 1416.243c.01.427.013.854.02 1.282-.48.771-1.258.93-2.074 1.023-.404.035-.806.01-1.206-.064-.606-.142-1.138-.4-1.468-.964.996-2.572 3.095-1.062 4.728-1.277z"/><path fill="#1f1819" d="M1458.971 1426.7c1.837-.267 2.998.634 3.779 2.19-.482.398-1.004.719-1.641.809-.865.068-1.663-.092-2.326-.697-.479-.811-.414-1.579.188-2.302z"/><path fill="#bab86a" d="m1379.329 1417.52 1.771.067c.195 2.157-1.211 2.918-2.954 3.391-.782-.086-1.438-.39-1.853-1.099.59-1.33 2.106-1.466 3.036-2.359z"/><path fill="#3d3d3d" d="m1402.013 1396.819.08 2.227-.294 4.379c-.327.141-.617.088-.873-.16-.493-1.16-1.44-2.171-1.188-3.58 2.386.338.512-2.708 2.275-2.866z"/><path fill="#233e6c" d="M1458.971 1426.7v2.12c.314.327.317.657.01.99-.58.257-1.105.225-1.537-.295-.721-1.365-1.26-2.665 1.042-2.967.211-.11.372-.059.485.152z"/><path fill="#5c4a46" d="m1382.983 1409.508 1.031-.092c.252.05.461.174.626.372l.097.363.672 4.567c-2.159-1.108-1.572-3.495-2.426-5.21z"/><path fill="#fbf576" d="M1376.292 1419.879c.599.236 1.197.474 1.795.711.206.291.239.604.124.938-.432.565-.915 1-1.699.664l-1.587-.064c-.366-.586-.398-1.116.253-1.534l1.114-.715z"/><path fill="#2e3a55" d="m1433.439 1401.187-2.254-.075c-.302-1.234-.876-2.426-.579-3.753.192.048.387.071.585.069.767 1.241.93 2.845 2.248 3.759z"/><path fill="#dbd77e" d="M1403.522 1419.107c.051.496-.197.766-.659.874-1.766.673-3.234.843-3.025-1.802.912-.585 1.755-.295 2.581.207.602-.12 1.052 0 1.103.721z"/><path fill="#2c3135" d="m1461.291 1428.85 1.459.04a.52.52 0 0 1 .299.565c-.085 1.116-.581 2.066-1.203 2.966l-2.141-.593a.795.795 0 0 1-.211-.551c.01-.202.027-.305.061-.306.44-.817 1.07-1.484 1.736-2.121z"/><path fill="#0e0c11" d="m1430.591 1410.889.644-.738c2.388.554 1.532 1.84.704 3.119l-1.348-2.381z"/><path fill="#151b26" d="m1461.222 1399.653-.374-.02-.374.01c-1.417-1.051-.511-2.536-.712-3.813 1.437.912 2.012 2.153 1.46 3.826z"/><path fill="#0b0a11" d="M1459.793 1395.849c-1.517.683-3.112 1.547-3.064-1.342 1.251-.08 2.281.349 3.064 1.342z"/><path fill="#1d222f" d="m1452.141 1389.842 1.482.037 1.295 2.997c-1.133-.821-3.58-.44-2.777-3.034z"/><path fill="#7a7b69" d="m1402.418 1418.386-2.672.039c-.311.206-.58.151-.813-.13l.207-1.576c1.154.435 2.854-.202 3.278 1.667z"/><path fill="#252b3a" d="M1431.267 1390.716c-.43 1.015-1.229 1.657-2.172 2.156.229-1.217-1.472-4.379 2.172-2.156z"/><path fill="#0d0d0d" d="M1392.38 1383.794c-.304.573-1.092 1.025-1.314.565-.365-.76-.216-1.767-.284-2.67 1.949-.372 1.182 1.316 1.598 2.105z"/><path fill="#202539" d="m1440.893 1389.248.064-.921 3.77-.352c-1.123.89-1.877 2.893-3.834 1.273z"/><path fill="#59493f" d="m1453.115 1423.523-1.662.114c-.457.442-.966.45-1.51.18-.696-.947-.359-1.743.364-2.483a1.368 1.368 0 0 1 1.06-.247l.145.331c-.315 1.347 1.215 1.291 1.603 2.105z"/><path fill="#7b7a77" d="m1375.179 1420.594-.253 1.534c-.96.316-1.919.634-2.877.951.155-1.947 1.554-2.328 3.13-2.485z"/><path fill="#493b37" d="m1381.606 1403.118.145 1.009c.552 1.256.546 2.512 0 3.767-.011.274-.021.549-.033.823-1.748-1.832-1.163-3.711-.11-5.599z"/><path fill="#324f7c" d="M1436.473 1416.142c-.378.809-1.029 1.303-1.848 1.608-1.134-.023-1.164-.785-1.084-1.621.978 0 1.955.01 2.932.013z"/><path fill="#866f3e" d="M1461.846 1432.421c.027-1.141.521-2.092 1.202-2.967.797 1.435-.362 2.435-.794 3.591-.133-.21-.271-.417-.408-.624z"/><path fill="#273959" d="M1456.751 1413.877c-.271-.01-.543-.013-.815-.02v-4.39c.146-.247.347-.321.612-.197l.337 3.974c.134.248.09.459-.132.633z"/><path fill="#232b3a" d="m1458.265 1404.156.969.054-1.79 3.017c-1.085-.826-.203-1.604.059-2.398 0-.15-.01-.302-.015-.452.258-.075.517-.148.777-.221z"/><path fill="#3e271f" d="M1401.229 1403.428c.19.031.38.029.57 0 .255.079.377.252.366.519-.409.847-.819 1.692-1.234 2.541-.612-.401-.349-1.048-.44-1.595-.257-.182-.356-.422-.277-.731.215-.416.543-.674 1.015-.731z"/><path fill="#7c7c7c" d="M1384.752 1385.357c-.484.935-1.484 1.105-2.3 1.55-.814-2.861 1.139-1.617 2.3-1.55z"/><path fill="#2f3b50" d="m1435.682 1388.239.783 2.345-.721.806c-.269.261-.532.255-.789-.016.032-.23.023-.458-.027-.684.08-.869.117-1.752.754-2.451z"/><path fill="#2d4a7a" d="M1431.249 1404.886c-.202-.255-.403-.512-.604-.768-.114-.798-.017-1.552.459-2.226l.887 1.684-.742 1.31z"/><path fill="#a193a6" d="M1399.795 1460.342a5.24 5.24 0 0 1-.12-.564c1.185-1.458 2.768-1.141 4.318-.98 2.672.977 5.51.207 8.226.754.419.126.79.338 1.117.629.378.595.393 1.201.053 1.816-1.656 1.453-3.644-.157-5.379.58l-1.521.062-6.694-2.297z"/><path fill="#384352" d="m1417.718 1463.44-1.481-.057c-1.567-1.811-.882-4.017-1.068-6.063.027-1.274-.144-2.36-1.69-2.759-.858-.222-2.001-.407-1.807-1.801 1.505-1.202 3.303-.923 5.029-1.005 1.678.785 2.392 2.247 2.755 3.948-1.162 1.413-1.786 2.998-1.484 4.865.033.325.047.65.064.977.053.66.162 1.328-.318 1.895z"/><path fill="#858e94" d="m1416.085 1456.642.151 6.741-.366.034-.358-.086c-.595-.499-.717-1.156-.626-1.885-.233.657-.287 1.403-.929 1.855l-.365.069-.368-.047c-.435-.51-.432-1.021 0-1.532 0-.396-.01-.791-.01-1.187-.348-1.5-1.281-2.962-.306-4.55 1.245-.824 2.102.477 3.178.588z"/><path fill="#4f6693" d="m1417.718 1463.44-.466-1.656c1.593-1.373 3.488-.812 5.293-.833.405.033.801.118 1.189.232.928.359 1.936.6 2.473 1.574-2.766 1.032-5.619.953-8.489.683z"/><path fill="#67769b" d="M1413.221 1461.792v1.532c-1.826.364-3.504-.304-5.214-.748 1.573-1.347 3.491-.407 5.211-.784z"/><path fill="#375b92" d="M1426.207 1462.757c-.827-.229-1.815.033-2.443-.802 1.293-1.353 2.912-1.57 4.661-1.343.917.484.991 1.031.118 1.646l-2.336.499z"/><path fill="#9facb7" d="M1413.957 1463.302c.051-1.076.062-2.169 1.119-2.963.798.928.259 2.021.437 2.993l-1.556-.03z"/><path fill="#15131a" d="M1428.543 1462.259c.573-.319.229-.763.157-1.168-.269-.595-.175-1.136.237-1.633.87-.37 1.527-.164 1.938.714.101.404.032.779-.206 1.122l-.983 1.181a229.51 229.51 0 0 1-1.143-.216z"/><path fill="#0c0c0f" d="M1450.662 1450.478c-2.855 1.881-4.943 4.785-8.186 6.151-1 .319-1.176-.469-1.478-1.09-.201-.318-.01-.801-.429-1.03-.098.345-.099.7-.121 1.064-.053.922-.263 1.771-.973 2.416l-.823.832c-.987.775-1.534.146-2.039-.631-.587-1.82-.512-3.654-.099-5.488 1.36-1.401 1.652-2.333 1.338-4.316.951-1.017 2.139-1.366 3.491-1.248.503.118.921.388 1.269.748.319.171.547 1.065 1.017.102 0-.62-.15-1.204-.163-1.798 0-.726.223-1.435.177-2.163-.083-.516-.195-1.023-.404-1.5-.185-.301-.386-.585-.751-.696-.01.015-.366-.029-.366-.029s-.36 0-.365.018c-.399.087-.79.182-1.2.205a3.403 3.403 0 0 1-.88-.157c-.878-.349-1.844-.394-2.703-.804-.739-.536-1.065-1.259-.988-2.166.091-.647.308-1.265.482-1.892.284-.923.225-1.874.213-2.822.028-.329.115-.643.251-.942a2.287 2.287 0 0 1 1.121-.919c.652-.158 1.574-.066 1.133-1.242-.03-.315.019-.614.139-.904.938-.861.882-2.352 1.967-3.122.366-.08.929-.123 1.026.122.649 1.622 1.661 1.151 2.724.562.637.125 1.029.605 1.467 1.011.462.351.995.402 1.556.352.455-.014.877.082 1.257.339.195.236.326.504.39.803.049.885-.136 1.776.075 2.658.063.446.057.893.038 1.334.181 1.731 1.583.697 2.373 1.041.813.235 1.492.625 1.758 1.495.026.707-.545 1.384-.107 2.116.122.262.189.536.224.818a2.498 2.498 0 0 1-.178.803c-.269.574.014.995.41 1.391.217.234.34.504.397.813-.461 1.194-1.42 2.194-1.351 3.584-.348.757-.771 1.48-.981 2.296-.57.626-1.14 1.255-1.708 1.885z"/><path fill="#1d2c47" d="M1452.94 1445.964c-1.458-1.958.531-2.503 1.432-3.494.743-.742 1.512-.723 2.302-.078l-.146.832c-1.386.663-1.215 3.366-3.588 2.74z"/><path fill="#4e443d" d="M1452.94 1445.964c1.79-.138 1.819-2.579 3.588-2.742-.69 2.33-2.641 3.682-4.16 5.367-.303-.982-.273-1.892.572-2.625z"/><path fill="#38302a" d="m1456.674 1442.392-2.301.077-.69-.126c-.411-.57-.367-1.125.057-1.668.918-.635 1.905-.763 2.96-.411.58.296 1.047.659.8 1.422l-.826.706z"/><path fill="#51463e" d="m1457.499 1441.686-.842-.879c-.702-.883-.835-1.797-.149-2.756 1.141.275 1.271 1.395 1.812 2.171-.159.552.093 1.335-.821 1.464z"/><path fill="#8c859a" d="M1437.129 1458.439c.332.83.974.425 1.524.383l-.062.753-4.341.819c-.939.489-1.902.704-2.923.247-.033-2.694.402-3.02 4.765-3.573.679.204.9.756 1.037 1.371z"/><path fill="#0d121d" d="M1439.477 1457.99c.01-.962.017-1.922.025-2.883.716-.575 1.443-.593 2.181-.042.053.629.207 1.206.794 1.564-.828.835-1.843 1.254-3 1.361z"/><path fill="#6d7d9c" d="M1431.308 1460.37c.981.01 1.962.017 2.943.023-.997 1.083-2.058 1.911-3.581.901.01-.306.02-.612.028-.918.199-.372.403-.374.61-.01z"/><path fill="#59b27e" d="M1431.279 1340.161c-.076 1.139-.904 1.576-1.965 1.637-.854.05-1.823.077-1.75-1.237.057-1.005.114-2.09 1.534-1.998.976.063 2.031.163 2.181 1.598z"/><path fill="#00913e" d="m1443.081 1343.697.038 2.479c-.699.072-1.826.422-1.785-.507.029-.681 1.126-1.316 1.747-1.972z"/><path fill="#299c58" d="m1456.648 1348.125 2.187 1.492c-.448 2.396-1.861 1.978-3.408 1.168-1.025-1.544-1.698-2.927 1.221-2.66z"/><path fill="#41aa6e" d="M1431.086 1492.388c-1.033.94-2.264 1.173-3.605 1.007-.586-.355-.705-.919-.688-1.542.017-.362-.026-.738.062-1.082.311-1.211-1.325-3.035 1.054-3.586 1.993-.462 2.85.8 3.394 2.432a861.02 861.02 0 0 0-.217 2.771z"/><path fill="#fcfdfd" d="m1426.792 1491.853.688 1.542.75 1.47c-1.109.206-2.436.834-2.372-1.227.132-.688.238-1.391.934-1.785z"/><path fill="#f9fdfb" d="m1425.207 1488.884-.584-.861.484-1.449c1.05.725 1.124 1.494.1 2.31z"/><path fill="#4fa46d" d="m1417.782 1487.777 2.775.423c.274.843-.039 1.539-.541 2.189-.981-.01-1.963-.016-2.944-.024-.635-1.102-.809-2.077.71-2.588z"/><path fill="#f2dbda" d="M1417.782 1487.777c-1.23.589-.96 1.592-.711 2.588-1.269-1.337-1.405-2.418.676-3-.001.137.01.275.035.412z"/><path fill="#e2e2dd" d="M1389.322 1453.642a9361.44 9361.44 0 0 1-3.844-2.81c1.511-1.974 3.921-2.438 5.988-3.408 2.125-.997 4.204-2.024 6.125-3.37.815-.354 1.515-.955 2.409-1.149 1.869.703 3.13 1.848 2.927 4.051-1.033 1.442-2.835 1.354-4.208 2.118-2.007.524-2.653 3.154-4.95 3.225-.447-.415-.724-1.34-1.565-.328-.732.881-1.391 2.038-2.882 1.671z"/><path fill="#faf57d" d="M1398.261 1444.653c-3.822 2.968-8.263 4.653-12.783 6.179-.268-.312-.535-.623-.802-.937-.234-.352-.239-.706-.019-1.066 3.367-3.405 7.609-4.927 12.218-5.663.763.214 1.597.366 1.386 1.487z"/><path fill="#f8f38c" d="M1389.322 1453.642c1.224-.717 1.873-1.942 2.697-3.018.396-.517 1.048-.905 1.61-.555.866.54-.018 1.323.042 2a.95.95 0 0 1-.337.681c-.128.032-.257.063-.385.096-1.11.719-1.683 3.879-3.627.796z"/><path fill="#bfc0ba" d="M1384.815 1449.241a2.855 2.855 0 0 1-.139.654l-2.181-1.522-.807-1.459c-.232-1.532.461-2.564 1.765-3.271.426-.011.768.152 1.034.485.973 1.65 1.563 3.324.328 5.113z"/><path fill="#1f1f21" d="M1393.69 1457.206c-2.957-.991.189-3.022-.742-4.359a.463.463 0 0 0 .439.088c1.904-.659 1.657.852 1.898 1.876-.11.965-.195 1.953-1.484 2.075l-.182.116z"/><path fill="#e4e4dd" d="M1375.003 1437.207c1.842-1.294 2.375-3.341 3.044-5.309.081-1.879.894-3.107 2.907-3.27 1.62.924 2.516 2.449 3.346 4.032-.064 2.459-1.484 4.253-2.954 6.022a2.633 2.633 0 0 1-.908.409c-1.736-.075-1.419 1.835-2.397 2.495-1.385-1.2-2.208-2.792-3.038-4.379z"/><path fill="#c2c1b5" d="M1378.042 1441.587c-.034-3.664-.034-3.664 2.205-2.945.241.234.369.52.392.854-.395 1.37.607 2.456.765 3.717-.116.744-.462 1.292-1.244 1.471-.747-1.004-2.08-1.607-2.118-3.097z"/><path fill="#c9c66e" d="m1380.16 1444.684.861-1.521c.461-.478 1.021-.588 1.649-.446.558.305 1.014.654.602 1.382l-1.583 2.815-1.529-2.23z"/><path fill="#d33c34" d="M1379.148 1356.279c-.996.053-1.515-.596-1.608-1.295-.231-1.72 1.323-1.825 2.388-2.176.741-.244 1.676.302 1.598 1.049-.137 1.32-1.39 1.855-2.378 2.422z"/><path fill="#d33a33" d="M1378.69 1350.084c-.028 1.487-.854 1.985-1.87 2.215-.667.151-1.37-.148-1.418-.837-.088-1.264 1.091-1.486 1.946-1.867.666-.296 1.146.037 1.342.489z"/><path fill="#d45a53" d="M1368.14 1358.008c1.286.272 2.322.457 2.568 1.594.052.237-.649.91-1.012.917-1.412.025-1.309-1.159-1.556-2.511z"/><path fill="#d8322a" d="M1389.978 1350.841c-2.572 1.02-4.649.01-5.042-2.541-.169-1.1-.097-2.237-.134-3.355 1.83-.272 3.788-1.487 5.26.768 1.135 1.738 1.269 3.44-.084 5.128z"/><path fill="#efd7d4" d="M1409.491 1341.167c0 .233-.01.467-.012.701-2.279.292-4.281.234-3.777-2.99.265.01.53.017.795.025.93.845 2.152 1.303 2.994 2.264z"/><path fill="#d9251c" d="M1408.841 1489.613c-.157.648-.061 1.512-1.117 1.438-.433-.031-1.029.035-1.039-.63-.013-.848.857-1.01 1.303-1.506l.853.698z"/><path fill="#d7332b" d="m1380.074 1477.096.047 1.097c-1.206 2.364-2.888 3.792-5.74 2.916-1.321-2.665-.832-4.676 2.098-5.805 1.591-.189 2.695.598 3.595 1.792z"/><path fill="#315894" d="M1393.802 1456.885c.56-.377.86-.88.765-1.576.401-3.72 2.439-6.035 6.029-7.022 1.765-.65 3.528-1.349 5.325-.092.813 1.046.872 2.276.858 3.521.061 1.514-.241 3.062.414 4.523.273 1.097 1.273 1.994.912 3.267-1.289.813-2.625.576-3.97.185-1.487.028-2.974.058-4.46.087-2.088-.7-4.061-1.632-5.873-2.893z"/><path fill="#d43931" d="M1409.491 1341.167c-1.552-.023-3.808.886-2.994-2.264h-.01c1.257-.429 2.514-.859 3.682.218.028.767.01 1.517-.683 2.044z"/><path fill="#efd7d4" d="M1410.174 1339.124c-1.198-.563-2.45-.219-3.682-.218 1.292-1.028 2.539-1.294 3.682.218z"/><path fill="#151d2f" d="m1440.294 1404.279-.063-1.659c-.13-1.517.578-2.646 1.934-1.571 1.385 1.098 2.643.738 4.018.708a.924.924 0 0 1 .23.647c-.013.235-.041.353-.084.354-.961.956-2.387.705-3.47 1.348-.835.358-1.669.761-2.565.173z"/><path fill="#0f1526" d="m1446.223 1402.62-.041-.862c2.061-1.399 2.445 1.39 3.881 1.552.345.422.434.891.265 1.411a1.665 1.665 0 0 1-.741.663 2.994 2.994 0 0 1-1.005.124 2.815 2.815 0 0 1-.949-.334 3.82 3.82 0 0 1-.681-.733c-.368-.557-.716-1.123-.729-1.821z"/><path fill="#19253f" d="M1457.487 1404.375c-.001.151 0 .303.015.453-1.664.111-3.498-.248-4.533 1.622-2.146.18-2.362-.818-1.508-2.474 1.793-1.139 3.524-.368 5.263.168.254.078.508.154.763.231z"/><path fill="#1b2a4a" d="M1450.639 1403.357c1.575-6.713 3.072 1.205 4.618.025-1.542.553-3.083.66-4.618-.025z"/><path fill="#213451" d="M1450.639 1403.357c1.539.01 3.079.017 4.618.025.604.033 1.157.163 1.467.762-1.74.29-3.66-.695-5.238.741-.559.454-1.089.396-1.593-.093l.17-1.484c.191.032.382.048.576.049z"/><path fill="#1a2c4a" d="M1454.425 1399.552c-.637-.022-1.132-.13-1.052-.741.03-.236.411-.553.677-.604.466-.088.988.054.902.688-.036.262-.38.483-.527.657z"/><path fill="#151c2a" d="M1434.955 1391.374c.263 0 .525.011.789.016-.033.456-.066.91-.101 1.365-.638.074-1.298-.029-1.537-.644-.286-.736.497-.557.849-.737z"/><path fill="#070307" d="M1436.581 1399.414c-.459.211-.755.423-1.077.476-.534.088-.926-.223-.858-.75.031-.247.457-.607.715-.616.256-.01.526.358 1.22.89z"/><path fill="#252221" d="m1401.229 1403.428-.801.767c-1.214.248-1.787-.743-2.577-1.327-.482-.565-.785-1.189-.639-1.961.373-.859.729-1.744 1.957-1.446a.624.624 0 0 1 .568.225c1.453.866 1.612 2.248 1.492 3.742z"/><path fill="#614841" d="m1399.169 1399.46-1.437 1.766c-.933 0-1.722-.42-2.515-.842-.802-.546-1.482-1.14-.794-2.218 1.731-.114 3.275.456 4.746 1.294z"/><path fill="#613828" d="M1393.314 1398.069c.177-.146.347-.138.509.025.229.448.149.832-.238 1.153-1.909.929-3.813.932-5.712-.032-.364-.341-.426-.732-.187-1.171l-.017.047c1.881-.508 3.763-.463 5.645-.022z"/><path fill="#513b32" d="M1393.314 1398.069c-1.882.01-3.763.015-5.645.022 1.88-.648 3.762-.653 5.645-.022z"/><path fill="#98563a" d="m1393.74 1398.893.083-.8a.485.485 0 0 1 .601.073c.103.936.643 1.434 1.559 1.553-.277 1.556-1.412 1.512-2.4 1.028-1.129-.551-.673-1.294.157-1.854z"/><path fill="#513b32" d="m1387.687 1398.044.045.83c-.449.832-1.2 1.146-2.09 1.228a1.391 1.391 0 0 1-.876-.438l-.056-.962c.857-.826 1.924-.713 2.977-.658z"/><path fill="#5b5b5b" d="M1401.381 1391.436c1.095 1.307.337 2.891.646 4.316-1.614-1.23-.529-2.863-.646-4.316z"/><path fill="#995128" d="M1411.687 1427.263c2.575-2.354 5.063-1.919 7.496.235.267.672-.187.891-.679 1.085a3.469 3.469 0 0 1-.981.017c-.925-.05-2.158-.69-2.091 1.125.069.313.117.618.17.928.125 1.704 1.206 1.653 2.434 1.334.748-.091 1.429.074 2.036.526.485.886.199 1.833.229 2.757-.07 1.167-.082 2.346-.756 3.377a2.448 2.448 0 0 1-.967.645c-1.155.313-2.25.227-3.232-.521-.692-.503-.542-1.497-1.147-2.034.447 1.3-.57 1.61-1.399 2.056-.854.27-1.479.964-2.325 1.253-1.367.413-2.736.414-4.113.047-.829-.298-1.484-.803-1.911-1.585-.753-2.507-.666-5.03-.134-7.56.164-.38.416-.696.739-.946a3.484 3.484 0 0 1 1.05-.431c1.325-.313 2.753.083 4.037-.553.589-.518.971-1.223 1.544-1.755z"/><path fill="#dbdad1" d="m1398.934 1418.295.813.13c.599 1.401 1.857 1.48 3.117 1.555l-.589 2.159c.073.485.1.968-.056 1.446-1.009.616-1.346-.414-1.94-.761-.661.13-.71.783-1.031 1.203-.648.901-1.466 1.548-2.561 1.801-.761.125-1.488.049-2.148-.387-1.318-2.31.875-3.648 1.502-5.422.246-.268.52-.503.821-.707l2.072-1.017z"/><path fill="#824727" d="m1405.834 1430.328-.853.065c-.27.25-.577.324-.928.194-.642-.385-.995-.96-1.112-1.69-.02-.548.12-1.028.599-1.358 2.665-1.612 5.395-1.266 8.146-.275.038.892.202 1.816-.663 2.465a49.264 49.264 0 0 0-.461-.176c-.754-.389-1.563-.47-2.388-.417-.944.073-1.733.451-2.34 1.192z"/><path fill="#48322b" d="m1403.54 1427.539-.099 1.379c-.464 1.521.903 2.698.778 4.159-.591 1.138 1.914 3.411-1.315 3.579-1.784-.821-1.973-2.462-2.005-4.1-.051-2.607-.31-5.229.272-7.819.158-.433.407-.807.742-1.122l.36-1.476c1.352 1.583-.644 3.949 1.267 5.4z"/><path fill="#824728" d="M1419.897 1432.665c-.675 0-1.35 0-2.024-.01-1.178-.215-1.83-.906-1.91-2.113.306-1.32 1.655-1.562 2.46-2.367.254-.227.507-.452.759-.679l.875.56v3.89c.201.211.245.387.132.529-.099.123-.195.187-.288.187z"/><path fill="#2b344d" d="M1436.492 1412.421c.929-2.167-1.225-3.455-1.506-5.276a2.046 2.046 0 0 1 1.133-.498c2.396.444 1.962 2.373 2.107 4.001-.024.85-.16 1.669-.695 2.369-.718.457-1.1.317-1.039-.596z"/><path fill="#2d4a7a" d="M1435.833 1407.141h-.847c.123-1.172-1.105-1.487-1.482-2.344.88.226 1.533-.271 2.209-.694.866.084 1.608.327 1.735 1.356-.211.873-1.198 1.001-1.615 1.678z"/><path fill="#0a0d1a" d="m1436.492 1412.421.801.614c.165.301.16.603.01.907-.631-.061-1.192.067-1.612.586-1.271-1.289-.7-1.875.802-2.107z"/><path fill="#773a10" d="M1448.473 1404.989c.235-.012.471-.022.707-.032 1.456.514 2.066 1.637 2.222 3.087l.067 1.433c1.097 2.274 1.449 4.604.52 7.024-.22.395-.56.605-1.012.633-1.784-1.258-.986-3.314-1.532-4.956a6.178 6.178 0 0 1-.117-1.627c.803-2.017-2.035-3.485-.855-5.562z"/><path fill="#2d4e83" d="M1455.257 1413.904c-.782.802.326 3.513-2.388 2.366-1.472-1.874-2.108-3.596.846-4.668l1.542 2.302z"/><path fill="#0c0d14" d="M1453.715 1411.603c-2.084 1.229-1.96 2.858-.845 4.667.122 1.008-.447 1.368-1.336 1.428-.219-.171-.312-.362-.28-.573.032-.221.078-.331.14-.331l.075-7.319 2.246 2.128z"/><path fill="#2a4370" d="m1451.401 1408.043-2.222-3.087c.234-.068.473-.123.714-.162l1.592.092c-.313 1.288 1.196.846 1.483 1.563-.522.532-1.044 1.064-1.567 1.594z"/><path fill="#13192b" d="M1456.546 1409.271a5.25 5.25 0 0 1-.612.196c-.572-.191-1.322-.272-1.113-1.134.051-.207.604-.421.916-.409.866.036.876.691.809 1.347z"/><path fill="#262427" d="m1427.492 1430.361 1.467-2.22c1.294.242 2.576.533 3.84.917.486.239.827.592.897 1.153-.141.513-.477.855-.936 1.089-.796.365-1.745-.132-2.494.443-.21.341-.25.708-.188 1.098.106.813 1.154 1.563.162 2.442-.813.425-1.636.422-2.47.081a1.718 1.718 0 0 1-.692-.738 3.039 3.039 0 0 1-.127-.99c.249-1.076.022-2.238.541-3.275z"/><path fill="#ddb613" d="M1422.037 1434.159c.695-.58.963-1.344.953-2.226.706-.017 1.413-.032 2.12-.05.28.11.48.303.604.577.087.277.125.563.122.855a3.35 3.35 0 0 1-.19.841 9.75 9.75 0 0 1-.583 1.16c-.147.256-.33.482-.542.69-.227.198-.47.373-.724.534-.8.44-1.533 1.125-2.57.722-.563-.398-.898-.921-.896-1.63.049-1.09 1.175-.937 1.706-1.473z"/><path fill="#284065" d="M1432.676 1429.659c-1.48.087-2.98.22-3.717-1.518.836-.923 2.028-.637 3.058-.905.798-.404 1.369-.197 1.71.636.042.825-.471 1.326-1.051 1.787z"/><path fill="#293f64" d="M1425.331 1432.562c-.067-.228-.14-.454-.22-.679l2.381-1.522c.494 1.027 1.388 2.056 0 3.082-.389.364-.838.438-1.337.285-.451-.264-.601-.738-.82-1.166z"/><path fill="#997d64" d="m1433.502 1424.342 2.193.077c1.001 1.65-.543 1.952-1.389 2.626-.777.044-1.576.178-2.192-.494l1.388-2.209z"/><path fill="#524426" d="M1432.114 1426.551c.69 0 1.382.01 2.072.01.561-.335 1.101-.366 1.608.104l-.154.841c-.667.483-1.262 1.337-2.202.433l-1.423-.7c0-.236.03-.464.099-.687z"/><path fill="#d8d8d5" d="m1381.719 1417.62 2.357-.095c1.838 2.4 2.974 5.384 5.787 6.978.635.21 1.168.503 1.075 1.31-.483.786-1.445 1.129-1.854 1.991a2.072 2.072 0 0 1-.73.604c-.33.052-.648.019-.959-.105-1.875-1.107-2.29-3.173-3.225-4.897a33.434 33.434 0 0 1-.772-1.267c-.524-1.519-2.129-2.64-1.679-4.519z"/><path fill="#ab5e3d" d="M1396.714 1419.89c.39 2.213-2.088 3.257-2.156 5.285a1.918 1.918 0 0 1-.938.599c-1.234.182-2.278 0-2.692-1.4-.01-.981-.012-1.963-.018-2.945.729-1.035 2.084-.849 2.989-1.545.593-.353 1.207-.612 1.917-.418.347.039.646.181.898.424z"/><path fill="#96563b" d="M1391.396 1419.312c-2.064.316-3.95.28-4.537-2.308l.21-.172c.679-.383.854-1.214 1.47-1.656.847-.13 1.448.529 2.21.673.795.174 1.618.275 2.256.86.165.336.182.712-.083.953-.519.471-.81 1.112-.594 1.539-.294.212-.602.256-.932.111z"/><path fill="#45281e" d="M1391.396 1419.312c.28-.067.56-.136.84-.205.938-.875 1.871-1.774 3.227-.685l.539.74c.215.183.274.347.179.493-.089.137-.176.206-.261.206l-1.475.65c-1.16.896-2.401.507-3.635.228l.586-1.427z"/><path fill="#523626" d="M1390.927 1424.374c.859.675 1.842.894 2.912.786.192.302.229.617.085.949-.543.778-1.261 1.131-2.214.908-.512-.235-.791-.615-.735-1.2-.372-.438-.742-.876-1.112-1.315l1.064-.128z"/><path fill="#91523b" d="M1390.809 1420.74a2215.1 2215.1 0 0 0 3.635-.227c-.886 1.434-2.346.651-3.535.915a1.496 1.496 0 0 1-.1-.688z"/><path fill="#7a644d" d="M1459.768 1431.209c.013.21-.01.417-.063.62l-.782.843c-.468.924-1.118 1.409-2.179.905-.182-.204-.245-.412-.19-.623.055-.211.112-.316.171-.316-.082-1.115-1.084-2.441.719-3.123.466-.012.931-.021 1.396-.033.764.331 1.339.765.928 1.727z"/><path fill="#233554" d="M1452.943 1431.127c1.733-.942 2.39.278 3.041 1.511-.04 1.448-.951 2.184-2.176 2.668a2.472 2.472 0 0 1-1.059.017 1.424 1.424 0 0 1-.79-.681c-.138-1.302-.033-2.536.984-3.515z"/><path fill="#060607" d="M1452.943 1431.127c-.031 1.283.07 2.593-.754 3.715-.716.39-1.184 0-1.615-.51-.261-.59-.152-1.203-.123-1.812.019-.744-.218-1.479-.117-2.23.159-.471.445-.779.982-.767a2.862 2.862 0 0 1 1.627 1.604z"/><path fill="#b9991a" d="m1452.989 1426.639 2.222-.744c.972 1.375.83 2.659-.883 2.973-1.69.309-1.301-1.22-1.339-2.229z"/><path fill="#9b8268" d="M1451.316 1429.524c-.208.263-.416.523-.623.786-.475.513-.922.521-1.336-.072a1.5 1.5 0 0 0-.154-.598c-.854-1.378.123-1.907 1.123-2.429.366-.089.695-.011.983.231l.309-.109-.302 2.191z"/><path fill="#171517" d="m1453.665 1434.867 2.319-2.229c.247.01.493.01.74 0a.596.596 0 0 1-.109.609c.193.966.137 1.864-.686 2.56-1.067.442-1.821.123-2.264-.94z"/><path fill="#833f0d" d="M1449.93 1411.614c1.531 1.582.473 3.571.839 5.336.413.479.331 1.016.181 1.56-.441 1.227-.793 2.557-2.582 2.203-.96-1.34-1.445-2.894-1.966-4.396-.446.035-.493.471-.741.7-.39.297-.831.379-1.299.376-1.45-.055-2.326 1.345-3.702 1.459-.694.085-1.321-.1-1.895-.492a4.205 4.205 0 0 1-.616-.757c-.967-1.063-.775-2.394-.847-3.663 0-.301-.01-.602-.01-.904-.01-.675-.012-1.349-.019-2.023 1.149-1.625-1.066-4.599 2.16-5.393l.929-.719c2.507-.999 5.018-1.706 7.56-.1.205 0 .389.059.55.186-.126 1.898 3.021 2.868 1.465 5.17-.383.38-1.307.233-1.216.975.039.324.809.263 1.208.482z"/><path fill="#7a390e" d="m1447.923 1404.802-7.561.1a2.028 2.028 0 0 1-.068-.625l2.229-.931c1.872-.708 3.597-.389 5.204.748.056.238.122.474.196.708z"/><path fill="#141524" d="M1439.435 1405.621c-2.161 1.22-.981 3.778-2.16 5.392-.384-1.326.978-3.304-1.442-3.872-.151-1.072.419-1.522 1.395-1.624.516-.372 1.004-.314 1.47.094.244 0 .49.01.737.01z"/><path fill="#305691" d="m1438.696 1405.611-1.469-.094-1.515-1.411c1.869-1.231 3.049-1.097 2.984 1.505z"/><path fill="#2f333a" d="m1453.665 1434.867 2.009.771c.141-.065.281-.132.423-.205.37.601-.145 1.16-.089 1.751l.105.854c-.274 1.384-1.094 1.791-2.395 1.338l-.134-.021c-.51-.801-.455-1.567.142-2.301-.51-.463-1.019-.926-1.527-1.39.085-.442.543-.511.793-.789.225-.01.449-.011.673-.01z"/><path fill="#847121" d="M1455.674 1435.637c.471-.733-.121-1.886.94-2.39l2.309-.575.229.814c1.688 1.693.083 2.183-1.041 2.849l-1.33.143c-.455-.082-.557-.521-.809-.807z"/><path fill="#9c814f" d="M1453.719 1439.375c.798-.445 1.595-.893 2.394-1.339.133-.015.266-.01.396.015l.149 2.757-2.916.163c-.187-.162-.271-.343-.255-.541.017-.208.05-.312.1-.312.043-.248.088-.495.132-.743z"/><path fill="#172037" d="M1458.111 1436.335c.539-.88 1.591-1.572 1.041-2.849 1.221-.015 1.366.813 1.23 1.712-.207 1.385-1.359 1.06-2.271 1.137z"/><path fill="#b3953e" d="m1455.973 1435.671.81.807-.775.705c-1.13-.478-.255-1.003-.035-1.512z"/><path fill="#b7b7b5" d="M1377.208 1431.177a3.268 3.268 0 0 0-.694.109c-1.866-.27-2.384-1.818-3.055-3.222.333-2.082 1.666-3.586 2.953-5.116 1.558 1.646 2.316 3.622 2.422 5.869-.202 1.021-.545 1.945-1.626 2.36z"/><path fill="#e1e1d8" d="M1377.996 1429.019c.231-2.222-2.07-3.783-1.584-6.07l.101-.757 1.444-.864c2.666-.051 3.452 1.721 3.805 3.919-.491 2.016-1.033 3.99-3.766 3.772z"/><path fill="#ab5e3d" d="M1399.741 1409.4c-.991.554-.536 2.466-2.223 2.369-.71-.366-1.46-.58-2.267-.585-1.364-.786-2.945-.13-4.353-.652a2.03 2.03 0 0 1-.712-.785c-.354-.885-.39-1.799-.284-2.73.275-1.369.856-2.45 2.444-2.553.336.059.623.222.852.477.258.545.375 1.186.956 1.541 1.498.944 3.399-.857 4.793.71l.794 2.208z"/><path fill="#6b4338" d="M1398.947 1407.191c-1.973-.234-3.967 1.528-5.925-.064-.377-.63.09-.949.478-1.298 1.132-.99 2.502-1.34 3.955-1.476.965.052 1.725.48 2.29 1.259l-.798 1.579z"/><path fill="#5c372c" d="m1399.745 1405.611-2.283-.746c-.431-.432-.471-.94-.292-1.491.296-.501.735-.775 1.317-.816 1.091.019 1.191 1.213 1.941 1.637.04.231.061.462.062.695l-.745.721z"/><path fill="#8b484f" d="m1388.489 1413.893 1.494-1.448c.228-.294.522-.489.877-.602.37-.059.737-.056 1.107.01.933.284 1.817.634 2.17 1.674.07.642-.095 1.186-.649 1.572-1.639.857-3.233.493-4.817-.175-.423-.277-.484-.62-.182-1.027z"/><path fill="#b76240" d="M1387.789 1410.937c-1.098.05-2.103-.256-3.051-.787v-.026c-.527-.868-.614-1.69.25-2.416 1.254-.225 2.417-.034 3.434.781.311.562.181 1.207.318 1.807-.137.483-.377.815-.956.641z"/><path fill="#643a2e" d="m1387.789 1410.937.61-.751c.766-.662 1.544-.666 2.334-.044h.01c.606.736.612 1.476.01 2.217l-.769.085c-.686-.567-2.902 1.091-2.193-1.507z"/><path fill="#b3643d" d="m1388.489 1413.893.117.891v.456c-.333.705.525 2.559-1.537 1.593.035-1.192.473-2.19 1.42-2.94z"/><path fill="#3d2815" d="m1422.037 1434.159-1.446 1.446c-.673.221-.999-.18-1.257-.701l.563-2.24c.063-.235.115-.476.155-.716.927.5.515 2.199 1.985 2.211z"/><path fill="#2c1d1d" d="m1450.691 1418.39.076-1.441c.21-.05.419-.102.627-.154l.139.903-.166 3.39c-.236.101-.474.202-.711.305-1.619-1.02.107-2.001.035-3.003z"/><path fill="#a88e1d" d="M1433.438 1427.938c.72-.217 1.354-.87 2.202-.433l.308 2.138c-.469 1.518-1.39 1.45-2.503.716-.257-.232-.513-.467-.77-.7-.126-.743.075-1.34.763-1.721z"/><path fill="#20325a" d="M1433.445 1430.359c.94.131 1.922.405 2.503-.716.431 0 .86-.01 1.291-.01.647.608.667 1.326.366 2.101-.21.334-.5.57-.865.716-1.384.387-2.621.102-3.721-.815-.105-.155-.209-.313-.313-.471l.739-.807z"/><path fill="#08070d" d="m1437.98 1428.128.066-3.636c-.048-.672.039-1.298.599-1.764.505-.169.955-.039 1.374.255.241.224.408.496.514.808.076.658-.131 1.263-.363 1.861a9.533 9.533 0 0 1-.364.868c-.501.654-.433 1.969-1.826 1.608z"/><path fill="#0a0809" d="m1437.344 1431.722-.104-2.087.743-.728c.602-.021 1.146.119 1.594.549.162.271.144.534-.029.793l-.067.807c-.15.771-.645 1.135-1.403 1.183-.367 0-.611-.172-.734-.517z"/><path fill="#254071" d="m1438.853 1422.894-.806 1.598c-.732-.512-1.466-1.024-2.197-1.537l2.177-.857c.265-.199.539-.225.825-.049.169.282.17.564.001.845z"/><path fill="#2b1914" d="m1439.356 1429.693-1.374-.785v-.779l1.579-2.151c.888 1.29 1.03 2.539-.203 3.715z"/><path fill="#5e5248" d="M1435.795 1426.665c-.536-.034-1.071-.068-1.607-.104.531-.694 1.698-.94 1.508-2.142 1.135.7.868 1.461.099 2.246z"/><path fill="#a3593d" d="m1395.462 1418.422-3.227.686-1.597-1.213c.776-.455 1.798-.07 2.364-.892.063-.332.173-.648.319-.954.81-.756.478-2.521 2.19-2.482.563.214.903.539.586 1.187.524 1.35-.001 2.518-.635 3.668z"/><path fill="#8e5137" d="m1396.098 1414.754-.86-.887c-.397-.682-.313-1.455-.413-2.194a1.32 1.32 0 0 1 .421-.787c.68-.202.805-1.45 1.697-1.074.813.344.466 1.27.575 1.956.01.232 0 .463-.015.694-1.107.373-.631 1.716-1.405 2.292z"/><path fill="#ac6244" d="M1395.918 1419.862a2.62 2.62 0 0 0 .082-.7c.288.051.574.102.861.151 0 .204-.048.397-.147.577l-.796-.028z"/><path fill="#6b3712" d="M1438.853 1422.894a2.513 2.513 0 0 1-.179-.671c-.704-.938-.905-2.104-1.414-3.13l.888-1.489c.215.025.429.052.642.081.884 1.404 2.652 2.359 2.25 4.421-.087.592-.305 1.117-.787 1.504l-1.4-.716z"/><path fill="#110b0f" d="M1437.26 1419.093c1.029.791 1.4 1.879 1.414 3.129a5.657 5.657 0 0 1-.648-.125c-.653-.9-.726-1.947-.766-3.004z"/><path fill="#4a352d" d="M1386.988 1405.482c.015-1.517-1.696-1.118-2.239-2.015.309-1.329 1.381-1.788 2.497-2.202 1.378-.174 2.764-.353 3.124 1.536-.585.717.028 1.64-.398 2.396-.935.737-1.873 1.418-2.984.285z"/><path fill="#93553a" d="m1386.997 1401.895-2.248 1.571a3.503 3.503 0 0 1-.632-.204c-.099-1.256-.049-2.486.649-3.599.249 0 .498.011.746.034.75.56 1.429 1.168 1.485 2.198z"/><path fill="#a47460" d="M1386.988 1405.482c1.117.495 1.919-.759 2.986-.539.367.829-.127 1.335-.679 1.823a3.91 3.91 0 0 1-1.008.385c-.9.153-1.796.163-2.678-.118a2.857 2.857 0 0 1-.847-.65c-.47-3.297 1.869.35 2.226-.901z"/><path fill="#a1583b" d="M1384.763 1406.383c.244 0 .487.014.73.032.402.319.454.726.298 1.185l-.317.315c-.857.534-.697 1.404-.731 2.209l-.729-.708c-.149-1.109.245-2.084.749-3.033z"/><path fill="#864f3a" d="M1381.749 1407.894v-3.767c.215.023.426.062.635.115-.018 1.252.602 2.614-.637 3.652z"/><path fill="#9a7e6a" d="M1451.31 1427.443a5.543 5.543 0 0 0-.545-.063c-2.582.734-2.163-1.038-2.103-2.514.265-.651.713-1.04 1.454-1.003l1.337-.226-.143 3.806z"/><path fill="#d3cf7a" d="M1377.996 1429.019c1.829-.629 2.504-2.222 3.184-3.81.313-.221.6-.191.863.087.387.629.388 1.296.205 1.984-.242.658-.59 1.232-1.251 1.554-1.476.547-1.89 2.117-2.949 3.063l-.839-.722.787-2.156z"/><path fill="#b6b6b3" d="M1381.755 1425.154a6.51 6.51 0 0 0-.577.055c-.421-1.834-1.778-2.892-3.221-3.881.022-.25.065-.494.129-.736 1.257-.748 2.223-1.787 3.012-3.004.209-.023.416-.013.621.032.809 1.479 2.151 2.688 2.297 4.507.558 1.166-.39 1.726-.974 2.437-.37.322-.785.553-1.287.59z"/><path fill="#866f3e" d="m1459.768 1431.209-.928-1.728c.059-.218.103-.438.133-.662l2.318.031c.17 1.224.029 2.249-1.523 2.359z"/><path fill="#73350e" d="m1450.116 1423.863-.508.539c-1.678.884-1.569 3.774-4.125 3.669-1.701 2.026-2.919-.119-4.341-.503-.775-.111-1.008-.716-1.216-1.339-.347-.866.983-1.593.214-2.498l.111-.121c0-.498-.01-.995-.012-1.493.407-.578.846-1.104 1.67-.97 1.618.249 3.245 1.472 4.839-.06.235-.243.499-.448.787-.624.333-.136.634-.08.9.162 1.195-.298 1.37-1.625 2.255-2.235.43 1.006-.741 1.993-.035 3.002-.178.823-.359 1.648-.539 2.471z"/><path fill="#3c5583" d="M1404.135 1459.691c1.277-.251 2.723.405 3.84-.71.466-.931 1.396-1.316 2.189-1.87a2.915 2.915 0 0 1 1.009-.17c2.243.493 2.179 1.85 1.308 3.505-2.763-.461-5.666.623-8.346-.755z"/><path fill="#3c485a" d="M1412.48 1460.446c.205-1.407-.032-2.597-1.56-3.146-.188-.314-.19-.636-.035-.963.631-.678 1.292-1.191 2.182-.376-.198 1.555 1.285 3.058.145 4.643a78.643 78.643 0 0 0-.732-.158z"/><path fill="#09080a" d="m1405.729 1452.148-.066-3.672c-.513-.988-2.119.087-2.429-1.285.137-.699.673-1.125 1.094-1.631.547-.628.769-1.51 1.528-1.976a2.182 2.182 0 0 1 1.034-.067c2.15 2.003 4.986 2.254 7.636 2.979 1.192 1.05-.489 2.266.019 3.331 1.584.257 2.599-1.989 4.192-.621.435 1.623-.299 2.509-1.821 2.896-1.587 1.21-3.447.681-5.202.819-1.734.191-3.438-.378-5.174-.208a3.15 3.15 0 0 1-.811-.565z"/><path fill="#95a0a9" d="M1406.687 1452.3c1.795-.764 3.477-.608 5.026.621.489.699 1.226.841 1.969.711 2.684-.47 2.869.996 2.404 3.01-1.691 2.807-2.02-.416-3.017-.682l-2.021.741c-1.157.23-2.37-.803-3.5.159a1.123 1.123 0 0 1-.855-.533c-.762-1.343-.95-2.685-.01-4.027z"/><path fill="#8d979f" d="M1416.915 1452.102c.248-1.098 1.931-1.47 1.474-2.922-.333-.852.147-1.338.785-1.757.57-.12 1.05.07 1.479.433.234.264.385.572.454.918.145 1.353-.801 2.992 1.035 3.905.738.62.919 1.465.976 2.364a5.35 5.35 0 0 1-.192 1.645c-.252.749-.679 1.351-1.428 1.678-1.564-.091-2.521-.767-2.383-2.489l-2.2-3.775z"/><path fill="#365489" d="m1419.114 1455.876 2.272 2.157c1.661-.161 2.941.551 4.014 1.745-1.883 2.774-4.75.666-7.041 1.419a2.323 2.323 0 0 1-1.171.021c.468-1.843-1.844-4.689 1.926-5.342z"/><path fill="#a48f9f" d="M1417.188 1461.218c.187-.033.375-.063.563-.089 1.771-.153 3.693-1.456 5.168.674-1.89-.01-3.78-.014-5.669-.02a.892.892 0 0 1-.062-.565z"/><path fill="#8f859f" d="M1422.919 1461.803c-1.581-1.313-3.456-.373-5.168-.674 2.289-1.737 5.274.179 7.585-1.447 1.223-1.144 2.462-1.126 3.716-.052l-.351 1.46-4.938.864-.844-.151z"/><path fill="#305794" d="M1429.052 1459.63c-1.239.018-2.479.033-3.717.051-1.621.184-2.937-.366-3.947-1.646l.933-1.412c1.371-1.973.234-4.098.368-6.146.119-1.838-.285-3.723.517-5.496.947-1.276 2.115-.81 3.274-.421 1.313.647 2.626 1.301 4.032 1.745a25.92 25.92 0 0 1 5.062 3.266c.895.855 1.444 1.853 1.278 3.139-.193 1.582.423 3.229-.396 4.758-1.606 1.163-4.343.322-5.148 2.903l-.305.017-.306-.01c-.384-.614-.972-.773-1.645-.749z"/><path fill="#121214" d="m1443.952 1441.568.767 2.342c-.678.646-1.721 1.1-1.247 2.358-.11 1.096-.896 1.305-1.792 1.368l-3.637.802c-.149-.056-.298-.11-.448-.163-.635-.491-1.331-.942-1.34-1.881.437-1.068.758-2.132-.108-3.158a2.03 2.03 0 0 1 .016-1.458 1.29 1.29 0 0 1 .781-.531c1.118-.074 2.163.49 3.287.394l.757.001c.253 0 .505-.01.756-.034.376-.082.726-.253 1.105-.322.396-.018.778.02 1.103.282z"/><path fill="#806a59" d="M1437.227 1433.37c-.037.223-.072.445-.105.668-.445.923-1.188 1.576-1.977 2.195-.574.423-1.196.721-1.926.739-1.039-.053-1.66-.624-1.973-1.581-.032-.726-.461-1.377-.41-2.12.153-.562.514-.932 1.049-1.142 1.568-.202 3.104.544 4.681.166.538.163 1.01.366.661 1.075z"/><path fill="#211917" d="M1445.483 1428.071c1.552-1.022 1.725-3.596 4.123-3.669-.215 1.227-.362 2.425 1.158 2.978-.337.88-1.643 1.093-1.562 2.261-.438.016-.878.029-1.317.043-.614-.218-1.229-.167-1.843.01a768.09 768.09 0 0 0-.559-1.618z"/><path fill="#0c0c18" d="m1436.55 1452.132-1.548-2.279c-.273-.619.076-1.011.5-1.379.811-.496 1.629-.854 2.488-.094l.052.058c-.233 1.294 1.054 1.732 1.563 2.657l-2.372 1.039c-.229.381-.457.363-.683 0z"/><path fill="#1c1714" d="M1445.52 1449.147c.117-1.003-.567-2.632.917-2.734 1.947-.136 1.058 1.696 1.271 2.735-.73.593-1.459.596-2.188-.001z"/><path fill="#2f2a25" d="m1452.992 1434.875-.793.789c-1.08.413-2.178 1.349-3.301.281-.623-.592-.343-1.308.341-1.806.497-.092.996-.122 1.497-.026l1.453.73.803.032z"/><path fill="#413525" d="M1434.896 1435.627c.575-.763 1.155-1.519 2.226-1.589.983 1.049.843 2.105.023 3.169-1.568.639-2.263.036-2.249-1.58z"/><path fill="#352b24" d="m1441.683 1455.065-2.181.042c.221-1.023-.687-2.832 1.257-2.711 1.501.094.884 1.661.924 2.669z"/><path fill="#50433e" d="m1440.219 1425.951.923 1.617c.445 1.476.233 2.561-1.595 2.683a1.341 1.341 0 0 0-.189-.559l.201-3.715v-.023c.217-.401.438-.421.66 0z"/><path fill="#6d5c4f" d="M1434.896 1435.627c.489.897 1.164 1.532 2.25 1.58.142.664-.028 1.2-.64 1.554l-.45.234c-.17 0-.34 0-.511.01-1.002-.256-2.014-.501-2.42-1.639-.022-.35.07-.663.298-.935.492-.265.982-.532 1.473-.8z"/><path fill="#695647" d="M1443.221 1436.279c-.212-.034-.91.168-.889-.483.022-.735.391-1.455 1.32-1.442.521.01.971.311.972.881.001.728-.463 1.073-1.403 1.044z"/><path fill="#274d80" d="m1437.987 1431.932 1.492-.876c.92.205 1.923.607 1.268 1.689-.713 1.179-1.763.217-2.657-.059-.249-.137-.348-.294-.295-.473.056-.187.119-.281.192-.281z"/><path fill="#242e46" d="m1449.357 1430.238 1.336.072.758 2.283c-.705.593-1.459.729-2.278.24-1.238-.957-.161-1.75.184-2.595z"/><path fill="#1e385c" d="M1443.187 1446.21c-.672-.46-1.676-.934-1.097-1.873.568-.925 1.714-.448 2.629-.428l-.804 2.288c-.238.275-.481.266-.728.013z"/><path fill="#294c82" d="M1444.48 1438.541c-.178.761-.829.762-1.435.736-.478-.02-1.121-.101-1.058-.738.09-.896.8-1.163 1.605-1.049.527.074.846.447.888 1.051z"/><path fill="#917761" d="M1443.187 1446.21a1.79 1.79 0 0 1 .729-.013l.715 1.877c-.532 1.157-1.343.775-2.154.392l-.797-.83 1.507-1.426z"/><path fill="#101215" d="M1436.55 1452.132h.684l-.104 6.304c-.225-.323-.448-.648-.673-.972l.093-5.334z"/><path fill="#1a1410" d="M1440.23 1441.64c-1 1.336-1.997.377-2.994-.01-.187-.183-.244-.359-.173-.531.07-.169.139-.255.205-.255 1.221-.61 2.189-.274 2.962.791z"/><path fill="#101728" d="m1445.52 1449.147 2.188.001c-.032.906-.303 1.9-1.257 1.927-1.275.033-.859-1.154-.931-1.928z"/><path fill="#15151a" d="m1442.477 1448.466 2.154-.391c-.27.868-.273 2.121-1.445 2.12-.911.001-.596-1.082-.709-1.729z"/><path fill="#121620" d="m1449.173 1432.833 2.278-.239-.715 1.519c-.486.736-.984.781-1.497.026l-.066-1.306z"/><path fill="#15161e" d="m1437.269 1440.849-.032.786c-.263 0-.525.01-.788.01-1.924-.606-1.493-1.774-.723-3.023l.781.141.762 2.087z"/><path fill="#856e5d" d="m1453.586 1440.118.155.853-.059 1.373c-.599-.016-1.154-.106-1.278-.835-.158-.927.531-1.147 1.182-1.391z"/><path fill="#503f35" d="M1446.043 1429.688c.153-.564.134-1.328.944-1.336.845-.01.766.768.897 1.331-.611.621-1.226.592-1.841.01z"/><path fill="#826c5c" d="M1450.814 1447.36c-.556.287-.946.563-1.378.659-.11.024-.522-.546-.49-.806.069-.555.551-.851 1.09-.706.259.071.432.455.778.853z"/><path fill="#1d3257" d="M1453.727 1437.053c-.047.768-.093 1.535-.141 2.302-.598-.118-1.191-.277-1.23-1.022-.048-.936.646-1.139 1.371-1.28z"/><path fill="#264473" d="M1440.075 1437.473c.321.412.662.661.678.929.013.219-.363.459-.567.691-.213-.236-.552-.449-.6-.714-.04-.223.258-.506.489-.906z"/><path fill="#284d85" d="M1449.765 1437.456c.345.373.716.597.752.864.029.224-.334.499-.523.751-.243-.213-.624-.392-.688-.649-.057-.227.241-.542.459-.966z"/><path fill="#735e55" d="M1437.987 1431.932c.033.252.067.503.102.755l-.862.683-.63-.699c-.519-.255-.516-.505.01-.749l.74-.199c.223.039.438.11.643.209z"/><path fill="#967e6c" d="M1443.952 1441.568c-.484.01-.969.014-1.453.021-.202-.17-.258-.323-.168-.459.084-.126.165-.189.245-.189.567-.029 1.174-.146 1.376.627z"/><path fill="#1f3154" d="M1446.25 1433.322c.479-.763.967-.725 1.462-.016-.482.529-.97.522-1.462.016z"/><path fill="#151212" d="m1441.774 1442.355-.787-.714.764-.745c.442.479.392.967.023 1.459z"/><path fill="#0d1012" d="M1446.25 1433.322c.487 0 .975-.01 1.462-.015-.479.846-.966.845-1.462.015z"/><path fill="#2a241f" d="M1441.774 1442.355c-.01-.486-.016-.973-.024-1.459.275.015.551.029.826.045a2 2 0 0 0-.077.648l-.725.766z"/><path fill="#b5b5b4" d="m1405.005 1446.181-1.48.772c-.354.178-.631.096-.832-.247-.563-1.494-1.83-2.411-2.878-3.508a.89.89 0 0 1-.976.096c-1.491-2.342-3.905-4.034-4.799-6.799.06-1.829 1.809-2.304 2.835-3.415-1.384.854-2.685 1.719-4.159 2.278-.342.074-.689.1-1.04.085-2.044-.151-3.58-1.214-4.862-2.729-.201-1.703.973-2.51 2.155-3.309.31-.113.635-.162.962-.149.789.204 1.47.074 1.941-.677.519-.652 1.083-1.245 1.855-1.597a2.315 2.315 0 0 1 1.458 0c.631.418 1.119.506 1.079-.538.089-.319.255-.577.501-.79 1.334-.322 2.338-1.34 3.649-1.703.545-.092 1.024.055 1.448.401-.013 2.673-.028 5.344-.038 8.016-.01 1.559-.343 3.245 1.541 4.093 1.065.511.781 1.674 1.211 2.494.06.321.063.645.031.969-.326 1.329.389 2.545.424 3.835-.01.81.666 1.625-.026 2.425z"/><path fill="#1d1f25" d="M1400.424 1449.031c-2.959 1.153-4.777 3.371-5.858 6.277-.167-.901.222-2.081-1.178-2.374l.284-.864c1.701-.983 2.376-3.179 4.428-3.749.883-.121 2.021-1.071 2.324.71z"/><path fill="#282d36" d="M1400.424 1449.031c-.596-.822-1.524-.558-2.324-.71l4.594-1.614.832.247c.449.879 1.889.363 2.138 1.522-1.8-.31-3.529.037-5.24.555z"/><path fill="#f1ee9d" d="m1399.044 1442.978.771.22c-.099.933-.608 1.427-1.554 1.455-.333-.613-.916-.736-1.538-.783.266-1.621 1.263-1.335 2.321-.892z"/><path fill="#e3e3e2" d="M1399.044 1442.978c-.814.19-1.755.053-2.32.892-4.33.991-8.174 3.062-11.909 5.37l-.872-5.207c-.572-1.793 1.004-2.313 1.947-3.113 2.323-1.969 4.595-4.049 7.611-4.972.382.023.71.172.984.438 1.269 2.371 4.166 3.616 4.559 6.592z"/><path fill="#faf47b" d="M1393.736 1436.378c-3.404 2.37-7.038 4.447-9.792 7.653-.001.001-.34-.011-.34-.011s-.332.073-.332.076c-.274-.335-.548-.671-.821-1.008a1.06 1.06 0 0 1-.154-.985c2.549-3.062 4.873-6.418 9.2-7.217h.777c.503.484 1.898.097 1.462 1.497z"/><path fill="#b6b6b4" d="M1380.996 1428.834c.026-.611.186-1.156.754-1.495.612-.727.403-1.824 1.13-2.5.666-.639 1.117-1.496 1.971-1.945.93 1.739 1.507 3.676 2.908 5.147.362 2.33-1.212 3.549-2.747 4.794a1.138 1.138 0 0 1-1.021-.145c-1.606-.813-2.332-2.31-2.995-3.856z"/><path fill="#f8f381" d="M1383.99 1432.691c.241-.054.481-.109.722-.166.553-.282 1.107-.385 1.666-.014.046 3.65-1.72 6.197-4.828 7.929-.967-.382-1.127-1.036-.638-1.907l3.078-5.842z"/><path fill="#d1cc6a" d="M1380.912 1438.533c.088.645.204 1.274.842 1.635.233.359.223.713-.031 1.059-.486.4-1.086.818-1.57.209-.476-.601-.376-1.381.046-2.062a6.16 6.16 0 0 0 .049-.731c.223-.02.445-.058.664-.11z"/><path fill="#c1c097" d="M1380.198 1439.374c.178.808-.487 2.434 1.47 1.513.73.215 1.124.634.865 1.441l-.081.763c-.478.023-.955.048-1.431.072-1.009-1.104-2.477-2.108-.823-3.789z"/><path fill="#303d55" d="M1410.162 1457.609c-.089 1.478-1.261 1.227-2.187 1.371-.921-.514-1.493-1.248-1.47-2.353.228-.297.437-.301.625.038l.196-.135c.786.78 2.163 0 2.836 1.079z"/><path fill="#2b3545" d="M1407.13 1456.666a4.859 4.859 0 0 0-.626-.038c-1.333-1.307-.675-2.959-.775-4.479l.957.152c-.477 1.518.01 2.939.444 4.365z"/><path fill="#1f100d" d="m1447.727 1404.093-5.205-.748c1.053-1.168 2.462-.516 3.701-.726l1.504 1.474z"/><path fill="#a65c3e" d="M1386.997 1401.895c-.958-.42-1.5-1.121-1.485-2.197l2.221-.823c2.002.01 4.005.013 6.008.019-.015.438-.19 1.172-.018 1.265.805.436 1.62.295 2.261-.438l1.748 1.506.755 1.332-1.051.954a1.21 1.21 0 0 1-.932.141c-1.166-.583-2.339-.992-3.567-.136-.986.406-1.974.835-2.875-.166-.291-2.026-1.865-1.348-3.065-1.457z"/><path fill="#8d4c27" d="M1414.646 1447.001c-3.111-.055-6.344.197-8.12-3.221-.636-.595-.72-1.307-.447-2.094.862-1.376 2.003-1.549 3.363-.779.713.46 1.289 1.104 2.011 1.552.87.516 1.762.539 2.672.109.569-.348 1.024-.785 1.238-1.424.142-.761-.441-1.154-.828-1.646a1.97 1.97 0 0 1-.205-.98c.171-.55.491-.866 1.113-.704.795 1.138 2.019.711 3.088.842.519.603.757 1.295.681 2.091-.061.763-.343 1.469-.552 2.195-.892 1.792-1.204 4.165-4.014 4.059z"/><path fill="#3c170c" d="M1414.796 1439.315c1.683.021 2.709.445 1.423 2.302-2.282-.499-4.556-.445-6.822.106-.938-.79-1.912-.628-2.899-.108-.63-.738-.656-1.461.06-2.162l4.358-.158c1.298-.807 2.591-.841 3.88.02z"/><path fill="#553e33" d="M1404.341 1439.403c-.742-.843-.972-1.856-.976-2.944 1.554-1.223-.413-2.563.128-3.82.513-.67-.164-1.791.86-2.269.209.015.418.023.627.023l.055 8.203c.276.704-.124.83-.694.807z"/><path fill="#6f3e26" d="m1404.341 1439.403.695-.807 1.521.856-.06 2.162.027 2.166a2.308 2.308 0 0 1-.657.071c-.6-.028-.967-.367-1.198-.892-.224-1.186-1.069-2.269-.594-3.57z"/><path fill="#48281a" d="M1418.424 1428.177c.076 1.484-1.256 1.621-2.114 2.211-.439.456-.909.459-1.402.091l-.246-.845c-.203-2.968 1.717-1.691 3.076-1.537.228.032.456.059.686.08z"/><path fill="#110d0d" d="m1414.908 1430.479 1.401-.091 1.564 2.27c-2.622 1.498-3.385.465-2.965-2.179z"/><path fill="#41271a" d="m1419.334 1434.904 1.257.701 1.018 1.444c.211.36.221.726.031 1.099-.7.839-1.484 1.249-2.495.48.062-1.242.126-2.483.189-3.724z"/><path fill="#534339" d="M1419.145 1438.628c.741-.264 1.483-.526 2.225-.789.309.193.527.458.645.805.11.548.033 1.065-.236 1.555a3.175 3.175 0 0 1-.809.706c-.825.356-1.656.793-2.459-.049.01-.732.015-1.466.022-2.199.203-.014.407-.025.612-.029z"/><path fill="#452518" d="M1410.247 1431.993c.445-.72 1.069-1.089 1.776-.481.279.24.401.899.304 1.296-.301 1.226-1.224.885-2.058.663l-.323-.308c-.154-.456-.125-.864.301-1.17z"/><path fill="#351d14" d="M1405.834 1430.328c-.132-1.592.87-2.025 2.185-2.14.461.563 2.038.118 1.464 1.618-.956.487-2.125-.182-3.036.558-.204-.012-.408-.025-.613-.036z"/><path fill="#613922" d="M1414.796 1439.315c-1.293-.01-2.586-.013-3.879-.02.133-.961.659-1.441 1.652-1.349.589.674 1.668-.143 2.196.721 0 .216.01.432.031.648z"/><path fill="#2b1611" d="M1414.765 1438.667c-.786-.076-1.684.187-2.196-.722.989.616 1.753-3.695 2.876-.13-.228.284-.454.568-.68.852z"/><path fill="#824728" d="M1417.738 1428.097c-1.201.161-2.766-.406-3.076 1.537-.613-.557-.911-1.343-.197-1.821 1.056-.712 2.259-.698 3.273.284z"/><path fill="#483c37" d="M1410.269 1433.47c-1.099.878-2.192 1.068-3.063-.243-.606-.914-.09-1.279.849-1.264.566.634 1.464.718 2.086 1.259z"/><path fill="#171316" d="M1410.141 1433.222c-1.103.255-2.065.277-2.086-1.259l2.192.029-.106 1.23z"/><path fill="#884a28" d="M1406.447 1430.364c.831-.942 1.985-.673 3.031-.809.532-.394 1.038-.354 1.519.091l.026.082c-1.393 1.162-3.043.48-4.576.636z"/><path fill="#f5f286" d="M1396.827 1426c-.031.228-.061.455-.089.683-.325.626-.721 1.112-1.532.774-.479-.01-.956-.01-1.435-.015-.514-.518-.445-1.053-.045-1.596.024-.232.062-.461.114-.688.24 0 .479.01.719.016l2.235-.063c.234.188.317.384.25.584-.07.203-.142.305-.217.305z"/><path fill="#c9c67d" d="m1396.827 1426-.034-.888 2.141-1.58c.488-.338 1.002-.391 1.543-.137.189.198.267.408.232.629-.035.228-.08.34-.135.34-.985 1.152-2.295 1.556-3.747 1.636z"/><path fill="#c3c2bd" d="m1400.512 1423.589-1.578-.056c.411-.798-.911-2.863 1.57-2.145.5.733.487 1.466.01 2.201z"/><path fill="#d4d4c9" d="M1400.512 1423.589c0-.733-.01-1.467-.01-2.2l1.411 2.226-.051.736c-.431 0-.861.01-1.29.014l-.062-.776z"/><path fill="#191110" d="M1404.354 1430.37c-.175.8.096 1.767-.86 2.269-.509-1.232-1.546-2.459-.053-3.721l.913 1.452z"/><path fill="#271510" d="m1410.997 1429.646-1.519-.091-1.459-1.367c1.236-.012 2.719-.528 2.978 1.458z"/><path fill="#2e1b0e" d="M1449.93 1411.614c-.768.285-.902 2.072-2.23.983-.73-.599-.969-1.507-.555-2.313.785-1.529 1.841-.401 2.793-.126 0 .485-.01.971-.01 1.456z"/><path fill="#2d4568" d="M1433.424 1436.428c.057.235.072.474.046.713-.294.754-.835 1.232-1.61 1.454-.93.238-1.874.259-2.826.184a4.263 4.263 0 0 1-1.651-.499c-.849-.617-1.31-1.416-1.165-2.497.196-.58.484-1.038 1.216-.876l3.027-.121c.517-.365 1.004-.309 1.467.103.146.854.524 1.486 1.496 1.539z"/><path fill="#8c735d" d="m1431.95 1432.641-.711.729c-1.143.854-1.678.016-2.223-.799l.098-1.322c1.138-1.029 2.042-.35 2.937.401.248.359.215.69-.101.991z"/><path fill="#5d4d44" d="M1431.962 1431.896c-.878-.529-1.781-.948-2.849-.647 1.16-1.679 2.384-.591 3.594-.083l.012-.018c.17.677.049 1.059-.757.748z"/><path fill="#1c1b1a" d="m1429.017 1432.572 2.223.799.688 1.517c-.488-.033-.978-.066-1.466-.101-.54-.702-1.605-1.059-1.445-2.215z"/><path fill="#453a30" d="m1427.433 1434.907-.734.701c-.269.268-.561.297-.878.088a1.81 1.81 0 0 1-.291-.964c.098-.335.273-.621.535-.854.508-.103 1.015-.2 1.415.268l-.047.761z"/><path fill="#302c2a" d="M1427.479 1434.145c-.496 0-.991-.01-1.487-.01-.295.256-.578.242-.849-.038.056-.218.117-.433.185-.646.189-.322.413-.348.67-.077l1.49.067c0 .234 0 .469-.01.703z"/><path fill="#806858" d="M1426.14 1435.57c.188.001.374.015.559.038l.852 2.331c.377.423.408.893.191 1.398-.358.429-.829.557-1.364.516a2.272 2.272 0 0 1-.909-.434c-.893-1.074-1.517-2.226-1.029-3.688l.222-.947c.221-.172.449-.193.688-.041.267.27.446.628.79.827z"/><path fill="#957b62" d="m1421.483 1438.743-.113-.903.238-.79 2.175-1.3c.566 1.188 1.428 2.313.826 3.759-1.3.8-2.223.056-3.126-.766z"/><path fill="#3d332d" d="m1424.263 1439.216-.479-3.467c.217-.065.436-.07.655-.018l1.605 3.604c-.628.476-1.226.493-1.781-.119z"/><path fill="#2a211e" d="M1425.247 1434.95a2.139 2.139 0 0 0-.587-.165l.483-.687.849.038c0 .263-.01.525-.01.787-.237.237-.483.235-.736.027z"/><path fill="#8e7d3f" d="M1425.998 1433.375a8.322 8.322 0 0 0-.67.077v-.89l.667.813z"/><path fill="#f5f182" d="m1393.726 1425.847.045 1.596-1.43 1.457c-.652.562-1.285 1.178-2.27.829l-.761-.059c-.782-.288-1.23-.756-.889-1.648.013-.221.033-.44.06-.659.779-1.419 2.076-.598 3.153-.729.697-.261 1.394-.525 2.092-.787z"/><path fill="#c8c46e" d="m1388.42 1428.022.888 1.648-2.287 2.866c-.148.281-.37.345-.654.22l-1.655-.23 3.046-4.483c.222.026.443.019.662-.021z"/><path fill="#e1e1cb" d="M1391.633 1426.634c-.821 1.239-2.254-.174-3.152.729.151-1.611 1.401-1.453 2.494-1.546l.658.817z"/><path fill="#c1bf83" d="M1384.851 1422.894c-.155 1.019-.619 1.824-1.578 2.287-.454-.086-.723-.354-.805-.81l1.548-2.245.835.768z"/><path fill="#261415" d="M1393.62 1416.843a1.644 1.644 0 0 0-.618.16l-3.028-.048c.082-2.037.082-2.037 3.616-1.823.604.561.67 1.13.03 1.711z"/><path fill="#2d1e19" d="M1393.818 1415.371c-1.361.333-3.362-.888-3.843 1.583l-1.37-1.715a1.665 1.665 0 0 1 0-.457l5.17-.286c.166.187.227.378.185.575-.043.2-.09.3-.142.3z"/><path fill="#391b0e" d="M1448.437 1420.625c-.23.01-.461.017-.691.037-.522.299-.936.036-1.346-.254a17.43 17.43 0 0 1-2.083-2.082c-.293-.409-.529-.832-.273-1.352l1.424-.166c1.109-.636-.597-2.752 1.508-2.864-.627 2.472 2.135 4.2 1.461 6.681z"/><path fill="#743912" d="m1444.043 1416.975.683.663c.621.761.297 1.397-.264 2.006-.614.506-1.312.809-2.11.868-1.252-.144-2.253-.554-2.177-2.086 1.391-.211 2.114-2.206 3.868-1.451z"/><path fill="#42322a" d="M1442.484 1412.467c-1.411 1.208-2.768.507-3.298-.706-.499-1.142.813-1.497 1.84-1.595 1.163.338 1.428 1.246 1.458 2.301z"/><path fill="#402111" d="M1440.175 1418.426c.507.909 1.216 1.501 2.314 1.487.295.534.064.946-.308 1.327l-.464.192-1.478.685c.463-1.789-1.503-2.781-1.452-4.433l1.388.742z"/><path fill="#773a10" d="M1446.975 1413.945c-1.266.554-.237 2.314-1.508 2.865.635-.886-1.254-3.099 1.508-2.865z"/><path fill="#060306" d="m1442.484 1412.467-1.458-2.301.014.024c1.6-.768 2.204-.045 2.257 1.505l-.813.772z"/><path fill="#31201b" d="M1443.297 1411.695c-.467-.929-1.129-1.567-2.257-1.506.594-1.014 1.382-.864 2.165-.302.738.53.814 1.168.092 1.808z"/><path fill="#54322a" d="M1390.062 1403.351c1.111.335 1.982-.26 2.882-.743.813.091 1.612.203 1.899 1.158-.073 1.329-.605 1.887-1.914 1.137-1.483.012-2.133.874-2.288 2.242-.24.255-.537.357-.883.328-.497-.213-.829-.521-.64-1.125l.856-1.404c-.057-.536-.803-1.11.088-1.593z"/><path fill="#563125" d="M1395.246 1410.886c-.03.225-.05.451-.06.679a1.89 1.89 0 0 1-.742.657c-.946.453-1.961-.33-2.906.163-.262-.01-.524-.017-.786-.025 0-.739-.01-1.479-.01-2.218 1.449.561 3.383-1.801 4.504.744z"/><path fill="#342c2b" d="M1392.929 1404.902c.934-.032 1.507-.447 1.533-1.443.725-.741 1.476-.602 2.237-.065.25.01.496.045.736.118l.027 1.354-3.767 1.527c-.249-.255-.701-.291-.779-.728 0-.254.01-.509.013-.763z"/><path fill="#51322a" d="M1389.917 1407.157c.242-.01.483-.01.724-.013l.092 2.997-2.333.044c-.586-.302-.47-.604 0-.906.545-.679.392-1.857 1.517-2.122z"/><path fill="#975439" d="m1392.917 1405.665.78.728-.674.734c-.749-.436-.865-.918-.106-1.462z"/><path fill="#864d34" d="M1394.497 1411.631c.231-.015.461-.037.69-.066.469.757.557 1.523.05 2.302-1.178.646-.225 2.448-1.617 2.977l.197-1.472-.043-.874-.037-1.366c-.07-.664.328-1.09.76-1.501z"/><path fill="#af6040" d="M1394.497 1411.631c-.011.623-.134 1.189-.76 1.501-.733-.25-1.466-.5-2.199-.748.754-1.166 1.92-.71 2.959-.753z"/><path fill="#a1583b" d="M1389.917 1407.157c-.406.779-.528 1.761-1.518 2.124l-2.925-1.365.031-.041c.748-1.014 2.083-.841 3.012-1.49.201-.01.401-.021.601-.038l.799.81z"/><path fill="#1c2c4d" d="m1431.962 1431.896.757-.748 3.885.773c0 .249-.01.498-.01.748-1.551.431-3.1.495-4.645-.028.018-.248.022-.496.011-.745z"/><path fill="#2b1914" d="m1440.219 1425.951-.331-.01-.33.01.584-2.224c2.397.657.343 1.471.077 2.221z"/><path fill="#7a4e3f" d="M1388.518 1406.385c-.776.958-1.826 1.363-3.013 1.49 0-.487-.01-.973-.012-1.459l3.025-.031z"/><path fill="#c4c079" d="m1382.468 1424.372.804.81-1.522 2.159c0-.729 0-1.458.01-2.187l.713-.782z"/><path fill="#482317" d="M1447.74 1421.334c-1.963 2.771-3.99 1.589-6.022.099l.039-.069c.787-.438 1.438-1.136 2.395-1.255 1.335 0 2.465.601 3.588 1.225z"/><path fill="#706a65" d="M1447.74 1421.334c-1.418.233-2.76-.071-4.074-.569a1.131 1.131 0 0 1 .379-1.102c1.012-.283 2.011-.423 2.934.27l.767.729c.014.224.012.449-.01.672z"/><path fill="#788087" d="M1410.162 1457.609c-1.323.637-2.403.633-2.835-1.078 1.395-3.31 2.582-2.076 3.722.171-.046.199-.088.399-.127.599-.254.102-.507.204-.76.308z"/><path fill="#2b4977" d="M1414.646 1447.001c1.746-1.032 2.751-2.586 3.191-4.535 2.728-.967 2.009 1.531 2.669 2.648.142 1.054-.074 1.96-1.071 2.533l-1.046 1.532c-.343.122-.758.158-1.017.379-1.283 1.094-2.787 3.002-4.3 1.449-1.249-1.28 1.027-2.622 1.574-4.006z"/><path fill="#bbb" d="M1405.019 1443.074c.283.26.566.521.85.78-.269.782.354 1.896-.863 2.327l-.76-2.303c.275-.252.339-.707.773-.804z"/><path fill="#535a61" d="M1422.36 1455.141c-.187-.762.114-1.7-.796-2.201-1.47-1.312-.508-2.99-.678-4.499l-.341-.07c.341-1.675.45-3.447 1.944-4.641.707.231.905.766.861 1.446 0 2.681.032 5.358-.02 8.034-.012.744.397 1.82-.97 1.931z"/><path fill="#98a3ab" d="M1422.186 1443.93c.084 1.713.508 3.552-1.64 4.44l-1.112-.723c.046-.793.934-1.382.547-2.277-.651-.902-.27-1.625.506-2.125.784-.503 1.344-.074 1.699.685z"/><path fill="#25385b" d="M1422.36 1455.141c1.359-3.44.247-7.036.67-10.536.263-.201.507-.182.733.06-.01 2.993.016 5.987-.04 8.979-.022 1.163.425 2.632-1.403 2.979l.04-1.482z"/><path fill="#131415" d="M1420.887 1448.441c1.246 1.346.262 3.028.678 4.499-1.2 1.113-1.411.202-1.379-.752.043-1.271-.485-2.681.701-3.747z"/><path fill="#181b20" d="M1423.764 1444.665a22.606 22.606 0 0 0-.733-.059l-.845-.676c-1.808-1.161-2.074.036-2.205 1.44-1.111-.676-.053-2.953-2.144-2.905l.673-1.609 2.264-.625c.724.427 1.615.403 2.327.864.87.475 1.76.915 2.624 1.408.593.373 1.08.841 1.346 1.507.138.537.072 1.026-.345 1.428l-2.962-.773z"/><path fill="#1e1d29" d="M1426.726 1445.438c0-.489.01-.978.011-1.467.088-.149.176-.3.262-.451a2.284 2.284 0 0 1 1.414-.585c1.548.479 1.807 1.93 2.369 3.153.019.356-.093.667-.33.934-1.38-.204-2.743-.447-3.726-1.584z"/><path fill="#1f222b" d="M1430.451 1447.022c.016-.229.023-.457.025-.686.345-.668 1.003-.523 1.572-.616.308 0 .604.056.892.161.415.203.781.477 1.131.774.611.779 2.004 1.025 1.692 2.442l-.762.755-4.55-2.83z"/><path fill="#2a3e5f" d="M1435.726 1438.621c.189 1.02-.229 2.186.724 3.023-.01.482-.01.964-.013 1.445-.148.101-.297.202-.445.305-.18.013-.36.023-.541.038-1.975-.331-3.403-1.269-3.755-3.396.072-.595.395-1.025.885-1.345 1.055-.482 2.115-.688 3.19-.059z"/><path fill="#1b1f22" d="m1435.645 1443.186.793-.097c3.013 1.189 1.159 2.467.066 3.73-.402.27-.765.224-1.09-.136-.68-1.215-.725-2.39.231-3.497z"/><path fill="#2f4157" d="m1435.625 1446.856.879-.036c.915.121 1.539.519 1.486 1.561l-2.227.719-2.191-2.125c.646-.715 1.334-.684 2.053-.119z"/><path fill="#242b3b" d="M1440.217 1445.986c-.283-.418-.59-.672-.613-.949-.044-.515.221-.992.824-.822.216.062.434.568.42.86-.011.263-.338.512-.631.911z"/><path fill="#2c2720" d="m1435.771 1438.632-3.126.68c-.593-.24-.969-.629-.893-1.321l1.718-.85 2.301 1.491z"/><path fill="#e3e3dc" d="M1386.367 1432.756a5.07 5.07 0 0 0 .654-.219c1.804.188 2.619 2.263 4.476 2.35-3.511 1.85-5.824 5.146-8.965 7.44-.287-.48-.575-.961-.864-1.441.048-.237.077-.478.085-.719 1.539-2.469 3.076-4.94 4.614-7.411z"/><path fill="#c6c26f" d="m1393.736 1436.378-1.461-1.496c2.129-1.337 4.115-2.99 7.188-3.389-.936 2.815-4.021 2.789-4.978 4.893h-.375z"/><path fill="#e2e0d7" d="M1395.206 1427.458c.511-.258 1.021-.517 1.532-.774.237.857 1.443 1.935.073 2.504-.912.378-1.09-1.094-1.605-1.73z"/><path fill="silver" d="m1405.019 1443.074-.774.805c-.043-1.497-1.563-2.938-.168-4.488l.942 3.683z"/><path fill="#e5e3e4" d="m1390.071 1429.729 2.268-.829c-.176.653.131 1.578-.669 1.885-.847.326-1.237-.433-1.599-1.056z"/><path fill="#170908" d="m1396.699 1403.393-2.237.064c-.619-.081-1.207-.22-1.518-.85 1.515-.997 2.802-.901 3.755.786z"/><path fill="#9b5837" d="M1389.218 1399.708c.474.044 1.052.033 1.048.687 0 .646-.576.673-1.052.676-.48 0-1.054-.029-1.049-.677 0-.639.572-.65 1.053-.686z"/><path fill="#462a23" d="M1409.397 1441.723c2.238-2.323 4.514-2.312 6.822-.106-.231.766-.781 1.235-1.466 1.578a2.131 2.131 0 0 1-.647-.51c-.203-.205-.4-.411-.612-.603a1.98 1.98 0 0 0-1.236-.01c-.2.187-.403.367-.593.563a2.02 2.02 0 0 1-.662.468l-1.606-1.38z"/><path fill="#4b1309" d="M1411.003 1443.104c-.01-.243-.014-.486-.014-.729 1.247-.913 2.496-.91 3.748-.011 0 .277.011.554.017.831-1.277 1.065-2.527 1.039-3.751-.091z"/><path fill="#302f37" d="M1425.229 1443.121c-.789-.478-1.788-.661-2.244-1.605-.413-.53-1.059-.826-1.422-1.406l-.079-1.367 2.78.475 1.78.12h-.01c.47 1.416.779 2.8-.805 3.781z"/><path fill="#294b7f" d="M1421.563 1440.109c.78.16 2.313-.437 1.422 1.408-1.04.091-1.758-.371-2.211-1.287l.789-.121z"/><path fill="#c6a417" d="M1431.752 1437.991c.453.335.94.648.893 1.322l-.506.844c.383.932.057 1.635-.709 2.2-1.035.551-2.047.839-2.923-.282-.506-1.53-.851-3.028.844-4.106.8.01 1.6.014 2.401.022z"/><path fill="#2c2725" d="M1429.351 1437.968c-.78 1.423-.38 2.887-.153 4.345-.216.295-.509.414-.869.382-.514-.156-.883-.486-1.147-.943-.382-.843-.037-1.617.231-2.4l.138-1.413 1.8.029z"/><path fill="#7b6552" d="M1425.247 1434.95c.245-.021.49-.029.736-.026.013.225.064.44.155.646-.295-.207-.593-.413-.891-.62z"/><path fill="#3d312c" d="M1427.412 1439.351c.975.714-.137 1.498.075 2.236-.014.419-.01.839-.062 1.256-.113.419-.367.75-.667 1.05l-.022.077-1.508-.85c.729-1.162-.257-2.689.806-3.781.459 0 .919.01 1.378.012z"/><path fill="#1e0b07" d="m1446.979 1419.933-2.972.045c-.229-.172-.305-.344-.229-.515.075-.171.151-.257.229-.257l.719-1.569 2.253 2.296z"/><path fill="#2c1814" d="M1444.007 1419.207v.771c-.111.262-.222.523-.337.786l-1.914.602.733-1.452c.506-.237 1.012-.472 1.518-.707z"/><path fill="#7c6754" d="m1428.329 1442.409.868-.095 2.126-.642c.794.308 1.777.403 1.79 1.592-.064 1.084-.292 2.106-1.114 2.9-.443.63-1.017.094-1.522.171-1.526-.548-1.213-2.314-2.151-3.252l-.253-.339.256-.335z"/><path fill="#32353f" d="m1426.759 1443.893.03-1.565c.786-.366 1.025.452 1.525.705l.01.051c-.365.571-.911.796-1.565.809z"/><path fill="#e1b715" d="m1435.625 1446.856-2.054.117-.904-.804c-.667-1.304-.204-2.336.776-3.245.791-.147 1.597-.399 2.286.282l-.084-.021c.286 1.226.394 2.449-.02 3.671z"/><path fill="#5e4c24" d="M1433.549 1443.176c-.801.848-.85 1.918-.882 2.993l-.334.01-.334-.012c.079-1.046-.39-2.217.691-3.034.302-.276.587-.247.859.046z"/><path fill="#2e2617" d="m1433.549 1443.176-.858-.046-1.367-1.458.815-1.516c.602 1.717 2.43 1.989 3.59 3.05l-2.18-.03z"/><path fill="#7f7b7b" d="M1411.011 1441.594c1.21-1.127 2.437-1.022 3.676-.051-1.215.745-2.442.65-3.676.051z"/><path fill="#53312d" d="m1411.011 1441.594 3.677-.049.048.819c-1.249 0-2.498.01-3.748.01.01-.259.016-.52.023-.78z"/><path fill="#27487a" d="M1428.314 1443.033c-.509-.234-1.018-.47-1.525-.705l.698-.74.841.82a6.52 6.52 0 0 0-.014.625z"/></g></g></switch></svg>