<?xml version="1.0" encoding="UTF-8" standalone="no"?>
<!-- Created with Inkscape (http://www.inkscape.org/) -->

<svg
   width="32"
   height="32"
   viewBox="0 0 8.4666653 8.4666672"
   version="1.1"
   id="svg1627"
   inkscape:version="1.2.2 (732a01da63, 2022-12-09)"
   sodipodi:docname="user_icon.svg"
   inkscape:export-filename="citidient_icon.png"
   inkscape:export-xdpi="96"
   inkscape:export-ydpi="96"
   xml:space="preserve"
   xmlns:inkscape="http://www.inkscape.org/namespaces/inkscape"
   xmlns:sodipodi="http://sodipodi.sourceforge.net/DTD/sodipodi-0.dtd"
   xmlns="http://www.w3.org/2000/svg"
   xmlns:svg="http://www.w3.org/2000/svg"><sodipodi:namedview
     id="namedview1629"
     pagecolor="#ffffff"
     bordercolor="#000000"
     borderopacity="0.25"
     inkscape:showpageshadow="2"
     inkscape:pageopacity="0.0"
     inkscape:pagecheckerboard="0"
     inkscape:deskcolor="#d1d1d1"
     inkscape:document-units="mm"
     showgrid="false"
     inkscape:zoom="11.623098"
     inkscape:cx="33.639912"
     inkscape:cy="18.153507"
     inkscape:window-width="1920"
     inkscape:window-height="974"
     inkscape:window-x="-11"
     inkscape:window-y="-11"
     inkscape:window-maximized="1"
     inkscape:current-layer="g3865" /><defs
     id="defs1624" /><g
     inkscape:label="Layer 1"
     inkscape:groupmode="layer"
     id="layer1"
     transform="translate(-6.1156984,-49.755115)"><g
       id="g3865"
       transform="matrix(0.25195154,0,0,0.25195154,5.6902325,40.047378)"><g
         id="g1859"
         transform="matrix(0.80964124,0,0,0.80964124,-44.030033,9.6529687)"><g
           id="g1561"><path
             id="path1546"
             style="fill:#ffffff;stroke:none;stroke-width:2.52127;stroke-linecap:round;paint-order:stroke fill markers"
             d="M 93.995601,56.419285 A 16.775118,16.775118 0 0 1 77.220483,73.194402 16.775118,16.775118 0 0 1 60.445365,56.419285 16.775118,16.775118 0 0 1 77.220483,39.644167 16.775118,16.775118 0 0 1 93.995601,56.419285 Z" /><path
             id="path356"
             style="fill:none;stroke:#000000;stroke-width:2.10027;stroke-linecap:round;paint-order:stroke fill markers"
             d="m 87.96455,43.262771 c -2.927261,-2.393358 -6.667996,-3.829105 -10.744068,-3.829105 -9.380898,0 -16.985618,7.604721 -16.985618,16.985619 10e-7,9.380898 7.60472,16.985617 16.985618,16.985618 9.380898,0 16.985619,-7.60472 16.985619,-16.985618 0,-2.435002 -0.512381,-4.750331 -1.435208,-6.844052 M 91.223,46.801874 c -0.280909,-0.408211 -0.579207,-0.803527 -0.893823,-1.18488"
             sodipodi:nodetypes="cssssccc" /></g><path
           id="circle1327"
           style="fill:none;stroke:#000000;stroke-width:1.5752"
           d="m 82.804248,51.495947 a 5.583766,5.583766 0 0 1 -5.583766,5.583766 5.583766,5.583766 0 0 1 -5.583766,-5.583766 5.583766,5.583766 0 0 1 5.583766,-5.583766 5.583766,5.583766 0 0 1 5.583766,5.583766 z" /><path
           style="fill:none;stroke:#000000;stroke-width:1.75318;stroke-linecap:round;stroke-dasharray:none;stroke-opacity:1"
           d="m 65.555806,68.665019 c 0,0 4.346432,-9.350323 11.664677,-9.350323 7.318244,0 11.664676,9.350323 11.664676,9.350323"
           id="path1383"
           sodipodi:nodetypes="czc" /><path
           style="fill:#198754;fill-opacity:1;stroke:none;stroke-width:0.129053;stroke-linecap:round;stroke-dasharray:none;stroke-opacity:1;paint-order:stroke fill markers"
           d="M 70.506158,32.170502 C 69.258926,31.997505 68.84628,31.921769 68.097162,31.728363 66.028863,31.194372 63.641391,29.970471 62.222823,28.716974 l -0.368061,-0.325232 0.58315,-0.923854 c 2.273894,-3.602407 4.690339,-5.729058 7.465997,-6.57063 0.690234,-0.209277 0.909793,-0.234772 2.021836,-0.234772 1.107751,0 1.334268,0.02608 2.021836,0.232749 2.807086,0.843767 5.532486,3.292785 7.646465,6.87104 l 0.392912,0.665067 -0.578265,0.464739 c -1.976589,1.588539 -4.305093,2.63567 -6.943375,3.122442 -0.658332,0.121465 -3.415972,0.227321 -3.95916,0.151979 z"
           id="path1851"
           transform="matrix(1.0501358,0,0,1.0501358,1.6886815,38.530175)" /></g></g></g></svg>
